<svg xmlns="http://www.w3.org/2000/svg" xmlns:xlink="http://www.w3.org/1999/xlink" width="1200" height="1200" fill="none" xmlns:v="https://vecta.io/nano"><defs><path id="A" d="M0 0h1200v1200H0z"/></defs><g transform="matrix(1 0 0 1 0 0)"><mask id="B" fill="#fff"><use xlink:href="#A"/></mask><g mask="url(#B)"><g transform="matrix(1 0 0 1 180.66279 134.64655)" fill-rule="evenodd" fill="#fff"><path transform="matrix(1 0 0 1 0 0)" opacity="NaN" d="M1.2 344.61l264.15-140.26.6 515.11-146.21-83.43V466.74L.6 526.6v181.98l385.69 221.88L387.49 0 0 224.91l1.2 119.7z"/><path transform="matrix(1 0 0 1 445.82411 1.78087)" opacity="NaN" d="M122.06 201l270.79 144.15V222.62L2.42 0 0 373.98l272.41 144.94v116.92l-149.54 86.48V556.56L.81 490.89l1.61 438.04L392.04 703.9V463.66L122.06 305.91V201z"/></g></g></g></svg>