<svg xmlns="http://www.w3.org/2000/svg" width="44" height="44" xmlns:v="https://vecta.io/nano"><rect fill="#4569d4" width="44.005" height="44.005" rx="22.003"/><path d="M22.967 20.242h0c2.227-.12 4.103 1.11 5.63 3.69h0c-.233 3.16-.587 5.327-1.06 6.5h0l.35 1.23c.12.707.473 1.353 1.06 1.94h0c.82 1.053 1.23 1.99 1.23 2.81h0l-2.99.7c-1.173-.7-1.993-1.753-2.46-3.16h0c-1.993 2.227-3.927 3.28-5.8 3.16h0c-3.047-.353-4.747-2.17-5.1-5.45h0c.353-6.093 2.347-9.843 5.98-11.25h0c1.287-.353 2.34-.41 3.16-.17zm-5.45 9.31h0l.18 2.11c.233.82.467 1.23.7 1.23h0 1.23c1.64 0 3.163-1.757 4.57-5.27h0l.53-2.81c-.353-.82-1.057-1.23-2.11-1.23h0-.18c-2.573 0-4.213 1.99-4.92 5.97z" fill="#fff"/></svg>