<svg xmlns="http://www.w3.org/2000/svg" width="16" height="16" xmlns:v="https://vecta.io/nano"><path d="M10.175 13.172C10.279 14.931 11.348 16 13.21 16c1.62 0 1.982-.697 2.166-.886 0 0-.285.335-1.546.304-.724-.018-.931-.694-.931-1.694v-9c0-3-1.689-4.724-5.862-4.724-3.62 0-5.586 1.276-5.586 3.172 0 1.38 1.069 2.242 2.621 2.242.724 0 1.451-.563 1.451-.563-1.408-.082-2.102-.644-2.102-1.782 0-1.828 1.513-2.621 3.616-2.621 2.276 0 2.828 1.104 2.828 3.138v3.621H9.52c-4.172 0-8.896 1.207-8.896 4.931C.624 15 3.072 16 5.279 16c2.551 0 4.138-1.483 4.827-2.828h.069zm-.31-1.034c0 .793-.759 1.793-1.724 2.483-.69.482-1.483.793-2.242.793-1.275 0-2-.931-2-3.207 0-1.897.621-3.069 1.759-3.724.897-.517 2.103-.759 3.586-.759h.621v4.414z"/></svg>