<svg width="16" height="16" viewBox="0 0 16 16" version="1.1" xmlns="http://www.w3.org/2000/svg"><path d="M10.175,13.172c0.104,1.759 1.173,2.828 3.035,2.828c1.62,0 1.982,-0.697 2.166,-0.886c0,0 -0.285,0.335 -1.546,0.304c-0.724,-0.018 -0.931,-0.694 -0.931,-1.694l0,-9c0,-3 -1.689,-4.724 -5.862,-4.724c-3.62,0 -5.586,1.276 -5.586,3.172c0,1.38 1.069,2.242 2.621,2.242c0.724,0 1.451,-0.563 1.451,-0.563c-1.408,-0.082 -2.102,-0.644 -2.102,-1.782c0,-1.828 1.513,-2.621 3.616,-2.621c2.276,0 2.828,1.104 2.828,3.138l0,3.621l-0.345,0c-4.172,0 -8.896,1.207 -8.896,4.931c0,2.862 2.448,3.862 4.655,3.862c2.551,0 4.138,-1.483 4.827,-2.828l0.069,0Zm-0.31,-1.034c0,0.793 -0.759,1.793 -1.724,2.483c-0.69,0.482 -1.483,0.793 -2.242,0.793c-1.275,0 -2,-0.931 -2,-3.207c0,-1.897 0.621,-3.069 1.759,-3.724c0.897,-0.517 2.103,-0.759 3.586,-0.759l0.621,0l0,4.414Z"/></svg>