<svg xmlns="http://www.w3.org/2000/svg" width="160" height="160" xmlns:v="https://vecta.io/nano"><defs><linearGradient x1="55.2905824%" y1="30.2400227%" x2="5.8956238%" y2="78.3822166%" id="A"><stop stop-color="#29cdff" offset="0%"/><stop stop-color="#148eff" offset="36.2446377%"/><stop stop-color="#0a60ff" offset="100%"/></linearGradient><linearGradient x1="87.3789235%" y1="27.8488943%" x2="25.8257448%" y2="80.2051011%" id="B"><stop stop-color="#fa816e" offset="0%"/><stop stop-color="#f74a5c" offset="48.0123264%"/><stop stop-color="#f51d2c" offset="100%"/></linearGradient><linearGradient x1="50%" y1="-22.9977195%" x2="50%" y2="100%" id="C"><stop stop-color="#fa8e7d" offset="0%"/><stop stop-color="#f74a5c" offset="49.6339425%"/><stop stop-color="#f51d2c" offset="100%"/></linearGradient><linearGradient x1="50%" y1="0%" x2="32.8245806%" y2="116.815793%" id="D"><stop stop-color="#4285eb" offset="0%"/><stop stop-color="#2ec7ff" offset="100%"/></linearGradient></defs><g transform="translate(4 34)" fill-rule="evenodd"><path d="M47.549 2.321a16.26 16.26 0 0 1 22.197 5.982h0l40.265 69.972a9.11 9.11 0 0 1-3.296 12.406l-.042.024a9 9 0 0 1-12.29-3.289h0L58.148 24.696a3.05 3.05 0 0 0-5.279.001h0L16.587 87.57l-.041.07c-2.483 4.213-7.91 5.616-12.123 3.133a9.03 9.03 0 0 1-3.242-12.281h0L41.567 8.303c1.431-2.487 3.495-4.551 5.982-5.982z" fill="url(#A)"/><path d="M108.144 4.517l27.548 47.519c2.527 4.36 1.051 9.943-3.301 12.483a9.09 9.09 0 0 1-12.431-3.267l-.014-.024L92.405 13.71c-2.525-4.357-1.047-9.937 3.304-12.472 4.339-2.528 9.907-1.06 12.435 3.28z" fill="url(#B)"/><path d="M142.907 91.723c5.022 0 9.093-4.064 9.093-9.076s-4.071-9.076-9.093-9.076-9.093 4.064-9.093 9.076 4.071 9.076 9.093 9.076z" fill="url(#C)"/><path d="M65.567 14.707c5.041 0 8.81 1.958 11.308 5.874h0l33.137 57.681c2.495 4.343 1.013 9.887-3.316 12.406l-.037.022c-4.314 2.482-9.824.998-12.306-3.317h0L63.435 33.645l-5.301-8.961a3.05 3.05 0 0 0-5.283.063h0l-.039.07c3.461-6.739 7.713-10.109 12.754-10.109z" fill="url(#D)"/></g></svg>