<svg xmlns="http://www.w3.org/2000/svg" xmlns:xlink="http://www.w3.org/1999/xlink" width="32" height="32" fill="none" xmlns:v="https://vecta.io/nano"><defs><path id="A" d="M0 0h32v32H0z"/></defs><g transform="matrix(1 0 0 1 0 0)"><mask id="B" fill="#fff"><use xlink:href="#A"/></mask><g mask="url(#B)"><g transform="matrix(1 0 0 1 0 0)"><g transform="matrix(1 0 0 1 6 6.722925)" fill-rule="evenodd" fill="#fff"><path transform="translate(0 .009)" d="M4.6 3.53a4.99 4.99 0 0 1 .09-.94c.05-.31.14-.61.25-.91.11-.29.24-.57.4-.83A4.8 4.8 0 0 1 5.97 0c-.8.37-1.55.83-2.24 1.39C2 2.8.79 4.75.27 6.92.09 7.69 0 8.48 0 9.27c0 1.7.42 3.38 1.24 4.87.06-.49.18-.97.37-1.42a9.75 9.75 0 0 0 2.84 3.81c1.25 1.02 2.73 1.71 4.32 2.01-.28-.35-.5-.74-.67-1.15.84.28 1.72.42 2.6.45h.24c1.4 0 2.79-.32 4.05-.94-.21-.12-.41-.25-.6-.4 1.4-.54 2.64-1.42 3.6-2.58.45-.53.82-1.12 1.13-1.74-.48.17-.97.27-1.48.3-.11.01-.22.01-.33.01h-.1c.06-.25.11-.52.14-.78l.02-.52c0-.2-.01-.4-.03-.59-.51.25-1.06.42-1.62.49-.16.03-.32.04-.48.05.05-.26.08-.52.1-.78v-.26c0-.37-.04-.74-.11-1.11-.4.24-.83.42-1.28.54l-.49.11-.01-.01c.05-.24.08-.49.1-.73l.01-.29a4.99 4.99 0 0 0-.09-.94 5.8 5.8 0 0 1-1.94 1.35c-.74.32-1.53.48-2.32.48-.95 0-1.87-.23-2.71-.66.38-.15.74-.34 1.08-.57-.89-.43-1.65-1.1-2.17-1.94-.53-.84-.81-1.81-.81-2.8z"/><path transform="translate(13.87)" d="M2.07 9.55c0 .27-.02.53-.06.79.47-.04.92-.15 1.35-.32.23-.09.45-.19.66-.31l.07.53a5.34 5.34 0 0 1 .01.4c0 .36-.04.73-.11 1.08.54-.02 1.08-.13 1.59-.32.36-.97.55-2.01.55-3.06l-.02-.68C6.06 7 5.93 6.34 5.73 5.7a3.23 3.23 0 0 1-.3.62 7.86 7.86 0 0 0-1.08-2.93A7.76 7.76 0 0 0 2.22 1.1C1.62.68.97.34.28.09L0 0a5.91 5.91 0 0 1 1.19 2.89c0 .04.01.08.01.11 0 .05.01.09.01.13v.02c0 .03.01.07.01.11v.11c0 .03 0 .06.01.09v.06.09A5.85 5.85 0 0 1 .17 6.97a5.04 5.04 0 0 1 .11 1.09c0 .25-.01.5-.05.74.34-.08.66-.19.97-.33a5.44 5.44 0 0 0 .67-.37l.11.47c.06.32.09.65.09.98z"/></g></g></g></g></svg>