<svg xmlns="http://www.w3.org/2000/svg" viewBox="0 0 226.4 226.4" xmlns:v="https://vecta.io/nano"><linearGradient id="A" gradientUnits="userSpaceOnUse" x1="-2.944" y1="-1.328" x2="234.174" y2="232.733"><stop offset="1" stop-color="#ee5601"/></linearGradient><path d="M-.3.4h227.1v225.8H-.3z" fill="url(#A)"/><g fill="#fff"><path d="M100.3 167.7c-1.4-.8-3.1-.4-3.9 1l-10.3 17.6c-.8 1.4-.4 3.1 1 3.9s3.1.4 3.9-1l10.3-17.6c.8-1.4.4-3.1-1-3.9zm-9.9-8c-1.3-.8-3.1-.5-3.9.9l-16.6 26.1c-.8 1.3-.5 3.1.9 3.9 1.3.8 3.1.5 3.9-.9l16.6-26.1c.8-1.3.4-3-.9-3.9zm-11.5-1.8c-.1-.7-.5-1.4-1.1-1.9-.6-.4-1.4-.6-2.1-.5s-1.4.5-1.9 1.2l-11 15.2c-.5.6-.7 1.4-.5 2.1.1.7.5 1.4 1.1 1.9.6.4 1.4.6 2.1.5s1.4-.5 1.9-1.2l11-15.2c.5-.6.6-1.4.5-2.1zm88.2 6l1.7-1.7c.2-.3.5-.5.7-.8l1.6-1.9c.2-.2.4-.4.6-.7.7-.8 1.4-1.7 2-2.6.1-.2.3-.4.4-.6l1.5-2.1.6-.9c.4-.7.9-1.3 1.3-2l.5-.8c.6-.9 1.1-1.9 1.6-2.9 0 0 0-.1.1-.1l1.5-2.8c.1-.3.3-.6.4-.9l1-2.2c.1-.3.3-.7.4-1 .4-.8.7-1.7 1-2.6.1-.2.1-.4.2-.6.4-1 .7-2.1 1.1-3.2l.3-.9.7-2.4.3-1.1.6-2.5c.1-.3.1-.6.2-.9l.6-3.4c0-.2.1-.4.1-.7l.4-2.8c0-.4.1-.7.1-1.1l.2-2.5c0-.4 0-.7.1-1.1.1-1.2.1-2.3.1-3.5 0-41.8-33.9-75.6-75.6-75.6-41.8 0-75.6 33.9-75.6 75.6 0 1.2 0 2.4.1 3.6v.8l.3 3.5c0 .2 0 .4.1.6.1.5.1 1.1.2 1.6h0c2.3 17.7 10.8 33.5 23.2 45.1l3.9-6.7a67.33 67.33 0 0 1-19.9-42L120 80.2c6.1-3 13.2 1.1 13.7 7.8l6.4 85.3c-8.2 3.5-17.2 5.4-26.7 5.4-2.8 0-5.5-.2-8.3-.5l-4 7c4 .7 8.1 1 12.3 1 9.6 0 18.8-1.8 27.3-5.1h0c.5-.2 1.1-.4 1.6-.6.3-.1.5-.2.8-.3 1-.4 2-.9 3-1.4.2-.1.4-.2.7-.3.8-.4 1.5-.8 2.3-1.2.3-.2.6-.3 1-.5l2.1-1.2c.3-.2.6-.3.9-.5.9-.6 1.9-1.2 2.8-1.8.1 0 .1-.1.2-.1.8-.6 1.7-1.2 2.5-1.8.3-.2.5-.4.8-.6.6-.5 1.2-1 1.8-1.4.3-.2.6-.4.8-.7l2.1-1.8c.1-.1.3-.2.4-.4.8-.7 1.6-1.5 2.4-2.3-.2.2 0-.1.2-.3z"/><circle transform="matrix(.3827 -.9239 .9239 .3827 -51.4145 175.5759)" cx="105.7" cy="126.3" r="12.3"/></g></svg>