<svg xmlns="http://www.w3.org/2000/svg" viewBox="0 0 161.87 161.87" xmlns:v="https://vecta.io/nano"><style><![CDATA[.E{fill:#1e65eb}]]></style><defs><clipPath id="A"><path d="M27,78.33c-1.58-25.23.79-69.11,26.41-74.5S89.06,41,89.06,41L74.83,36.59S65.11,15.78,57.22,18.15c-9.82,3-13.63,27.56-12.09,50.32,1.47,21.64,13.14,54.27,13.14,54.27l-20.1,10.38S28.58,103.55,27,78.33Z" class="E"/></clipPath><clipPath id="B"><path d="M85.73,137C64.67,151,25.48,170.9,8,151.41S22.34,102,22.34,102l3.33,14.52S12.5,135.3,18.5,140.94c7.47,7,30.69-2,49.63-14.69,18-12.09,40.42-38.51,40.42-38.51l19,12.22S106.78,123.05,85.73,137Z" class="E"/></clipPath><clipPath id="C"><path d="M158.73 117.11c-8.15 24.88-50 12.3-50 12.3l10.91-10.14s22.88 2 24.77-6c2.35-10-17-25.59-37.53-35.63-19.47-9.57-53.56-15.77-53.56-15.77l1.07-22.6s30.39 6.47 53 17.72 59.48 35.24 51.34 60.12z" class="E"/></clipPath></defs><path d="M27,78.33c-1.58-25.23.79-69.11,26.41-74.5S89.06,41,89.06,41L74.83,36.59S65.11,15.78,57.22,18.15c-9.82,3-13.63,27.56-12.09,50.32,1.47,21.64,13.14,54.27,13.14,54.27l-20.1,10.38S28.58,103.55,27,78.33Z" class="E"/><g clip-path="url(#A)" class="E"><path d="M2.77 3.36h159.3v156.18H2.77z"/></g><path d="M85.73,137C64.67,151,25.48,170.9,8,151.41S22.34,102,22.34,102l3.33,14.52S12.5,135.3,18.5,140.94c7.47,7,30.69-2,49.63-14.69,18-12.09,40.42-38.51,40.42-38.51l19,12.22S106.78,123.05,85.73,137Z" class="E"/><g clip-path="url(#B)" class="E"><path d="M2.77 3.36h159.3v156.18H2.77z"/></g><path d="M158.73 117.11c-8.15 24.88-50 12.3-50 12.3l10.91-10.14s22.88 2 24.77-6c2.35-10-17-25.59-37.53-35.63-19.47-9.57-53.56-15.77-53.56-15.77l1.07-22.6s30.39 6.47 53 17.72 59.48 35.24 51.34 60.12z" class="E"/><g clip-path="url(#C)" class="E"><path d="M2.77 3.36h159.3v156.18H2.77z"/></g></svg>