<svg xmlns="http://www.w3.org/2000/svg" xmlns:xlink="http://www.w3.org/1999/xlink" id="图层_1" data-name="图层 1" viewBox="0 0 161.87 161.87"><defs><style>.cls-1{fill:#1e65eb;}.cls-2{clip-path:url(#clip-path);}.cls-3{clip-path:url(#clip-path-2);}.cls-4{clip-path:url(#clip-path-3);}.cls-5{fill:#000541;}</style><clipPath id="clip-path"><path class="cls-1" d="M27,78.33c-1.58-25.23.79-69.11,26.41-74.5S89.06,41,89.06,41L74.83,36.59S65.11,15.78,57.22,18.15c-9.82,3-13.63,27.56-12.09,50.32,1.47,21.64,13.14,54.27,13.14,54.27l-20.1,10.38S28.58,103.55,27,78.33Z"/></clipPath><clipPath id="clip-path-2"><path class="cls-1" d="M85.73,137C64.67,151,25.48,170.9,8,151.41S22.34,102,22.34,102l3.33,14.52S12.5,135.3,18.5,140.94c7.47,7,30.69-2,49.63-14.69,18-12.09,40.42-38.51,40.42-38.51l19,12.22S106.78,123.05,85.73,137Z"/></clipPath><clipPath id="clip-path-3"><path class="cls-1" d="M158.73,117.11c-8.15,24.88-50,12.3-50,12.3l10.91-10.14s22.88,2,24.77-6c2.35-10-17-25.59-37.53-35.63C87.41,68.07,53.32,61.87,53.32,61.87l1.07-22.6s30.39,6.47,53,17.72S166.87,92.23,158.73,117.11Z"/></clipPath></defs><title>新logo</title><path class="cls-1" d="M27,78.33c-1.58-25.23.79-69.11,26.41-74.5S89.06,41,89.06,41L74.83,36.59S65.11,15.78,57.22,18.15c-9.82,3-13.63,27.56-12.09,50.32,1.47,21.64,13.14,54.27,13.14,54.27l-20.1,10.38S28.58,103.55,27,78.33Z"/><g class="cls-2"><rect class="cls-1" x="2.77" y="3.36" width="159.3" height="156.18"/></g><path class="cls-1" d="M85.73,137C64.67,151,25.48,170.9,8,151.41S22.34,102,22.34,102l3.33,14.52S12.5,135.3,18.5,140.94c7.47,7,30.69-2,49.63-14.69,18-12.09,40.42-38.51,40.42-38.51l19,12.22S106.78,123.05,85.73,137Z"/><g class="cls-3"><rect class="cls-1" x="2.77" y="3.36" width="159.3" height="156.18"/></g><path class="cls-1" d="M158.73,117.11c-8.15,24.88-50,12.3-50,12.3l10.91-10.14s22.88,2,24.77-6c2.35-10-17-25.59-37.53-35.63C87.41,68.07,53.32,61.87,53.32,61.87l1.07-22.6s30.39,6.47,53,17.72S166.87,92.23,158.73,117.11Z"/><g class="cls-4"><rect class="cls-1" x="2.77" y="3.36" width="159.3" height="156.18"/></g></svg>
