<svg xmlns="http://www.w3.org/2000/svg" viewBox="0 0 1024 1024" width="32" height="32" xmlns:v="https://vecta.io/nano"><path d="M418.781 572.78h62.575l-.024 328.76-110.1.061c-11.796-.316-23.787 1.032-35.402-1.687-24.588-5.012-46.13-20.413-61.385-40.013-11.651-14.43-18.374-32.295-21.712-50.39-3.337-18.896-2.949-38.375.17-57.259 6.02-20.777 16.833-40.39 32.246-55.681 12.877-12.864 28.921-22.464 46.276-27.901 6.991-2.148 14.212-3.993 21.578-3.932l65.779.012V572.78m-69.492 148.997c-12.646 5.825-24.467 15.073-30.486 27.913-4.175 11.25-6.226 23.29-6.505 35.28-.085 14.564 4.308 29.236 12.585 41.239 9.745 14.005 26.663 23.047 43.824 22.319l50.22-.024V717.869c-18.738-.049-37.477.024-56.203-.049-4.782-.097-9.126 2.197-13.435 3.956zm165.83-52.162h62.356l.036 153.063c.012 6.457 1.857 13.156 6.262 18.035 4.818 5.364 12.173 7.792 19.248 7.804l65.912-.012-.012-178.792 62.429-.073-.012 231.973-151.352.049c-16.008-1.444-32.064-7.209-44.176-18.01-13.617-12.209-21.493-30.644-20.717-48.934l.024-165.102z" fill="#fcfbff"/><path d="M391.22 29.669c19.151-3.289 39.152 1.796 55.244 12.44 25.11 16.505 41.688 43.327 51.203 71.349 14.576 43.897 13.726 92.952-2.937 136.157-8.41 21.214-20.959 41.239-38.545 56.045-14.199 12.027-32.198 20.171-50.997 20.571-18.617.643-36.87-6.408-51.531-17.634-23.375-18.047-38.642-44.795-47.198-72.709-12.476-41.64-11.335-87.43 3.896-128.196 9.284-24.345 24.054-47.319 45.353-62.793 10.51-7.622 22.671-13.107 35.511-15.231zm280.36 21.784c13.471-2.901 27.282.801 39.419 6.675 17.209 8.313 31.821 21.323 43.63 36.239 16.469 21.008 27.901 46.227 31.384 72.781 2.682 18.471-.303 37.21-5.473 54.99-6.202 21.445-15.619 42.052-28.387 60.402-11.19 15.984-25.134 30.389-42.113 40.244-15.704 9.151-34.103 13.835-52.295 12.61-22.234-1.456-44.734-9.09-61.143-24.576-16.542-15.34-25.911-36.919-30.219-58.74-4.563-23.18-4.43-47.077-1.687-70.463 2.998-20.717 11.748-40.159 22.367-58.036 11.214-18.508 25.001-35.608 41.567-49.613 12.452-10.437 26.845-19.272 42.95-22.513zM167.887 250.549c20.34-3.738 41.7.534 59.698 10.51 26.578 14.661 47.174 38.8 60.439 65.852 5.364 11.202 9.491 23.144 10.619 35.584 3.313 31.166 2.658 63.279-6.323 93.51-6.08 20.535-16.857 40.11-33.096 54.334-20.073 17.816-47.198 26.457-73.764 26.821-22.222.328-44.285-7.925-60.997-22.537-22.076-19.127-35.79-46.312-42.987-74.274-4.721-18.981-6.918-38.909-3.799-58.327 4.551-32.452 14.054-64.99 32.732-92.26 13.398-19.564 33.702-35.232 57.477-39.212zm654.219 71.701c24.236-3.022 49.807.279 71.386 12.197 19.94 10.826 35.571 28.484 46.045 48.448 8.677 16.651 14.673 34.904 16.263 53.667.874 26.797 1.311 53.934-4.333 80.294-3.932 18.423-10.801 36.639-22.707 51.446-11.226 14.212-27.246 24.37-44.698 29.018-17.537 4.842-35.984 4.964-53.994 3.483-21.408-2.015-43.169-8.059-60.245-21.615-15.013-11.699-25.146-28.727-30.632-46.785-7.452-24.236-8.168-49.892-7.731-75.051.765-26.348 4.454-53.072 15.013-77.405 7.864-18.192 20.535-34.77 37.744-44.977 11.457-7.075 24.6-10.995 37.89-12.719zM496.72 419.28c24.467-2.925 49.65 1.408 71.908 11.942 34.564 16.238 61.288 45.317 81.677 77.017 25.401 36.639 55.159 70.063 86.362 101.836 29.673 29.88 60.706 58.436 93.17 85.27 5.413 4.624 11.238 8.787 16.178 13.945 24.552 25.098 39.601 58.946 42.78 93.826 3.532 36.967-5.364 74.116-20.328 107.758-11.238 24.709-30.596 45.584-54.553 58.388-33.132 17.913-71.762 22.209-108.875 20.862-36.105-1.493-71.944-8.119-106.387-19.005a340.47 340.47 0 0 0-129.033-9.393c-20.073 2.221-39.54 7.828-59.468 10.911-44.904 7.367-90.646 9.855-136.072 6.869-37.732-1.141-74.104-20.207-97.624-49.565-14.551-17.889-24.685-39.018-31.384-60.985-6.262-20.474-10.097-41.919-9.042-63.388 1.032-25.341 8.556-50.22 20.826-72.369 18.253-33.253 45.887-60.281 75.779-83.158 8.52-6.808 18.022-12.537 25.268-20.789 14.09-13.059 28.945-25.268 42.793-38.581 26.105-24.697 50.196-51.725 69.893-81.859 5.656-8.495 10.425-17.585 16.712-25.656 26.299-34.297 66.155-59.019 109.421-63.873m-77.939 153.5v91.969c-21.93 0-43.861.036-65.779-.012-7.367-.061-14.588 1.784-21.578 3.932-17.355 5.437-33.399 15.037-46.276 27.901-15.413 15.292-26.227 34.904-32.246 55.681-3.119 18.884-3.507 38.363-.17 57.259 3.337 18.095 10.061 35.96 21.712 50.39 15.255 19.6 36.797 35.001 61.385 40.013 11.614 2.719 23.605 1.371 35.402 1.687l110.1-.061.024-328.76c-20.862-.024-41.712-.012-62.575 0m96.338 96.836l-.024 165.102c-.777 18.289 7.1 36.724 20.717 48.934 12.112 10.801 28.168 16.566 44.176 18.01l151.352-.049.012-231.973c-20.814-.012-41.627-.146-62.429.073l.012 178.792-65.912.012c-7.075-.012-14.43-2.439-19.248-7.804-4.405-4.879-6.25-11.578-6.262-18.035l-.036-153.063c-20.789-.012-41.579-.012-62.356 0zm-165.83 52.159c4.308-1.76 8.653-4.054 13.435-3.956l56.203.049v130.635c-16.736.036-33.472-.024-50.22.024-17.161.728-34.079-8.313-43.824-22.319-8.277-12.003-12.67-26.676-12.585-41.239.279-11.991 2.33-24.03 6.505-35.28 6.02-12.84 17.84-22.088 30.486-27.913z" fill="#306cff"/></svg>