<svg xmlns="http://www.w3.org/2000/svg" viewBox="0 0 1024 1024" width="128" height="128" fill="#fff" xmlns:v="https://vecta.io/nano"><path d="M477.013 85.333c-216.337 0-391.68 175.343-391.68 391.663s175.343 391.663 391.68 391.663c216.286 0 391.646-175.36 391.646-391.68 0-216.286-175.36-391.646-391.68-391.646zm0 68.267c178.586 0 323.379 144.777 323.379 323.396 0 178.603-144.794 323.396-323.396 323.396-178.62 0-323.396-144.794-323.396-323.413 0-178.586 144.777-323.379 323.413-323.379z"/><path d="M713.557 713.557a34.133 34.133 0 0 1 46.08-1.997l2.185 1.997 166.844 166.844a34.133 34.133 0 0 1-46.097 50.261l-2.185-1.997L713.54 761.822a34.133 34.133 0 0 1 0-48.265zM307.2 546.133a34.133 34.133 0 0 1 30.345 18.5l-1.621-2.423c38.127 58.778 95.898 92.826 165.513 94.72l6.161.085v68.267c-93.867 0-173.687-44.373-225.382-120.542l-3.567-5.359.171-.119a34.133 34.133 0 0 1 28.382-53.129z"/></svg>