<svg xmlns="http://www.w3.org/2000/svg" viewBox="0 0 1024 1024" xmlns:v="https://vecta.io/nano"><path d="M726.4 695.8c-1 0-2-.3-3.1-.3-16.2 116.7-123.9 198.2-240.6 182-94.6-13.1-168.9-87.5-182-182-1 .3-2 .3-3.1.3-84.6.4-153.4-67.8-153.8-152.4S211.6 390 296.2 389.6c55.4-.3 106.6 29.4 133.9 77.6a213.3 213.3 0 0 1 163.8 0c41.7-73.6 135.2-99.4 208.7-57.7s99.4 135.2 57.7 208.7c-27.3 48.1-78.5 77.8-133.9 77.6z" fill="#fff"/><path d="M512 22C144.5 22 22 144.5 22 512s122.5 490 490 490 490-122.5 490-490S879.5 22 512 22zm348.3 596.1c-27.3 48.2-78.5 77.9-133.9 77.6-1 0-2-.3-3.1-.3-16.2 116.7-123.9 198.2-240.6 182-94.6-13.1-168.9-87.5-182-182-1 .3-2 .3-3.1.3-84.6.4-153.4-67.8-153.8-152.4s67.8-153.4 152.4-153.8c55.4-.3 106.6 29.4 133.9 77.6a213.3 213.3 0 0 1 163.8 0c41.7-73.6 135.2-99.4 208.7-57.7 73.6 41.7 99.4 135.2 57.7 208.7zm-470.8-60.2c0-50.7-41.1-91.9-91.9-91.9s-91.9 41.1-91.9 91.9c0 16.9 13.7 30.6 30.6 30.6s30.6-13.7 30.6-30.6 13.7-30.6 30.6-30.6 30.6 13.7 30.6 30.6 13.7 30.6 30.6 30.6 30.8-13.6 30.8-30.6zm245 76.6c-16.9 0-30.6 13.7-30.6 30.6 0 50.7-41.1 91.9-91.9 91.9s-91.9-41.1-91.9-91.9c0-16.9-13.7-30.6-30.6-30.6s-30.6 13.7-30.6 30.6c0 84.6 68.6 153.1 153.1 153.1s153.1-68.6 153.1-153.1c0-16.9-13.7-30.6-30.6-30.6zm91.9-168.4c-50.7 0-91.9 41.1-91.9 91.9 0 16.9 13.7 30.6 30.6 30.6s30.6-13.7 30.6-30.6 13.7-30.6 30.6-30.6S757 541 757 557.9s13.7 30.6 30.6 30.6 30.6-13.7 30.6-30.6c0-50.7-41.1-91.8-91.8-91.8z" fill="#4e42d4"/></svg>