<svg xmlns="http://www.w3.org/2000/svg" width="800" height="800" viewBox="0 0 600 600" preserveAspectRatio="xMidYMid meet" fill="#f24747" xmlns:v="https://vecta.io/nano"><path d="M192.4 51.3c-69.8 35-90.5 45.8-91.8 47.9-1.5 2.4-1.6 20.2-1.6 201.1v198.6l2.3 2.5c2.8 3.3 180.6 92.6 184.2 92.6 1.6 0 3.8-1.1 5.4-2.8l2.8-2.7-.1-288.9-.1-288.8-2.8-2.4c-1.5-1.3-4-2.4-5.5-2.4-1.5.1-43.1 20.4-92.8 45.3zm118.8 157.4c-1.7.8-3.5 2.7-4 4.1-.7 1.8-1 66-.9 189.5l.2 186.9 2.8 2.4c1.5 1.3 3.9 2.4 5.3 2.4 2.3 0 177.8-87.4 183.4-91.3l2.5-1.7.2-99.3c.3-92.9.2-99.3-1.5-101.4-1.5-1.9-174.5-89.5-181.8-92-2.4-.9-3.8-.8-6.2.4z"/></svg>