<svg xmlns="http://www.w3.org/2000/svg" width="416" height="388" fill-rule="evenodd" xmlns:v="https://vecta.io/nano"><rect width="86.154" height="258.462" x="103.517" y="191.553" fill="#e74c3c" rx="8" transform="matrix(.173648 -.984808 .984808 .173648 -196.772351 409.447351)"/><rect width="86.154" height="258.462" x="90.379" y="139.221" fill="#f39c12" rx="8" transform="matrix(.5 -.866025 .866025 .5 -167.758252 249.802286)"/><rect width="86.154" height="258.462" x="96.682" y="85.65" fill="#18bc9c" rx="8" transform="matrix(.766044 -.642788 .642788 .766044 -107.424573 140.108366)"/><rect width="86.154" height="258.462" x="120.217" y="36.872" fill="#2c3e50" rx="8" transform="matrix(.939693 -.34202 .34202 .939693 -48.962739 65.867074)"/><path fill="#fff" d="M157.541 252.121c-.104-.521-.156-1.051-.156-1.583V8.078c0-4.421 3.585-8.001 8.008-8.001h70.137a8 8 0 0 1 8.008 8v128.584c13.474-4.762 27.973-7.353 43.077-7.353 71.373 0 129.231 57.858 129.231 129.23s-57.858 129.231-129.23 129.231-129.231-57.858-129.231-129.23a131.36 131.36 0 0 1 .156-6.418zm129.074 49.494c23.791 0 43.077-19.286 43.077-43.077s-19.286-43.076-43.077-43.076-43.077 19.286-43.077 43.076 19.287 43.077 43.077 43.077z"/></svg>