<svg xmlns="http://www.w3.org/2000/svg" width="48" height="48" fill="none" xmlns:v="https://vecta.io/nano"><g clip-path="url(#A)" stroke="#fff" stroke-width="4" stroke-linejoin="round"><path d="M24 10l-12 8 12 8 12-8-12-8z"/><path d="M24 10l12 8 5-7-11-7-6 6z"/><path d="M24 10l-12 8-5-7 11-7 6 6zm19 12l-7-4-12 8 7 5 12-9z"/><path d="M5 22l7-4 12 8-7 5-12-9z"/><path d="M36 28v9l-12 7-12-7v-9" stroke-linecap="round"/></g><defs><clipPath id="A"><path fill="#fff" d="M0 0h48v48H0z"/></clipPath></defs></svg>