<svg xmlns="http://www.w3.org/2000/svg" viewBox="0 0 1024 1024" width="128" height="128" fill="#fff" xmlns:v="https://vecta.io/nano"><path d="M698.689 630.203l-54.143-31.466 25.597-.108 54.143 31.466-25.597.108zM407.755 956.168l-54.143-31.45.737.415 54.143 31.466"/><path d="M408.492 956.598l-54.143-31.466a64.176 64.176 0 0 0 7.006 3.426l54.143 31.466a64.176 64.176 0 0 1-7.006-3.426"/><path d="M415.498 960.024l-54.143-31.466a63.223 63.223 0 0 0 7.129 2.504l54.143 31.466a63.223 63.223 0 0 1-7.129-2.52"/><path d="M422.627 962.544l-54.143-31.481a68.877 68.877 0 0 0 7.436 1.721l54.174 31.481a68.877 68.877 0 0 1-7.436-1.721"/><path d="M430.094 964.264l-54.143-31.466a78.234 78.234 0 0 0 7.959.937l54.143 31.466a78.234 78.234 0 0 1-7.959-.937"/><path d="M438.022 965.202l-54.143-31.466a80.754 80.754 0 0 0 8.85 0l54.143 31.466a84.779 84.779 0 0 1-8.85 0"/><path d="M446.872 965.263l-54.143-31.466a94.842 94.842 0 0 0 10.355-1.029l54.143 31.466a94.842 94.842 0 0 1-10.355 1.029"/><path d="M457.227 964.234l-54.143-31.466a118.303 118.303 0 0 0 12.768-2.735l54.189 31.466a118.303 118.303 0 0 1-12.768 2.735"/><path d="M470.041 961.499l-54.143-31.466a157.005 157.005 0 0 0 18.806-6.499l54.143 31.45a154.547 154.547 0 0 1-18.898 6.514"/><path d="M488.893 954.985l-54.189-31.45a234.102 234.102 0 0 0 26.964-13.459 275.447 275.447 0 0 0 55.802-42.912l54.143 31.466a274.802 274.802 0 0 1-55.802 42.896 229.232 229.232 0 0 1-26.964 13.459m82.812-56.356l-54.143-31.466q8.589-8.496 16.808-17.961l54.143 31.466q-8.204 9.449-16.808 17.961"/><path d="M588.467 880.669l-54.143-31.466q6.499-7.452 12.737-15.502l54.143 31.466q-6.238 8.051-12.737 15.502"/><path d="M601.204 865.166l-54.143-31.466q5.577-7.221 10.97-14.888l54.143 31.466q-5.393 7.682-10.97 14.888"/><path d="M612.174 850.278l-54.143-31.466q5.162-7.359 10.125-15.134l54.143 31.466q-4.978 7.79-10.125 15.134"/><path d="M622.299 835.145l-54.143-31.466q4.947-7.682 9.741-15.948l54.143 31.466q-4.763 8.204-9.741 15.948"/><path d="M632.04 819.197l-54.143-31.466.937-1.629q4.609-7.974 8.942-16.117l54.143 31.466q-4.333 8.128-8.942 16.117l-.937 1.629"/><path d="M641.919 801.451l-54.143-31.466q4.794-8.988 9.218-18.191l54.143 31.466q-4.425 9.218-9.218 18.191"/><path d="M651.137 783.26l-54.143-31.466q4.609-9.449 8.742-19.082l54.143 31.466q-4.194 9.633-8.742 19.082"/><path d="M659.879 764.178l-54.143-31.466q4.425-10.202 8.435-20.634l54.143 31.542q-4.01 10.448-8.435 20.634"/><path d="M668.314 743.621l-54.143-31.466q4.379-11.354 8.266-23.046l54.143 31.466q-3.902 11.661-8.266 23.046"/><path d="M676.58 720.575l-54.143-31.466q4.456-13.367 8.266-27.087l54.143 31.466q-3.826 13.735-8.266 27.087m8.266-27.148l-54.143-31.466q4.609-16.808 8.373-34.154l54.143 31.466q-3.718 17.346-8.373 34.154"/><path d="M693.219 659.272l-54.174-31.466q3.073-14.365 5.47-29.069l54.143 31.466q-2.397 14.703-5.47 29.069m4.425-411.019l-54.143-31.466q-25.581-77.112-67.756-101.557l54.112 31.404Q672 171.217 697.582 248.252M586.178 98.069L532.05 66.603q6.146-.461 12.015-1.337l54.143 31.527q-5.838.876-12.03 1.337"/><path d="M598.208 96.794l-54.143-31.527a129.98 129.98 0 0 0 14.304-2.996l54.143 31.45a133.667 133.667 0 0 1-14.304 3.073"/><path d="M612.512 93.721l-54.143-31.45a111.866 111.866 0 0 0 13.367-4.517l54.128 31.466a110.713 110.713 0 0 1-13.351 4.502"/><path d="M625.863 89.219l-54.128-31.466a96.993 96.993 0 0 0 11.477-5.639 126.661 126.661 0 0 0 25.842-19.128l54.143 31.542a126.661 126.661 0 0 1-25.842 19.051 98.438 98.438 0 0 1-11.492 5.639"/><path d="M663.198 64.529l-54.143-31.542 1.828-1.874 2.028-2.212 54.143 31.466-2.028 2.212-1.828 1.874"/><path d="M667.054 60.365L612.927 28.9l2.581-3.073 54.143 31.466-2.581 3.073m2.565-3.15L615.492 25.75l2.335-3.165 54.143 31.466-2.335 3.165"/><path d="M671.971 54.051l-54.143-31.466 2.228-3.334 54.143 31.45-2.228 3.334"/><path d="M674.199 50.701l-54.143-31.45 2.212-3.626 54.143 31.45q-1.075 1.89-2.212 3.641"/><path d="M676.411 47.076l-54.143-31.45 2.274-4.102 54.143 31.496-2.274 4.087"/><path d="M678.685 43.019l-54.143-31.496 2.412-4.747 54.143 31.466-2.412 4.747"/><path d="M681.097 38.241L626.954 6.776l2.597-5.7 54.143 31.466-2.597 5.7"/><path d="M683.694 32.541L629.551 1.075 630.027 0l54.143 31.466-.476 1.075m-342.266 976.156l-54.143-31.466a123.297 123.297 0 0 1-19.497-14.104q-70.613-62.04-71.228-282.023a882.574 882.574 0 0 1 7.206-115.922l54.143 31.466a882.574 882.574 0 0 0-7.206 115.922q.615 220.029 71.228 282.023a125.263 125.263 0 0 0 19.497 14.104"/><path d="M257.909 596.648l-54.143-31.466q4.425-34.139 11.554-67.525l54.143 31.466q-7.129 33.401-11.554 67.525"/><path d="M269.463 529.123l-54.143-31.466q5.255-24.583 11.984-48.796l54.143 31.466q-6.729 24.198-11.984 48.796"/><path d="M281.447 480.327l-54.158-31.466q5.639-20.204 12.291-40.177l54.128 31.496q-6.637 19.973-12.291 40.146"/><path d="M293.707 440.181l-54.128-31.496q5.977-17.899 12.768-35.552l54.143 31.466q-6.791 17.653-12.768 35.552"/><path d="M306.475 404.628l-54.143-31.466q6.33-16.516 13.367-32.848l54.204 31.496q-7.083 16.317-13.428 32.848"/><path d="M319.903 371.811l-54.204-31.496q2.212-5.116 4.502-10.202 4.148-9.218 8.45-18.16l54.143 31.45q-4.302 8.942-8.45 18.176-2.274 5.101-4.502 10.202m13.013-28.379l-54.143-31.512q5.992-12.399 12.291-24.245l54.128 31.527q-6.299 11.846-12.291 24.229"/><path d="M345.131 319.173l-54.143-31.466q6.007-11.323 12.291-22.17l54.143 31.466q-6.315 10.755-12.291 22.17m12.337-22.17l-54.143-31.466q6.146-10.678 12.737-20.849l54.112 31.466q-6.499 10.186-12.737 20.849"/><path d="M370.174 276.154l-54.112-31.466q6.622-10.325 13.505-20.173l54.143 31.466q-6.898 9.833-13.505 20.173"/><path d="M383.71 255.981l-54.143-31.466q7.359-10.463 15.026-20.373l54.143 31.466q-7.682 9.91-15.026 20.373"/><path d="M398.736 235.608l-54.143-31.466q8.696-11.2 17.792-21.663l54.143 31.466q-9.126 10.463-17.792 21.663"/><path d="M416.528 213.945l-54.143-31.466q11.738-13.474 24.183-25.766l54.143 31.466q-12.445 12.291-24.183 25.796"/><path d="M440.711 188.148l-54.143-31.435a422.512 422.512 0 0 1 85.762-65.635 246.01 246.01 0 0 1 29.115-14.427l54.143 31.466a248.237 248.237 0 0 0-29.192 14.411 423.157 423.157 0 0 0-85.762 65.651m114.954-80.093L501.445 76.62a208.352 208.352 0 0 1 25.443-8.711l54.143 31.466a208.352 208.352 0 0 0-25.504 8.711m25.565-8.711l-54.204-31.466 5.101-1.306 54.128 31.466-5.086 1.306"/><path d="M684.17 31.466l38.948 192.051-25.504 24.767q-25.888-77.973-68.662-102.14-42.774-24.168-111.036 15.18-89.588 51.715-138.277 192.543-48.689 140.827-48.289 307.128.507 180.958 43.434 259.1 42.927 78.142 141.058 21.433 68.247-39.378 117.12-123.957 48.873-84.579 65.712-187.365l25.581-.108a661.853 661.853 0 0 1-78.357 214.144q-57.323 99.206-134.052 143.5-119.333 68.908-189.931 6.852-70.598-62.055-71.212-282.023-.538-185.752 73.748-350.992 74.285-165.241 202.022-239.08a225.529 225.529 0 0 1 59.705-24.429q29.822-2.182 51.178-14.488a122.79 122.79 0 0 0 27.655-21.003q10.632-11.124 19.159-31.112z"/></svg>