<svg xmlns="http://www.w3.org/2000/svg" height="90" width="76" xmlns:v="https://vecta.io/nano"><path d="M9.473.001c-.65-.018-1.279.294-1.744.868S7.001 2.228 7 3.048v24.728c-1.314 2.934-1.992 6.065-2 9.225.011 3.638.911 7.23 2.637 10.525-1.054.319-2.124.745-3.119 1.201C2.031 49.865 0 51.155 0 51.155l.533.844s1.985-1.256 4.4-2.361c1.026-.469 2.124-.901 3.17-1.205.376.648.783 1.282 1.221 1.898-1.269.323-2.594.843-3.807 1.398C3.031 52.867 1 54.155 1 54.155l.533.844s1.985-1.254 4.4-2.359c1.208-.553 2.521-1.066 3.725-1.363.117-.029.226-.046.34-.07a25.52 25.52 0 0 0 1.602 1.877c-.386.053-.778.123-1.18.223-1.298.321-2.659.855-3.902 1.424C4.031 55.868 2 57.155 2 57.155l.533.844s1.985-1.254 4.4-2.359c1.208-.553 2.521-1.066 3.725-1.363.674-.167 1.304-.251 1.863-.258.498.473 1.017.928 1.555 1.365-1.358 2.689-2.068 5.633-2.076 8.617 0 6.601 3.42 12.778 9.14 16.506-1.763 1.577-2.498 3.606-1.973 5.443.433 1.505 1.674 2.743 3.45 3.442s3.94.8 6.017.283c1.692-.424 3.223-1.234 4.363-2.309 1.141 1.075 2.672 1.885 4.365 2.309 2.077.518 4.241.416 6.016-.282s3.016-1.936 3.45-3.441c.528-1.845-.213-3.881-1.988-5.461 2.149-1.392 4.008-3.151 5.482-5.189 1.715.803 3.387 2.151 5.09 3.51 4.218 3.367 9.823 4.292 14.115 1.684s6.525-7.917 6.471-14.473a4 4 0 0 0-4.094-4.021 4 4 0 0 0-3.906 4.09c.039 4.752-1.491 6.879-2.625 7.568s-2.622.775-4.971-1.1c-1.56-1.245-3.78-3.203-6.828-4.574A19.08 19.08 0 0 0 54 64.001c-.007-2.982-.715-5.925-2.07-8.613.53-.439 1.041-.895 1.531-1.369.563.01 1.198.09 1.879.258 1.204.298 2.517.81 3.724 1.363 2.415 1.105 4.4 2.359 4.4 2.359l.535-.844s-2.033-1.287-4.52-2.426c-1.243-.569-2.602-1.103-3.9-1.424a11.35 11.35 0 0 0-1.15-.219c.565-.602 1.098-1.228 1.598-1.875.105.023.205.038.313.064 1.204.298 2.517.81 3.724 1.363 2.415 1.106 4.4 2.359 4.4 2.359l.535-.844s-2.033-1.287-4.52-2.426c-1.221-.559-2.552-1.082-3.828-1.404a24.47 24.47 0 0 0 1.223-1.898c1.052.305 2.157.739 3.189 1.211 2.415 1.105 4.4 2.361 4.4 2.361l.535-.844s-2.033-1.289-4.52-2.428c-.996-.456-2.065-.882-3.119-1.201 1.727-3.295 2.627-6.887 2.639-10.525-.004-3.169-.683-6.309-2-9.252V3.048c0-.821-.263-1.607-.729-2.18s-1.095-.886-1.746-.867c-.405.012-.801.151-1.152.406L38.717 12.534A31.24 31.24 0 0 0 33 12.001a31.23 31.23 0 0 0-5.693.551L10.625.407C10.274.152 9.878.013 9.473.001zM10 5.999l5.682 11.361c-2.183 1.536-4.098 3.353-5.682 5.393V5.999zm45.999 0V22.79a26.43 26.43 0 0 0-5.691-5.408L56 5.999zM18.604 34.003h0c.99-.019 2.002.092 3.002.338 3.995.99 7.021 3.982 7.387 7.576a.87.87 0 0 1-.174.617c-2.238 2.922-6.427 4.111-10.428 3.127-3.995-.99-7.023-3.982-7.389-7.576a.87.87 0 0 1 .174-.617c1.678-2.192 4.455-3.409 7.426-3.465zm28.789 0h0c2.971.056 5.747 1.273 7.426 3.465a.87.87 0 0 1 .174.617c-.365 3.594-3.394 6.586-7.389 7.576-4 .985-8.19-.205-10.428-3.127a.87.87 0 0 1-.174-.617c.365-3.594 3.392-6.586 7.387-7.576a11.65 11.65 0 0 1 3.002-.338zm-24.894 1.998c-.663 0-1.299.316-1.768.879s-.732 1.326-.732 2.121.263 1.559.732 2.121 1.105.879 1.768.879 1.299-.316 1.768-.879.732-1.326.732-2.121-.263-1.559-.732-2.121-1.105-.879-1.768-.879zm21.002 0c-.663 0-1.299.316-1.768.879S41 38.205 41 39.001s.263 1.559.732 2.121 1.105.879 1.768.879c1.38-.001 2.498-1.344 2.498-3s-1.118-2.999-2.498-3zM33 47.998c1.657 0 3 .895 3 2s-1.343 2-3 2c-.796 0-1.559-.211-2.121-.586S30 50.529 30 49.998s.316-1.039.879-1.414 1.326-.586 2.121-.586z"/></svg>