<svg xmlns="http://www.w3.org/2000/svg" viewBox="0 0 1024 1024" width="128" height="128" xmlns:v="https://vecta.io/nano"><path d="M531.187 256.511c-6.396-38.374-6.396-121.519 19.187-166.289 12.791-19.187 25.583-25.583 38.374-25.583 127.915-6.396 127.915 31.979 127.915 51.166s-6.396 25.583-12.791 31.979c-25.583 19.187-83.145 19.187-127.915 19.187v63.957c44.77 6.396 127.915 6.396 172.685-31.979 25.583-19.187 31.979-51.166 31.979-83.145C774.225 32.66 710.268-5.715 582.353.681c-38.374 0-63.957 19.187-83.145 51.166-38.374 57.562-38.374 153.498-31.979 204.664C205.004 288.49.341 557.111.341 825.732c0 89.54 57.562 102.332 140.706 102.332 51.166 0 115.123-6.396 172.685-6.396 25.583 0 44.77 0 70.353 6.396C512 940.855 588.749 1024 703.872 1024c76.749 0 140.706-51.166 191.872-70.353 51.166-25.583 127.915-44.77 127.915-108.728 0-275.017-217.455-575.617-492.472-588.408zm-217.455 601.2h0c6.396-70.353 31.979-153.498 95.936-153.498h0c12.791 0 25.583 0 31.979 12.791 31.979 31.979 38.374 102.332 38.374 172.685-25.583-6.396-57.562-19.187-89.54-19.187-19.187-12.791-44.77-12.791-76.749-12.791zm230.247 51.166c6.396-83.145-6.396-185.477-57.562-236.642-19.187-25.583-51.166-31.979-76.749-31.979h0c-63.957 0-140.706 38.374-159.894 223.851h-25.583-76.749c-83.145 0-83.145-12.791-83.145-38.374 0-230.247 179.081-492.472 428.515-505.264 6.396 6.396 12.791 12.791 19.187 25.583 38.374 44.77 108.728 127.915 153.498 268.621 38.374 121.519 38.374 236.642 38.374 345.37-44.77 0-89.54-19.187-134.311-38.374-12.791-6.396-19.187-6.396-25.583-12.791zm358.162-31.979c-12.791 6.396-25.583 12.791-38.374 12.791l-38.374 19.187c-19.187 12.791-38.374 19.187-57.562 31.979 0-108.728 0-223.851-38.374-351.766S627.123 371.634 582.353 320.468c217.455 44.77 377.349 294.204 377.349 518.055 0 12.791-38.374 31.979-57.562 38.374z" fill="#fff"/></svg>