<svg xmlns="http://www.w3.org/2000/svg" width="412" height="113" fill="none" xmlns:v="https://vecta.io/nano"><path d="M60.541 6.736L7.228 54.333a5.53 5.53 0 0 0 .113 8.348l53.2 44.97M350.845 6.736l53.313 47.597a5.53 5.53 0 0 1-.113 8.348l-53.2 44.97" stroke="#a6a6a6" stroke-width="10.24" stroke-linecap="round"/><path d="M75.743 57.568c0-4.276.664-8.276 1.991-11.999s3.226-6.949 5.695-9.677 5.474-4.866 9.013-6.414 7.52-2.322 11.944-2.322c5.456 0 10.617.995 15.483 2.986l-2.875 10.949c-1.548-.664-3.299-1.217-5.253-1.659s-4.037-.664-6.248-.664c-5.235 0-9.216 1.64-11.944 4.921s-4.092 7.907-4.092 13.879c0 5.751 1.29 10.303 3.871 13.658s6.93 5.032 13.05 5.032c2.286 0 4.534-.221 6.746-.664s4.129-.995 5.751-1.659l1.88 11.059c-1.475.737-3.705 1.401-6.691 1.991s-6.064.885-9.234.885c-4.94 0-9.234-.756-12.884-2.267s-6.672-3.613-9.069-6.304-4.184-5.898-5.364-9.622-1.769-7.76-1.769-12.11zm65.736-.221c0 5.898 1.401 10.525 4.202 13.879s6.672 5.032 11.612 5.032c2.138 0 3.963-.092 5.474-.276s2.746-.387 3.705-.608V42.196c-1.18-.811-2.746-1.567-4.7-2.267s-4.037-1.051-6.248-1.051c-4.866 0-8.423 1.659-10.672 4.977s-3.373 7.815-3.373 13.492zm38.375 27.316c-2.654.811-5.99 1.548-10.009 2.212s-8.239.995-12.663.995c-4.571 0-8.663-.7-12.276-2.101s-6.691-3.41-9.234-6.027-4.497-5.788-5.861-9.511-2.046-7.907-2.046-12.552c0-4.571.571-8.718 1.714-12.442s2.82-6.912 5.032-9.566a22.43 22.43 0 0 1 8.073-6.138c3.17-1.438 6.82-2.157 10.949-2.157 2.802 0 5.272.332 7.41.995s3.981 1.401 5.53 2.212V2.825L179.855.613v84.05zm17.961-54.19c2.58-.737 5.935-1.438 10.064-2.101s8.7-.995 13.713-.995c4.719 0 8.663.645 11.833 1.935s5.695 3.097 7.576 5.419 3.207 5.124 3.981 8.405 1.161 6.875 1.161 10.783v32.514h-13.382V56.02c0-3.097-.203-5.732-.608-7.907s-1.069-3.944-1.991-5.308-2.175-2.359-3.76-2.986-3.52-.94-5.806-.94a44.59 44.59 0 0 0-5.308.332l-4.092.553v46.67h-13.382v-55.96z" fill="#ff6934"/><path d="M256.031 107.003c-.958 0-2.304-.092-4.037-.276s-3.262-.535-4.59-1.051l1.769-10.949c1.622.516 3.576.774 5.861.774 3.097 0 5.272-.903 6.525-2.71s1.88-4.516 1.88-8.129v-56.07h13.382v56.291c0 7.52-1.788 13.087-5.364 16.699s-8.718 5.419-15.428 5.419zm22.229-95.33c0 2.507-.811 4.497-2.433 5.972s-3.539 2.212-5.751 2.212c-2.286 0-4.239-.737-5.861-2.212s-2.433-3.465-2.433-5.972c0-2.58.811-4.608 2.433-6.083s3.576-2.212 5.861-2.212c2.212 0 4.129.737 5.751 2.212s2.433 3.502 2.433 6.083zm31.01 65.139c3.539 0 6.119-.424 7.741-1.272s2.433-2.304 2.433-4.368c0-1.917-.866-3.502-2.599-4.755s-4.59-2.617-8.571-4.092c-2.433-.885-4.663-1.825-6.691-2.82s-3.779-2.157-5.253-3.484a14.29 14.29 0 0 1-3.484-4.811c-.848-1.88-1.272-4.184-1.272-6.912 0-5.308 1.954-9.492 5.861-12.552s9.216-4.59 15.925-4.59c3.392 0 6.636.313 9.732.94s5.419 1.235 6.967 1.825l-2.433 10.838c-1.475-.664-3.355-1.272-5.64-1.825s-4.94-.829-7.963-.829c-2.728 0-4.94.461-6.636 1.382s-2.544 2.341-2.544 4.258c0 .958.166 1.806.498 2.544s.903 1.419 1.714 2.046 1.88 1.253 3.207 1.88 2.949 1.272 4.866 1.935c3.17 1.18 5.861 2.341 8.073 3.484s4.037 2.433 5.474 3.871 2.488 3.078 3.152 4.921.995 4.055.995 6.636c0 5.53-2.046 9.714-6.138 12.552s-9.935 4.258-17.529 4.258c-5.087 0-9.179-.424-12.276-1.272s-5.272-1.53-6.525-2.046l2.322-11.17c1.991.811 4.368 1.585 7.133 2.322s5.917 1.106 9.456 1.106z" fill="#ebebeb"/></svg>