<svg xmlns="http://www.w3.org/2000/svg" viewBox="0 0 512 512" xmlns:v="https://vecta.io/nano"><style>.A{animation-delay:150ms}.B{animation-delay:150ms}.C{animation-delay:150ms}.D{animation-delay:300ms}.E{animation-delay:300ms}.F{animation-delay:300ms}.G{animation-delay:300ms}.H{animation-delay:300ms}.I{animation-delay:300ms}.J{animation-delay:450ms}.K{animation-delay:450ms}.L{animation-delay:450ms}.M{animation-delay:450ms}.N{animation-delay:450ms}.O{animation-delay:600ms}.P{animation-delay:600ms}</style><path class="A" d="M255.7 154.62v50.69a50.49 50.49 0 0 0-35.84 14.85L184 184.31a101.09 101.09 0 0 1 71.7-29.69z" fill="#61b0ff"/><path class="B" d="M219.86,220a50.52,50.52,0,0,0-14.72,35.89l-50.69.19a101.08,101.08,0,0,1,29.43-71.79Z" fill="#c2a2d5"/><path class="C" d="M255.7 306.69v50.69a101.09 101.09 0 0 1-71.7-29.69l35.85-35.85a50.49 50.49 0 0 0 35.85 14.85z" fill="#f45d6b"/><path class="D" d="M363.22 148.48l-35.83 35.83a101.09 101.09 0 0 0-71.69-29.69v-50.68a151.5 151.5 0 0 1 107.52 44.54z" fill="#f2cc2c"/><path class="E" d="M255.7,103.94v50.68A101.09,101.09,0,0,0,184,184.31l-35.83-35.83A151.5,151.5,0,0,1,255.7,103.94Z" fill="#3b8bff"/><path class="F" d="M184,184.31A101.09,101.09,0,0,0,154.32,256H103.64a151.5,151.5,0,0,1,44.54-107.52Z" fill="#986fb5"/><path class="G" d="M184,327.69l-35.83,35.83A151.5,151.5,0,0,1,103.64,256h50.68A101.09,101.09,0,0,0,184,327.69Z" fill="#04a390"/><path class="H" d="M255.7 357.38v50.68a151.5 151.5 0 0 1-107.52-44.54L184 327.69a101.09 101.09 0 0 0 71.7 29.69z" fill="#db424d"/><path class="I" d="M363.22,363.52A151.5,151.5,0,0,1,255.7,408.06V357.38a101.09,101.09,0,0,0,71.69-29.69Z" fill="#f9973e"/><path class="J" d="M399.07 112.63l-35.85 35.85a151.5 151.5 0 0 0-107.52-44.54V53.25a202.12 202.12 0 0 1 143.37 59.38z" fill="#ffe85f"/><path class="K" d="M255.7,53.25v50.69a151.5,151.5,0,0,0-107.52,44.54l-35.85-35.85A202.12,202.12,0,0,1,255.7,53.25Z" fill="#45afff"/><path class="L" d="M148.18 363.52l-35.85 35.85A202.12 202.12 0 0 1 53 256h50.69a151.5 151.5 0 0 0 44.49 107.52z" fill="#15ceae"/><path class="M" d="M255.7,408.06v50.69a202.12,202.12,0,0,1-143.37-59.38l35.85-35.85A151.5,151.5,0,0,0,255.7,408.06Z" fill="#ff505d"/><path class="N" d="M399.07,399.37A202.12,202.12,0,0,1,255.7,458.75V408.06a151.5,151.5,0,0,0,107.52-44.54Z" fill="#ffb164"/><path class="O" d="M255.7,2.56V53.25a202.12,202.12,0,0,0-143.37,59.38L76.49,76.79A252.68,252.68,0,0,1,255.7,2.56Z" fill="#6ecbff"/><path class="P" d="M255.7,458.75v50.69A252.68,252.68,0,0,1,76.49,435.21l35.84-35.84A202.12,202.12,0,0,0,255.7,458.75Z" fill="#ff6679"/></svg>