<svg xmlns="http://www.w3.org/2000/svg" width="117" height="117" fill="none" xmlns:v="https://vecta.io/nano"><path fill-rule="evenodd" d="M94.364 67.633a1 1 0 0 0-.391-1.656L53.896 52.632a1 1 0 0 0-1.265 1.265l13.346 40.076a1 1 0 0 0 1.656.391l10.081-10.081a1 1 0 0 1 1.414 0l12.485 12.485a1 1 0 0 0 1.414 0l3.741-3.741a1 1 0 0 0 0-1.414L84.283 79.128a1 1 0 0 1 0-1.414l10.081-10.081z" fill="#fff"/><path d="M33.34 35.961v3.025l-.35 8.56c-.233 1.925-.921 3.701-2.064 5.329-1.119 1.627-2.961 3.002-5.526 4.125 3.008 1.169 5.083 2.934 6.226 5.294 1.143 2.338 1.714 5.592 1.714 9.763v6.566c0 1.765.128 3.105.385 4.022a3.37 3.37 0 0 0 1.714 2.063c.886.481 2.285.722 4.197.722H41V91h-3.078c-3.824 0-6.622-1.066-8.394-3.197-1.749-2.131-2.623-5.787-2.623-10.967v-5.122c0-4.08-.571-7.025-1.714-8.835-1.119-1.811-3.183-2.808-6.191-2.991v-5.776c2.402-.138 4.162-.745 5.281-1.822s1.83-2.452 2.133-4.125c.326-1.673.49-3.827.49-6.463v-3.369c0-3.942.303-6.979.909-9.11.63-2.131 1.83-3.701 3.602-4.71S35.765 23 39.146 23H41v5.535h-.77c-1.865 0-3.288.172-4.267.516-.979.321-1.667.986-2.064 1.994-.373 1.008-.56 2.647-.56 4.916zm50.32 3.025v-3.025c0-2.269-.187-3.908-.56-4.916-.396-1.008-1.084-1.673-2.064-1.994-.979-.344-2.402-.516-4.267-.516H76V23h1.854c3.381 0 5.958.504 7.73 1.513s2.973 2.578 3.603 4.71c.606 2.131.909 5.168.909 9.11v3.369c0 2.636.163 4.79.49 6.463.303 1.673 1.014 3.048 2.133 4.125s2.88 1.685 5.281 1.822v5.776L91.599 57c-2.565-1.123-4.407-2.498-5.526-4.125a11.58 11.58 0 0 1-2.064-5.329c-.234-1.926-.35-4.779-.35-8.56z" fill="#35ba67"/></svg>