<svg xmlns="http://www.w3.org/2000/svg" width="128" height="128" fill="none" xmlns:v="https://vecta.io/nano"><path d="M105.965 50.785c-.335-2.185-2.769-3.362-4.447-4.454l-8.98-5.967-21.483-14.371-5.035-3.362c-1.175-.84-2.769-.84-4.028 0l-14.434 9.665-21.147 14.119c-1.846 1.177-4.28 2.353-4.364 4.874v8.404V73.14c0 2.437-.503 5.295 1.762 6.808 5.371 3.698 10.825 7.228 16.28 10.842l20.14 13.447c1.846 1.26 3.692 2.605 5.958 1.092l5.706-3.782 22.406-14.96 8.308-5.547c.503-.336 1.09-.672 1.594-1.093 1.175-.84 1.678-2.017 1.678-3.446V53.39c.084-.925.168-1.765.084-2.605 0-.084 0 .168 0 0h0zm-38.35-18.406l28.28 18.91-12.588 8.488-15.693-10.505V32.379zm-7.217 0v16.809L44.789 59.694l-12.671-8.404 28.28-18.91h0zM29.265 58.013l8.979 6.051-8.979 6.051V58.013zm31.133 37.735l-28.28-18.91 12.588-8.488 15.609 10.505v16.893h.084zm3.608-23.112l-12.756-8.573 12.756-8.572 12.755 8.572-12.755 8.573zm3.608 23.112V78.939l15.609-10.505 12.588 8.488-28.196 18.826h0zm31.133-25.633l-8.979-6.051 9.063-6.051-.084 12.102h0z" fill="#fff"/></svg>