<svg xmlns="http://www.w3.org/2000/svg" width="38" height="38" fill="none" xmlns:v="https://vecta.io/nano"><path d="M1.228 17.436c-.299 3.528-.009 7.078.857 10.512v-.007c.347 1.57 1.015 3.053 1.962 4.361s2.154 2.413 3.548 3.249 2.946 1.385 4.563 1.614a12.3 12.3 0 0 0 4.845-.28c6.724-1.588 12.796-5.165 17.394-10.25a10.55 10.55 0 0 0 2.602-6.115c.224-3.013-.775-5.988-2.777-8.275 0 0-4.844-5.992-16.046-10.103C13.006.14 7.071 1.868 4.196 6.5c-.31.5-.579 1.025-.802 1.568v-.007c-1.209 2.997-1.94 6.159-2.167 9.374" fill="url(#C)"/><g style="mix-blend-mode:overlay" filter="url(#A)"><path d="M25.443 20.947h-8.185a.52.52 0 0 0-.519.519v8.185a.48.48 0 0 0 .187.395c.112.103.267.146.416.114a10.39 10.39 0 0 0 8.611-8.611c.032-.149-.011-.304-.114-.415a.48.48 0 0 0-.395-.187z" fill="#000" fill-opacity=".5"/><path d="M7.583 20.992l8.185.057a.52.52 0 0 1 .516.523l-.057 8.185c.004.154-.067.301-.19.393-.112.103-.268.144-.416.111A10.39 10.39 0 0 1 7.07 21.59c-.031-.149.013-.304.117-.415a.48.48 0 0 1 .396-.184z" fill="#000" fill-opacity=".5"/><path d="M16.674 19.977v-8.185a.48.48 0 0 1 .187-.395c.112-.103.267-.146.416-.114a10.39 10.39 0 0 1 8.611 8.611c.032.149-.011.304-.114.416a.48.48 0 0 1-.395.187h-8.185a.52.52 0 0 1-.519-.519z" fill="#000" fill-opacity=".5"/><path d="M16.224 19.977v-8.185c.005-.154-.065-.301-.187-.395-.112-.103-.267-.146-.415-.114a10.39 10.39 0 0 0-8.611 8.611c-.032.149.011.304.114.416a.48.48 0 0 0 .395.187h8.185a.52.52 0 0 0 .519-.519z" fill="#000" fill-opacity=".5"/></g><g filter="url(#B)"><path d="M25.636 19.674h-8.185a.52.52 0 0 0-.519.519v8.185a.48.48 0 0 0 .187.395c.112.104.267.146.415.114a10.39 10.39 0 0 0 8.611-8.611c.032-.149-.011-.304-.114-.415-.094-.122-.241-.192-.395-.187z" fill="#14ff64"/><path d="M7.777 19.718l8.185.057a.52.52 0 0 1 .516.523l-.057 8.185a.48.48 0 0 1-.19.393c-.112.103-.268.144-.416.111a10.39 10.39 0 0 1-8.551-8.671c-.031-.149.013-.304.117-.415.095-.122.242-.19.396-.184z" fill="#fe0bea"/><path d="M16.869 18.705v-8.185a.48.48 0 0 1 .187-.395c.112-.103.267-.146.416-.114a10.39 10.39 0 0 1 8.611 8.611c.032.149-.011.304-.114.415a.48.48 0 0 1-.395.187h-8.185a.52.52 0 0 1-.519-.519z" fill="#ffea20"/><path d="M16.418 18.705v-8.185c.005-.154-.065-.301-.187-.395-.112-.103-.267-.146-.415-.114a10.39 10.39 0 0 0-8.611 8.611c-.032.149.011.304.114.415a.48.48 0 0 0 .395.187h8.185a.52.52 0 0 0 .519-.519z" fill="#4ef2ff"/></g><defs><filter id="A" x="5.987" y="10.259" width="20.989" height="21.027" filterUnits="userSpaceOnUse" color-interpolation-filters="sRGB"><feFlood flood-opacity="0"/><feBlend in="SourceGraphic"/><feGaussianBlur stdDeviation=".507"/></filter><filter id="B" x="7.195" y="6.2" width="18.961" height="25.333" filterUnits="userSpaceOnUse" color-interpolation-filters="sRGB"><feFlood flood-opacity="0"/><feBlend in="SourceGraphic" result="B"/><feColorMatrix in="SourceAlpha" values="0 0 0 0 0 0 0 0 0 0 0 0 0 0 0 0 0 0 127 0" result="C"/><feOffset dy="2.53333"/><feGaussianBlur stdDeviation="1.267"/><feComposite in2="C" operator="arithmetic" k2="-1" k3="1"/><feColorMatrix values="0 0 0 0 1 0 0 0 0 1 0 0 0 0 1 0 0 0 0.25 0"/><feBlend mode="overlay" in2="B" result="D"/><feColorMatrix in="SourceAlpha" values="0 0 0 0 0 0 0 0 0 0 0 0 0 0 0 0 0 0 127 0" result="C"/><feOffset dy="-5.06667"/><feGaussianBlur stdDeviation="1.267"/><feComposite in2="C" operator="arithmetic" k2="-1" k3="1"/><feColorMatrix values="0 0 0 0 0 0 0 0 0 0 0 0 0 0 0 0 0 0 0.15 0"/><feBlend mode="overlay" in2="D" result="E"/><feColorMatrix in="SourceAlpha" values="0 0 0 0 0 0 0 0 0 0 0 0 0 0 0 0 0 0 127 0" result="C"/><feOffset dy="0.633333"/><feGaussianBlur stdDeviation=".95"/><feComposite in2="C" operator="arithmetic" k2="-1" k3="1"/><feColorMatrix values="0 0 0 0 1 0 0 0 0 1 0 0 0 0 1 0 0 0 0.7 0"/><feBlend mode="overlay" in2="E" result="F"/><feColorMatrix in="SourceAlpha" values="0 0 0 0 0 0 0 0 0 0 0 0 0 0 0 0 0 0 127 0" result="C"/><feOffset dy="-3.8"/><feGaussianBlur stdDeviation="3.8"/><feComposite in2="C" operator="arithmetic" k2="-1" k3="1"/><feColorMatrix values="0 0 0 0 0 0 0 0 0 0 0 0 0 0 0 0 0 0 0.5 0"/><feBlend mode="overlay" in2="F" result="G"/><feColorMatrix in="SourceAlpha" values="0 0 0 0 0 0 0 0 0 0 0 0 0 0 0 0 0 0 127 0" result="C"/><feOffset dy="2.53333"/><feGaussianBlur stdDeviation="2.533"/><feComposite in2="C" operator="arithmetic" k2="-1" k3="1"/><feColorMatrix values="0 0 0 0 1 0 0 0 0 1 0 0 0 0 1 0 0 0 0.5 0"/><feBlend mode="overlay" in2="G"/></filter><linearGradient id="C" x1="17.946" y1="1.054" x2="20.054" y2="36.946" gradientUnits="userSpaceOnUse"><stop stop-color="#0088ea"/><stop offset="1" stop-color="#0033ea"/></linearGradient></defs></svg>