<svg xmlns="http://www.w3.org/2000/svg" width="48" height="48" viewBox="0 0 150 150" class="svg-logo" data-v-807225e8=""><path d="M21.2 26.4C35.1 11 54 2.5 74.8 2.5c26.1 0 49.8 13.7 62.8 36H80.4c-9 0-15.5.3-22.4 3.9-7.6 4-13.6 10.8-16.9 18.8L21.2 26.4z" fill="#ea4335" data-v-807225e8=""></path> <path d="M74.8 5c23.7 0 45.3 11.7 58.3 31H80.4c-9.4 0-16.1.3-23.5 4.2-6.6 3.5-12.2 9.1-15.9 15.7L24.3 26.8C37.6 12.7 55.4 5 74.8 5m0-5C54.1 0 33.3 8.5 18.1 26.1l23.7 41.2c2.3-9.9 8.8-18.3 17.4-22.8 6.5-3.4 12.6-3.6 21.2-3.6h61.4C128.1 14.2 101.6 0 74.8 0z" fill="#504c23" data-v-807225e8=""></path> <circle cx="75" cy="75" r="22.4" fill="#4285f4" data-v-807225e8=""></circle> <path d="M75 55.1a19.89 19.89 0 1 1 0 39.8C64 94.9 55 86 55 75s9-19.9 20-19.9m0-5c-13.8 0-25 11.1-25 24.9s11.2 24.9 25 24.9S99.9 88.7 99.9 75 88.7 50.1 75 50.1z" fill="#504c23" data-v-807225e8=""></path> <path d="M59.2 145.8c-23.1-5.1-41.6-20.5-50.9-42.5C-.6 82.3.9 58.5 12.1 39l31.1 54c6.9 11.8 18.4 18.6 31.6 18.6a40.28 40.28 0 0 0 4.9-.3l-20.5 34.5z" fill="#34a853" data-v-807225e8=""></path> <path d="M12.2 44.1L41 94.2c7.3 12.6 19.6 19.9 33.7 19.9h.3l-17 28.8c-10.4-2.6-19.8-7.3-27.9-14.1-8.4-7.1-15.2-16.2-19.5-26.5-8-18.9-7.3-40.1 1.6-58.2m0-10c-28.8 44.1-4 104.3 48.3 114.5l24.2-40.9c-3.2 1-6.6 1.4-9.9 1.4-11.2 0-22.5-5.5-29.4-17.4L12.2 34.1zm72.5 73.5c-.1 0-.1 0 0 0z" fill="#504c23" data-v-807225e8=""></path> <path d="M74.6 147.5l32-54.2c7.6-13.1 6.3-29.1-2.8-40.7h40.1c7.2 22 3.6 45.3-9.8 64.3-13.8 19.5-35.3 30.6-59 30.6h-.5z" fill="#fbbc05" data-v-807225e8=""></path> <path d="M142.1 55.1c6.2 20.7 2.6 42.5-10 60.4-12.5 17.7-31.7 28.3-53 29.5l29.7-50.3c7.2-12.6 6.9-27.6-.2-39.5h33.5m3.6-5.1H98.1c11.6 10.8 14.2 28.2 6.3 42l-34.1 57.8c1.6.1 3.2.1 4.8.1 51.4 0 87.8-51.1 70.6-99.9z" fill="#504c23" data-v-807225e8=""></path></svg>
