<svg xmlns="http://www.w3.org/2000/svg" width="100%" height="100%" viewBox="0 0 676 102" fill-rule="evenodd" stroke-linejoin="round" stroke-miterlimit="1.41421" xmlns:v="https://vecta.io/nano"><path d="M.5 44h675v14H.5z" fill="url(#A)"/><path d="M80.96.67C92.533.67 102.147 3.447 109.8 9s13.16 13.183 16.52 22.89h-6.58c-2.8-7.653-7.513-13.79-14.14-18.41S90.76 6.55 80.96 6.55c-7.467 0-14.21 1.797-20.23 5.39s-10.78 8.75-14.28 15.47-5.25 14.607-5.25 23.66c0 8.96 1.75 16.8 5.25 23.52s8.26 11.877 14.28 15.47 12.763 5.39 20.23 5.39c9.8 0 18.013-2.31 24.64-6.93s11.34-10.71 14.14-18.27h6.58c-3.36 9.707-8.867 17.313-16.52 22.82s-17.267 8.26-28.84 8.26c-8.96 0-16.963-2.123-24.01-6.37S44.42 84.763 40.5 77.11s-5.88-16.333-5.88-26.04 1.96-18.387 5.88-26.04 9.403-13.627 16.45-17.92S72 .67 80.96.67zM256.8 75.99c0 4.293-.98 8.377-2.94 12.25s-5.04 7.023-9.24 9.45-9.473 3.64-15.82 3.64c-6.067 0-11.48-1.167-16.24-3.5s-8.54-5.46-11.34-9.38-4.433-8.167-4.9-12.74h6.58c.467 2.987 1.657 6.067 3.57 9.24s4.737 5.833 8.47 7.98 8.307 3.22 13.72 3.22c6.907 0 12.227-1.913 15.96-5.74s5.6-8.587 5.6-14.28c0-4.947-1.167-8.913-3.5-11.9s-5.203-5.273-8.61-6.86-8.05-3.267-13.93-5.04c-6.253-1.867-11.247-3.663-14.98-5.39s-6.883-4.363-9.45-7.91-3.85-8.213-3.85-14c0-7.093 2.473-12.927 7.42-17.5S215.127.67 223.9.67c8.867 0 15.89 2.217 21.07 6.65s8.377 9.73 9.59 15.89h-6.72c-.933-4.387-3.407-8.377-7.42-11.97s-9.52-5.39-16.52-5.39c-6.44 0-11.597 1.657-15.47 4.97s-5.81 8.003-5.81 14.07c0 4.667 1.12 8.423 3.36 11.27s5.017 5.04 8.33 6.58 7.817 3.15 13.51 4.83c6.347 1.867 11.433 3.71 15.26 5.53s7.07 4.55 9.73 8.19 3.99 8.54 3.99 14.7zm130.48 0c0 4.293-.98 8.377-2.94 12.25s-5.04 7.023-9.24 9.45-9.473 3.64-15.82 3.64c-6.067 0-11.48-1.167-16.24-3.5s-8.54-5.46-11.34-9.38-4.433-8.167-4.9-12.74h6.58c.467 2.987 1.657 6.067 3.57 9.24s4.737 5.833 8.47 7.98 8.307 3.22 13.72 3.22c6.907 0 12.227-1.913 15.96-5.74s5.6-8.587 5.6-14.28c0-4.947-1.167-8.913-3.5-11.9s-5.203-5.273-8.61-6.86-8.05-3.267-13.93-5.04c-6.253-1.867-11.247-3.663-14.98-5.39s-6.883-4.363-9.45-7.91-3.85-8.213-3.85-14c0-7.093 2.473-12.927 7.42-17.5S345.607.67 354.38.67c8.867 0 15.89 2.217 21.07 6.65s8.377 9.73 9.59 15.89h-6.72c-.933-4.387-3.407-8.377-7.42-11.97s-9.52-5.39-16.52-5.39c-6.44 0-11.597 1.657-15.47 4.97s-5.81 8.003-5.81 14.07c0 4.667 1.12 8.423 3.36 11.27s5.017 5.04 8.33 6.58 7.817 3.15 13.51 4.83c6.347 1.867 11.433 3.71 15.26 5.53s7.07 4.55 9.73 8.19 3.99 8.54 3.99 14.7zm123.9-74.34v5.32h-44.52v41.58h39.48v5.04h-39.48v46.76h-6.3V1.65h50.82zm122.78 98.7l-27.02-44.38-25.48 44.38h-7.14l29.26-50.12-29.54-48.58h7.42l26.6 43.68 25.76-43.68h7.14l-29.54 49.42 29.96 49.28h-7.42z" fill="#fff" fill-rule="nonzero"/><defs><linearGradient id="A" x1=".5" y1="51" x2="675.5" y2="51" gradientUnits="userSpaceOnUse"><stop offset="0" stop-color="#2ceafc"/><stop offset="1" stop-color="#fe2d6f"/></linearGradient></defs></svg>