<svg xmlns="http://www.w3.org/2000/svg" width="145" height="52" fill="#000" xmlns:v="https://vecta.io/nano"><path d="M11.5 32.9v7.2c0 .9.2 1.6.6 2.1s1 .8 1.6.8h2.9v1.7h-2.8c-1.1 0-2.1-.4-2.9-1.2s-1.2-1.9-1.2-3.4v-7.2c0-1.3-.2-2.6-.7-3.7-.4-1.1-1-2-1.7-2.7s-1.6-1.3-2.5-1.7-1.9-.6-3-.6H0v-1.7h1.9c1.3 0 2.5.2 3.6.7 1.2.5 2.2 1.1 3.1 2s1.6 2 2.1 3.3c.6 1.4.8 2.8.8 4.4zm-3.4 0v7.2c0 2 .6 3.5 1.7 4.6a5.66 5.66 0 0 0 4.1 1.7h2.8v1.7h-2.8c-2.1 0-3.9-.7-5.3-2.2-1.5-1.4-2.2-3.4-2.2-5.8v-7.2c0-1.7-.4-3-1.2-3.9S3.3 27.6 2 27.6H0v-1.7h1.9c1.7 0 3.2.6 4.4 1.9 1.2 1.2 1.8 2.9 1.8 5.1zm-3.4 0v7.2c0 2.9.9 5.3 2.7 7a8.91 8.91 0 0 0 6.5 2.7h2.9v1.7H14c-1.9 0-3.7-.5-5.4-1.4s-3-2.2-4-4-1.5-3.8-1.5-6.1v-7.2c0-.7-.1-1.2-.3-1.4s-.5-.4-.9-.4H0v-1.7h1.8c.8 0 1.5.3 2 .9.6.6.9 1.5.9 2.7zm-.1-11.1l-1.7-.2c0-.3.1-.6.1-.9v-9.2c0-2.3.5-4.3 1.5-6.1s2.4-3.1 4-4S11.9 0 13.9 0h2.8v1.7h-2.9a8.91 8.91 0 0 0-6.5 2.7c-1.8 1.8-2.7 4.1-2.7 7v9.2c.1.5 0 .9 0 1.2zm3.1 1.4l-1.6-.8c.2-.8.2-1.4.2-1.7v-9.2c0-2.4.7-4.4 2.2-5.8s3.2-2.2 5.3-2.2h2.8v1.7h-2.8a5.66 5.66 0 0 0-4.1 1.7C8.6 8 8.1 9.6 8.1 11.5v9.2c0 .8-.1 1.6-.4 2.5zm2.8 2.4l-1.3-1.3c.4-1.1.6-2.3.6-3.6v-9.2c0-1.4.4-2.5 1.2-3.4A4.17 4.17 0 0 1 13.9 7h2.8v1.7h-2.9c-.7 0-1.2.3-1.6.8s-.6 1.2-.6 2.1v9.2c-.1 1.7-.4 3.3-1.1 4.8zm48-11.9l-1.5.9c-1.8-2.7-4.1-4.7-7-6.3C47.1 6.8 44 6 40.7 6c-2.7 0-5.2.5-7.7 1.6-2.4 1-4.5 2.4-6.3 4.2s-3.2 3.9-4.2 6.3-1.6 5-1.6 7.7.5 5.2 1.6 7.7c1 2.4 2.4 4.5 4.2 6.3S30.6 43 33 44s5 1.6 7.7 1.6c3.3 0 6.4-.8 9.3-2.3a20.26 20.26 0 0 0 7-6.3l1.4 1c-2 2.9-4.5 5.1-7.6 6.8s-6.5 2.5-10.1 2.5a21.24 21.24 0 0 1-8.3-1.7c-2.6-1.1-4.9-2.7-6.8-4.6s-3.4-4.2-4.6-6.8a21.24 21.24 0 0 1-1.7-8.3 21.24 21.24 0 0 1 1.7-8.3c1.1-2.6 2.7-4.9 4.6-6.8s4.2-3.4 6.8-4.6 5.4-1.7 8.3-1.7c3.6 0 7 .8 10.1 2.5 3.2 1.5 5.7 3.8 7.7 6.7zm-2.8 2l-1.4.9c-1.5-2.2-3.4-3.9-5.8-5.2s-4.9-1.9-7.7-1.9c-2.2 0-4.3.4-6.3 1.3s-3.7 2-5.2 3.5-2.6 3.2-3.5 5.2-1.3 4.1-1.3 6.3.4 4.3 1.3 6.3 2 3.8 3.5 5.2c1.5 1.5 3.2 2.6 5.2 3.5s4.1 1.3 6.3 1.3c2.8 0 5.3-.6 7.7-1.9s4.3-3 5.8-5.2l1.4 1c-1.7 2.4-3.8 4.3-6.4 5.7s-5.4 2.1-8.5 2.1c-3.3 0-6.3-.8-9-2.4-2.8-1.6-4.9-3.8-6.6-6.6-1.6-2.8-2.4-5.8-2.4-9s.8-6.3 2.4-9c1.6-2.8 3.8-4.9 6.6-6.6 2.8-1.6 5.8-2.4 9-2.4 3 0 5.9.7 8.5 2.1s4.7 3.3 6.4 5.8zm-2.9 1.9l-1.4.9c-1.2-1.7-2.7-3.1-4.6-4.1s-3.9-1.5-6.1-1.5c-2.3 0-4.5.6-6.5 1.7-2 1.2-3.5 2.7-4.7 4.7s-1.7 4.1-1.7 6.5c0 2.3.6 4.5 1.7 6.5s2.7 3.5 4.7 4.7 4.1 1.7 6.5 1.7c2.2 0 4.2-.5 6.1-1.5s3.4-2.4 4.6-4.1l1.4 1c-1.3 2-3.1 3.5-5.2 4.7a14.68 14.68 0 0 1-6.9 1.7 14.3 14.3 0 0 1-7.3-2 14.95 14.95 0 0 1-5.3-5.3 14.3 14.3 0 0 1 0-14.6 14.95 14.95 0 0 1 5.3-5.3 14.3 14.3 0 0 1 7.3-2 14.68 14.68 0 0 1 6.9 1.7c2.1 1.1 3.9 2.6 5.2 4.6zM50 19.5l-1.4.9c-.9-1.3-2-2.3-3.3-3s-2.9-1.1-4.5-1.1c-2.6 0-4.8.9-6.7 2.8-1.8 1.8-2.8 4.1-2.8 6.7s.9 4.8 2.8 6.7c1.8 1.8 4.1 2.8 6.7 2.8 1.6 0 3.1-.4 4.5-1.1s2.5-1.8 3.3-3l1.4 1c-1 1.5-2.3 2.7-4 3.5-1.6.9-3.4 1.3-5.2 1.3-1.5 0-2.9-.3-4.3-.9s-2.6-1.4-3.6-2.4-1.8-2.2-2.4-3.6-.9-2.8-.9-4.3.3-2.9.9-4.3 1.4-2.6 2.4-3.6 2.2-1.8 3.6-2.4 2.8-.9 4.3-.9a10.94 10.94 0 0 1 5.3 1.3c1.5.9 2.9 2.1 3.9 3.6zm27.7 2h-2.9c-1.2 0-2.1-.3-2.6-.9s-.8-1.5-.8-2.5c0-2.3 1.7-3.4 5.1-3.4 3.2 0 5.6.5 7.2 1.4l-1.4 1c-1.1-.5-3.1-.8-5.9-.8-1.4 0-2.3.2-2.8.5-.4.3-.6.7-.6 1.2s.1 1 .4 1.3.7.5 1.4.5h3c2.1 0 4.1.4 5.8 1.1s3.1 1.7 4.2 3 2 2.7 2.5 4.4c.6 1.6.9 3.4.9 5.3 0 1.5-.2 3-.6 4.3-.4 1.4-1.1 2.6-1.9 3.8-.9 1.1-1.9 2.1-3.1 3-1.2.8-2.7 1.5-4.3 2-1.7.5-3.5.7-5.4.7a26.73 26.73 0 0 1-8.6-1.4c-2.7-.9-4.9-2.2-6.7-3.9l1.4-1c1.6 1.5 3.6 2.6 6.1 3.4 2.4.8 5 1.2 7.8 1.2 2.2 0 4.1-.3 5.9-.9s3.2-1.5 4.3-2.6a12.25 12.25 0 0 0 2.6-3.8c.6-1.4.9-3 .9-4.7 0-2.2-.4-4.2-1.3-6s-2.2-3.2-4.1-4.3-4-1.9-6.5-1.9zM74.8 30h2.6c1.2 0 2.1.3 2.6 1 .5.6.8 1.5.8 2.5 0 2.3-1.7 3.4-5.1 3.4-3.2 0-5.6-.5-7.3-1.4l1.4-1c1.1.5 3.1.8 5.9.8 1.4 0 2.3-.2 2.8-.5s.7-.7.7-1.3c0-.5-.1-.9-.4-1.3-.3-.3-.7-.5-1.4-.5h-2.6c-2.2 0-4.2-.4-5.9-1.1a11.49 11.49 0 0 1-4.4-3c-1.1-1.3-2-2.7-2.6-4.4-.6-1.5-.9-3.2-.9-5.2 0-1.5.2-3 .6-4.3.4-1.4 1.1-2.6 1.9-3.8.9-1.1 1.9-2.1 3.1-3s2.7-1.5 4.3-2 3.5-.7 5.4-.7a26.73 26.73 0 0 1 8.6 1.4c2.7.9 4.9 2.2 6.7 3.9l-1.4 1c-1.6-1.5-3.6-2.6-6.1-3.4-2.4-.8-5-1.2-7.8-1.2-2.2 0-4.1.3-5.9.9s-3.2 1.5-4.3 2.6a12.25 12.25 0 0 0-2.6 3.8c-.6 1.4-.9 3-.9 4.7 0 2.2.5 4.3 1.4 6 .9 1.8 2.3 3.2 4.1 4.3 2 1.3 4.2 1.8 6.7 1.8zm0-6.8h2.7c3.2 0 5.7 1 7.6 3 1.8 2 2.7 4.4 2.7 7.3 0 3-1.1 5.4-3.2 7.4s-5.1 2.9-8.9 2.9c-2.5 0-4.9-.3-7.1-1s-4-1.7-5.5-3l1.3-1.1c1.3 1.1 2.9 1.9 4.9 2.5s4.1.9 6.4.9c3.3 0 5.9-.8 7.7-2.4s2.7-3.7 2.7-6.2-.7-4.5-2.2-6.1-3.6-2.4-6.4-2.4h-2.7c-2.3 0-4.1-.6-5.2-1.9s-1.7-2.9-1.7-5 .7-3.7 2.2-5c1.4-1.3 3.6-1.9 6.5-1.9 2 0 3.9.2 5.6.7s3.2 1.1 4.3 2L85 15c-2-1.4-4.8-2-8.5-2-2.4 0-4.1.5-5.2 1.4s-1.7 2.2-1.7 3.7c0 1.6.4 2.8 1.2 3.7s2.1 1.4 4 1.4zm0 3.4h2.6c2.3 0 4.1.6 5.2 1.9 1.2 1.3 1.7 2.9 1.7 4.9s-.7 3.7-2.2 5c-1.4 1.3-3.6 1.9-6.5 1.9-2 0-3.9-.2-5.6-.7s-3.2-1.1-4.3-2l1.4-1c2 1.4 4.8 2 8.6 2 2.4 0 4.1-.5 5.2-1.4s1.7-2.2 1.7-3.7-.4-2.8-1.2-3.7-2.2-1.4-4-1.4h-2.6c-3.3 0-5.8-1-7.6-2.9s-2.7-4.4-2.7-7.4 1.1-5.4 3.2-7.4c2.1-1.9 5.1-2.9 8.9-2.9 2.5 0 4.9.3 7.1 1s4 1.7 5.5 3l-1.3 1.1C86.6 11.8 85 11 83 10.4s-4.1-.9-6.4-.9c-3.3 0-5.9.8-7.7 2.4s-2.7 3.7-2.7 6.2.7 4.5 2.2 6.2c1.5 1.5 3.6 2.3 6.4 2.3zm36.1-5.1H108c-1.2 0-2.1-.3-2.6-.9s-.8-1.5-.8-2.5c0-2.3 1.7-3.4 5.1-3.4 3.2 0 5.6.5 7.2 1.4l-1.4 1c-1.1-.5-3.1-.8-5.9-.8-1.4 0-2.3.2-2.8.5s-.7.7-.7 1.3.1 1 .4 1.3.7.5 1.4.5h3c2.1 0 4.1.4 5.8 1.1s3.1 1.7 4.2 3 2 2.7 2.5 4.4c.6 1.6.9 3.4.9 5.3 0 1.5-.2 3-.6 4.3-.4 1.4-1.1 2.6-1.9 3.8-.9 1.1-1.9 2.1-3.1 3-1.2.8-2.7 1.5-4.3 2-1.7.5-3.5.7-5.4.7a26.73 26.73 0 0 1-8.6-1.4c-2.7-.9-4.9-2.2-6.7-3.9l1.4-1c1.6 1.5 3.6 2.6 6.1 3.4 2.4.8 5 1.2 7.8 1.2 2.2 0 4.1-.3 5.9-.9s3.2-1.5 4.3-2.6a12.25 12.25 0 0 0 2.6-3.8c.6-1.4.9-3 .9-4.7 0-2.2-.4-4.2-1.3-6s-2.2-3.2-4.1-4.3-3.9-2-6.4-2zm-2.8 8.5h2.6c1.2 0 2.1.3 2.6 1 .5.6.8 1.5.8 2.5 0 2.3-1.7 3.4-5.1 3.4-3.2 0-5.6-.5-7.3-1.4l1.4-1c1.1.5 3.1.8 5.9.8 1.4 0 2.3-.2 2.8-.5s.7-.7.7-1.3c0-.5-.1-.9-.4-1.3-.3-.3-.7-.5-1.4-.5h-2.6c-2.2 0-4.2-.4-5.9-1.1a11.49 11.49 0 0 1-4.4-3c-1.1-1.3-2-2.7-2.6-4.4s-.9-3.4-.9-5.3c0-1.5.2-3 .6-4.3.4-1.4 1.1-2.6 1.9-3.8.9-1.1 1.9-2.1 3.1-3 1.2-.8 2.7-1.5 4.3-2s3.5-.7 5.4-.7a26.73 26.73 0 0 1 8.6 1.4c2.7.9 4.9 2.2 6.7 3.9l-1.4 1c-1.6-1.5-3.6-2.6-6.1-3.4-2.4-.8-5-1.2-7.8-1.2-2.2 0-4.1.3-5.9.9s-3.2 1.5-4.3 2.6a12.25 12.25 0 0 0-2.6 3.8c-.6 1.4-.9 3-.9 4.7 0 2.2.5 4.3 1.4 6 .9 1.8 2.3 3.2 4.1 4.3 1.9 1.4 4.1 1.9 6.7 1.9zm0-6.8h2.7c3.2 0 5.7 1 7.6 3s2.7 4.4 2.7 7.3c0 3-1.1 5.4-3.2 7.4s-5.1 2.9-8.9 2.9c-2.5 0-4.9-.3-7.1-1s-4-1.7-5.5-3l1.3-1.1c1.3 1.1 2.9 1.9 4.9 2.5s4.1.9 6.4.9c3.3 0 5.9-.8 7.7-2.4s2.7-3.7 2.7-6.2-.7-4.5-2.2-6.1-3.6-2.4-6.4-2.4h-2.7c-2.3 0-4.1-.6-5.2-1.9s-1.7-2.9-1.7-5 .7-3.7 2.2-5c1.4-1.3 3.6-1.9 6.5-1.9 2 0 3.9.2 5.6.7s3.2 1.1 4.3 2l-1.4 1c-2-1.4-4.8-2-8.5-2-2.4 0-4.1.5-5.2 1.4S103 16.5 103 18c0 1.6.4 2.8 1.2 3.7s2 1.5 3.9 1.5zm0 3.4h2.6c2.3 0 4.1.6 5.2 1.9 1.2 1.3 1.7 2.9 1.7 4.9s-.7 3.7-2.2 5c-1.4 1.3-3.6 1.9-6.5 1.9-2 0-3.9-.2-5.6-.7s-3.2-1.1-4.3-2l1.4-1c2 1.4 4.8 2 8.6 2 2.4 0 4.1-.5 5.2-1.4s1.7-2.2 1.7-3.7-.4-2.8-1.2-3.7-2.2-1.4-4-1.4h-2.6c-3.3 0-5.8-1-7.6-2.9s-2.7-4.4-2.7-7.4 1.1-5.4 3.2-7.4 5.1-2.9 8.9-2.9c2.5 0 4.9.3 7.1 1s4 1.7 5.5 3l-1.3 1.1c-1.3-1.1-2.9-1.9-4.9-2.5s-4.1-.9-6.4-.9c-3.3 0-5.9.8-7.7 2.4s-2.7 3.7-2.7 6.2.7 4.5 2.2 6.2c1.4 1.5 3.6 2.3 6.4 2.3zm31.5-7.9v-7.2c0-2.9-.9-5.3-2.7-7s-4-2.7-6.5-2.7h-2.9V0h2.8c1.9 0 3.7.5 5.4 1.4 1.6.9 3 2.2 4 4s1.5 3.8 1.5 6.1v7.2c0 .7.1 1.2.3 1.4s.5.4.9.4h1.8v1.7h-1.8c-.8 0-1.5-.3-2-.9s-.8-1.5-.8-2.6zm-3.4 0v-7.2c0-2-.6-3.5-1.7-4.6a5.66 5.66 0 0 0-4.1-1.7h-2.8V3.4h2.8c2.1 0 3.9.7 5.3 2.2 1.5 1.4 2.2 3.4 2.2 5.8v7.2c0 1.7.4 3 1.2 3.9s1.9 1.4 3.2 1.4h2v1.7h-1.9c-1.7 0-3.2-.6-4.4-1.9-1.2-1.2-1.8-2.9-1.8-5zm-3.4 0v-7.2c0-.9-.2-1.6-.6-2.1s-1-.8-1.6-.8h-2.9V6.9h2.8c1.1 0 2.1.4 2.9 1.2s1.2 1.9 1.2 3.4v7.2c0 1.3.2 2.6.7 3.7.4 1.1 1 2 1.8 2.7.7.7 1.6 1.3 2.5 1.7s1.9.6 3 .6h1.9V29h-1.9c-1.3 0-2.5-.2-3.6-.7-1.2-.5-2.2-1.2-3.1-2-.9-.9-1.6-2-2.1-3.3-.7-1.3-1-2.8-1-4.3zm1 7.3l1.3 1.3c-.4 1.1-.6 2.3-.6 3.6V40c0 1.4-.4 2.5-1.2 3.4-.8.8-1.7 1.2-2.9 1.2h-2.8v-1.7h2.9c.7 0 1.2-.3 1.6-.8s.6-1.2.6-2.1v-9.2c.1-1.7.4-3.3 1.1-4.8zm2.8 2.4l1.6.8c-.2.8-.2 1.4-.2 1.7V40c0 2.4-.7 4.4-2.2 5.8s-3.2 2.2-5.3 2.2h-2.8v-1.7h2.8a5.66 5.66 0 0 0 4.1-1.7c1.1-1.1 1.7-2.7 1.7-4.6v-9.2c-.1-.7 0-1.6.3-2.4zm3.1 1.3l1.7.2c-.1.3-.1.6-.1.9V40c0 2.3-.5 4.3-1.5 6.1s-2.4 3.1-4 4-3.4 1.4-5.4 1.4h-2.8v-1.7h2.9a8.91 8.91 0 0 0 6.5-2.7c1.8-1.8 2.7-4.1 2.7-7v-9.2c-.1-.5 0-.9 0-1.2z"/></svg>