<svg xmlns="http://www.w3.org/2000/svg" viewBox="0 0 1024 1024" width="128" height="128" fill="#2c2c2c" xmlns:v="https://vecta.io/nano"><path d="M875.008 295.424a34.133 34.133 0 1 0-58.197 35.669c35.328 57.515 53.931 123.563 53.931 191.488 0 201.899-164.352 366.251-366.251 366.251S138.24 724.48 138.24 522.581 302.592 156.33 504.491 156.33c18.773 0 34.133-15.36 34.133-34.133s-15.36-34.133-34.133-34.133c-239.616 0-434.517 194.901-434.517 434.517s194.901 434.517 434.517 434.517 434.517-194.901 434.517-434.517c.171-80.384-22.016-159.061-64-227.157zm-373.76 94.549c-77.653 0-140.8 63.147-140.8 140.8s63.147 140.8 140.8 140.8 140.8-63.147 140.8-140.8V224.256c0-19.456 15.872-35.328 35.328-35.328s35.328 15.872 35.328 35.328c0 18.773 15.36 34.133 34.133 34.133s34.133-15.36 34.133-34.133c0-57.173-46.421-103.595-103.595-103.595S573.78 167.082 573.78 224.256v186.027a140.527 140.527 0 0 0-72.533-20.309zm0 213.333a72.704 72.704 0 0 1-72.533-72.533 72.704 72.704 0 0 1 72.533-72.533 72.704 72.704 0 0 1 72.533 72.533 72.704 72.704 0 0 1-72.533 72.533z"/></svg>