<svg xmlns="http://www.w3.org/2000/svg" width="48" height="48" xmlns:v="https://vecta.io/nano"><path d="M48.003 24c0 13.255-10.746 24-24.001 24S0 37.255 0 24 10.746 0 24.002 0s24 10.745 24 24zM27.3 35.79c6.309 0 11.441-5.132 11.441-11.44S33.609 12.907 27.3 12.907h-3.834v3.813H27.3a7.64 7.64 0 0 1 7.628 7.63 7.64 7.64 0 0 1-7.628 7.627h-9.788v3.814H27.3zm-14.797.016h3.814V12.962h-3.814v22.844zm5.009-19.085h4.576v-3.814h-4.576v3.814zm0 9.187h4.576v-3.814h-4.576v3.814z" fill="#272c33" fill-rule="evenodd"/></svg>