<svg xmlns="http://www.w3.org/2000/svg" width="128" height="128" fill="none" xmlns:v="https://vecta.io/nano"><style><![CDATA[.B{color-interpolation-filters:sRGB}.C{flood-opacity:0}]]></style><path d="M54.28 104.365c7.315 0 14.21-8.006 15.518-11.113-8.083-.435-26.529 5.939-25.671 8.006 1.072 2.583 6.313 3.107 10.153 3.107z" fill="#c4e7fe"/><g filter="url(#A)"><path d="M78.224 87.283c-26.191-2.292-35.742 11.171-33.286 14.657 5.72-3.526 13.282-3.511 18.554-4.181 8.25-1.048 13.947-4.714 14.732-10.476z" fill="#99d4fe"/></g><g filter="url(#B)"><path d="M77.212 84.828c11.251-4.547 10.441-19.089 9.527-23.03-11.299 2.099-15.624 1.971-28.001 7.566-5.871 2.654-26.073 23.055-13.857 32.919C52.968 88.61 67.258 88.85 77.212 84.828z" fill="#c1e5fe"/></g><g filter="url(#C)"><path d="M53.039 77.114c-5.384 4.135-10.527 10.904-11.351 21.04-1.51-2.784-2.099-9.443-1.679-13.775 2.36-24.387 32.729-40.79 40.947-61.864 2.224 3.352 8.297 10.696 6.984 21.962-2.678 22.971-22.12 22.822-34.901 32.638z" fill="url(#D)"/></g><defs><filter id="A" x="40.566" y="87.022" width="41.658" height="22.918" filterUnits="userSpaceOnUse" class="B"><feFlood result="A" class="C"/><feColorMatrix in="SourceAlpha" values="0 0 0 0 0 0 0 0 0 0 0 0 0 0 0 0 0 0 127 0" result="B"/><feOffset dy="4"/><feGaussianBlur stdDeviation="2"/><feComposite in2="B" operator="out"/><feColorMatrix values="0 0 0 0 0 0 0 0 0 0.45098 0 0 0 0 1 0 0 0 0.33 0"/><feBlend in2="A"/><feBlend in="SourceGraphic"/></filter><filter id="B" x="38.026" y="60.798" width="52.196" height="46.485" filterUnits="userSpaceOnUse" class="B"><feFlood result="A" class="C"/><feColorMatrix in="SourceAlpha" values="0 0 0 0 0 0 0 0 0 0 0 0 0 0 0 0 0 0 127 0" result="B"/><feOffset dy="2"/><feGaussianBlur stdDeviation="1.5"/><feComposite in2="B" operator="out"/><feColorMatrix values="0 0 0 0 0 0 0 0 0 0.64 0 0 0 0 1 0 0 0 0.4 0"/><feBlend in2="A"/><feBlend in="SourceGraphic"/></filter><filter id="C" x="36.877" y="22.514" width="54.246" height="82.64" filterUnits="userSpaceOnUse" class="B"><feFlood result="A" class="C"/><feColorMatrix in="SourceAlpha" values="0 0 0 0 0 0 0 0 0 0 0 0 0 0 0 0 0 0 127 0" result="B"/><feOffset dy="4"/><feGaussianBlur stdDeviation="1.5"/><feComposite in2="B" operator="out"/><feColorMatrix values="0 0 0 0 0 0 0 0 0 0.64 0 0 0 0 1 0 0 0 0.4 0"/><feBlend in2="A"/><feBlend in="SourceGraphic"/></filter><linearGradient id="D" x1="63.993" y1="22.514" x2="41.793" y2="95.313" gradientUnits="userSpaceOnUse"><stop stop-color="#f1faff"/><stop offset="1" stop-color="#f0f9ff"/></linearGradient></defs></svg>