<svg xmlns="http://www.w3.org/2000/svg" viewBox="0 0 1024 1024" width="128" height="128" fill="#fff" xmlns:v="https://vecta.io/nano"><path d="M508.587 226.987c-64.853 0-117.76 52.907-117.76 117.76S443.733 460.8 508.587 460.8s117.76-52.907 117.76-117.76-52.907-116.053-117.76-116.053zM143.36 29.013c-64.853 0-117.76 52.907-117.76 117.76s52.907 117.76 117.76 117.76 117.76-52.907 117.76-117.76-54.613-117.76-117.76-117.76zM880.64 353.28c64.853 0 117.76-52.907 117.76-117.76s-52.907-116.053-117.76-116.053-117.76 52.907-117.76 117.76S817.493 353.28 880.64 353.28zM143.36 667.307c-64.853 0-117.76 52.907-117.76 117.76s52.907 117.76 117.76 117.76 117.76-52.907 117.76-117.76c-1.707-64.853-54.613-117.76-117.76-117.76zm737.28 93.867c-64.853 0-117.76 52.907-117.76 117.76s52.907 117.76 117.76 117.76 117.76-52.907 117.76-117.76-52.907-117.76-117.76-117.76zM508.587 568.32c-64.853 0-117.76 52.907-117.76 117.76s52.907 117.76 117.76 117.76 117.76-52.907 117.76-117.76-52.907-117.76-117.76-117.76z"/><path d="M144.623 254.942l56.388-41.421L477.833 590.37l-56.371 41.421zm403.968 160.375l57.327-40.141L882.91 770.85l-57.344 40.124z"/><path d="M172.612 684.237l240.401-308.122 55.177 43.042-240.401 308.122zm375.211-88.508l281.378-302.353 51.217 47.684L599.04 643.396z"/></svg>