<svg xmlns="http://www.w3.org/2000/svg" viewBox="0 0 1024 1024" width="128" height="128" xmlns:v="https://vecta.io/nano"><path d="M205.653 737.067c-29.184 0-55.637-23.893-55.637-52.907s23.893-53.035 55.68-53.035c31.915 0 55.893 23.893 55.893 52.992s-26.539 52.907-55.68 52.907zm683.179-288.555c-5.76-42.325-32-76.8-66.56-103.253l-13.44-10.667-10.837 13.227c-21.077 23.893-29.44 66.261-26.88 97.92 2.56 23.979 10.24 47.787 23.637 66.304-10.837 5.547-24.235 10.667-34.56 16.085a225.707 225.707 0 0 1-71.68 10.667H4.139l-2.56 15.787a297.813 297.813 0 0 0 23.979 151.04l10.411 18.56v2.56c64 105.941 177.92 153.6 301.995 153.6 238.677 0 434.432-103.253 527.232-325.675 60.8 2.645 122.197-13.227 151.04-71.509l7.68-13.227-12.8-7.979c-34.56-21.077-81.92-23.893-121.6-13.227l-.768.085zm-341.675-42.325H443.563V509.44h103.68V406.101l-.085.128zm0-129.835H443.563v103.253h103.68V276.48l-.085-.128zm0-132.437H443.563v103.253h103.68V143.915h-.085zm126.72 262.272H570.88V509.44h103.253V406.101l-.299.128zm-383.915 0H187.008V509.44h103.339V406.101l-.427.128zm129.28 0h-102.4V509.44H419.84V406.101l-.64.128zm-257.28 0H59.733V509.44h103.595V406.101l-1.28.128zm257.28-129.835h-102.4v103.253H419.84V276.48l-.64-.128zm-129.92 0H187.179v103.253h102.955V276.48l-.683-.128z" fill="#039bc6"/></svg>