<svg xmlns="http://www.w3.org/2000/svg" width="28" height="28" fill="none" xmlns:v="https://vecta.io/nano"><path d="M28 14c0 7.732-6.268 14-14 14S0 21.732 0 14 6.268 0 14 0s14 6.268 14 14zM7.875 14c0 3.383 2.742 6.125 6.125 6.125s6.125-2.742 6.125-6.125S17.383 7.875 14 7.875 7.875 10.617 7.875 14z" fill="url(#A)"/><path fill-rule="evenodd" d="M17.462.431l.967.284C12.899 3.846 7.772 7.839 3.097 12.113 2 13.116.984 14.175.06 15.302c-.032-.35-.052-.703-.058-1.06.809-.934 1.679-1.82 2.604-2.666C7.136 7.434 12.103 3.542 17.462.431zM9.08 27.111c-.465-.175-.919-.373-1.359-.595l.185-.265a117.52 117.52 0 0 0 4.135-6.446c.48.162.987.266 1.512.304-1.406 2.367-2.881 4.696-4.451 6.969l-.023.033zm5.749.865c-.224.013-.449.021-.675.023a428.21 428.21 0 0 0 13.048-9.329c-.075.213-.156.424-.241.632a428.4 428.4 0 0 1-12.132 8.673zm7.807-24.995a14.05 14.05 0 0 0-1.207-.849l-2.245 4.574-1.311 2.549c.398.325.755.7 1.06 1.114l1.547-3.002a175.84 175.84 0 0 0 2.157-4.386z" fill="#fff7eb"/><defs><linearGradient id="A" x1="0" y1="28" x2="28" y2="28" gradientUnits="userSpaceOnUse"><stop stop-color="#ffac0b"/><stop offset="1" stop-color="#ffc702"/></linearGradient></defs></svg>