<svg xmlns="http://www.w3.org/2000/svg" width="100" height="100" fill="none" xmlns:v="https://vecta.io/nano"><g clip-path="url(#A)"><path fill-rule="evenodd" d="M50.5 82.001c-17.921 0-32.501-14.58-32.501-32.501S32.579 16.999 50.5 16.999 83.001 31.579 83.001 49.5 68.421 82.001 50.5 82.001zm27.41-28.052c-.95-.3-8.593-2.579-17.292-1.187 3.631 9.978 5.109 18.104 5.393 19.794 6.228-4.211 10.662-10.882 11.899-18.607zM61.344 75.097c-.413-2.436-2.025-10.924-5.922-21.052l-.183.062C39.581 59.563 33.96 70.422 33.46 71.443c4.707 3.67 10.622 5.86 17.04 5.86 3.846 0 7.511-.787 10.844-2.206zm-31.468-6.993c.629-1.077 8.248-13.692 22.565-18.319a30.85 30.85 0 0 1 1.094-.331c-.697-1.577-1.456-3.156-2.251-4.711-13.863 4.149-27.316 3.976-28.531 3.951l-.014.848a27.65 27.65 0 0 0 7.137 18.562zm-6.55-24.248c1.242.016 12.679.066 25.665-3.383a177.2 177.2 0 0 0-10.293-16.055c-7.767 3.663-13.572 10.823-15.372 19.438zm20.669-21.304a148.25 148.25 0 0 1 10.358 16.252c9.871-3.7 14.051-9.317 14.55-10.028C64 24.427 57.554 21.782 50.5 21.782a27.73 27.73 0 0 0-6.506.771zm27.994 9.434c-.585.792-5.237 6.755-15.502 10.946.646 1.322 1.265 2.667 1.842 4.021l.598 1.432c9.237-1.161 18.415.7 19.33.894-.061-6.552-2.402-12.569-6.269-17.293z" fill="#fff"/></g><defs><clipPath id="A"><path fill="#fff" transform="translate(18 17)" d="M0 0h65v65H0z"/></clipPath></defs></svg>