<svg xmlns="http://www.w3.org/2000/svg" width="30" height="34" fill="none" xmlns:v="https://vecta.io/nano"><path d="M11.64 13.434v-1.311a11.45 11.45 0 0 0-1.385-.091C4.609 12.032 0 16.62 0 22.283c0 3.459 1.731 6.536 4.372 8.393a10.18 10.18 0 0 1-2.751-6.973c.018-5.589 4.481-10.141 10.019-10.268zm.237 14.911c2.514 0 4.572-2.003 4.663-4.497V1.545h4.081c-.091-.455-.128-.929-.128-1.42H14.92v22.303c-.091 2.494-2.149 4.497-4.663 4.497a4.56 4.56 0 0 1-2.168-.546c.856 1.202 2.241 1.966 3.789 1.966zM28.252 9.119V7.881c-1.548 0-3.006-.455-4.226-1.256 1.093 1.238 2.569 2.13 4.226 2.494z" fill="#00faf0"/><path d="M24.046 6.626a7.72 7.72 0 0 1-1.913-5.08h-1.494a7.84 7.84 0 0 0 3.406 5.08zm-13.79 10.959a4.68 4.68 0 0 0-4.682 4.679c0 1.802 1.02 3.35 2.514 4.133-.546-.765-.893-1.711-.893-2.731a4.68 4.68 0 0 1 4.682-4.679 4.42 4.42 0 0 1 1.384.218v-5.68c-.455-.055-.911-.091-1.384-.091h-.237v4.37c-.437-.146-.893-.218-1.384-.218zm17.997-8.466v4.333c-2.896 0-5.556-.928-7.742-2.494v11.306c0 5.644-4.59 10.25-10.256 10.25a10.17 10.17 0 0 1-5.866-1.857c1.876 2.003 4.536 3.277 7.505 3.277 5.647 0 10.256-4.588 10.256-10.25V12.378c2.186 1.566 4.864 2.494 7.742 2.494V9.301c-.565-.018-1.111-.073-1.639-.182z" fill="#ff0050"/><path d="M20.51 22.265V10.959c2.186 1.566 4.864 2.494 7.742 2.494V9.12a7.85 7.85 0 0 1-4.226-2.494 7.66 7.66 0 0 1-3.388-5.08h-4.08v22.303c-.091 2.494-2.15 4.497-4.663 4.497-1.567 0-2.951-.765-3.789-1.948-1.494-.783-2.514-2.349-2.514-4.133a4.68 4.68 0 0 1 4.682-4.679c.474 0 .947.073 1.384.218v-4.37A10.26 10.26 0 0 0 1.656 23.667c0 2.695 1.038 5.152 2.751 6.973a10.21 10.21 0 0 0 5.866 1.857c5.629.018 10.238-4.588 10.238-10.232z" fill="#111"/></svg>