<svg xmlns="http://www.w3.org/2000/svg" height="132.667" width="496.128" xmlns:v="https://vecta.io/nano"><path d="M227.346 132.285H0V.001h227.346v132.284" fill="#cbd7de"/><path d="M41.281 90.068c-2.931-2.045-6.612-4.828-9.34-7.472-3.913-3.549-7.11-7.877-9.345-12.648 1.737 4.991 4.519 9.815 8.628 13.732 3.172 2.593 6.57 4.693 10.057 6.388zm37.801-61.912c-3.069-4.655-8.951-7.401-14.603-9.195-16.784-6.617-40.71 6.001-44.257 27.757-.228 1.013-.603 3.332-.511 5.067 1.518-13.307 9.584-24.984 20.543-29.955 10.802-5.191 23.557-4.273 32.298 1.873.451.353.901.733 1.329 1.108a31.47 31.47 0 0 0-4.808-1.989c-5.912-2.849-12.945-3.979-19.937-2.479-13.762 2.157-26.239 14.688-28.393 30.319-.175 1.011-.292 2.043-.364 3.077-.414-.3-.667-1.035-.667-1.955-.231 1.067-.231 2.132-.18 3.211-.149 5 .977 10.152 3.065 14.952-.81-2.479-1.318-4.983-1.595-7.483.995 4.871 3.044 9.553 6.164 13.32 2.051 2.109 4.347 6.741 7.125 8.228 10.561 8.377 26.586 11.221 37.403 5.059 1.481-.399 2.957-.827 4.289-1.599-1.728.573-3.668.956-5.219 1.5l-.517.005-.897.5c-7.985 1.008-24.338 2.779-34.417-5.716-2.861-2.053-5.077-4.755-7.153-7.525 1.061.725 2.77 1.707 3.801 2.792 5.077 5.071 12.052 9.656 18.843 10.204-3.132-1.279-5.822-2.8-8.784-4.593-1.534-.707-3.991-1.113-5.105-2.412-6.346-5.416-11.769-10.965-12.744-19.297-.148-.817.38-1.463.116-2.208 1.601 9.225 7.38 16.049 14.642 21.491.985 1.156 2.097 1.633 3.092 2.427 1.269.456 2.395.895 3.329 1.387 10.781 4.029 12.705-.391 22.373-.531-4.36 1.105-11.814 3.144-15.586 3.389 6.782 1.397 19.583-2.055 25.43-6.407 7.268-4.96 5.809-5.183 9.563-11.527.328-.519.648-1.7.918-3.131a31.73 31.73 0 0 0 3.587-14.665c0-10.151-4.766-19.175-12.168-25zM25.895 59.971c-.638-4.115-.828-8.32.06-12.497-.084.824-.153 1.487-.113 1.803-.401 5.039-.014 9.155.448 11.829a36.83 36.83 0 0 0-.394-1.135c.178.793.39 1.583.633 2.348.402 1.887.773 2.639.667 1.941 3.223 8.447 10.023 14.968 17.564 18.047-7.368-.916-17.128-10.971-18.865-22.336zm21.486-36.283c-6.161 1.285-12.189 4.689-16.616 10.721 2.966-3.759 6.505-5.779 9.958-6.992l-.914.689c-2.694 1.597-5.224 3.517-7.487 5.923-.611.783-.89 1.736-1.46 2.428l-1.208 1.821c-1.601 1.513-2.558 3.325-3.599 5.245-4.521 9.973-3.977 22.392 2.227 32.833-11.218-15.533-6.793-37.728 6.483-47.556 5.525-4.359 11.927-6.487 18.214-6.833-1.937.399-3.805.988-5.598 1.72zM67.76 85.145c-1.045.185.569-.267 5.267-3.041.408-.235.85-.519 1.311-.821 1.831-.971 3.564-2.124 5.166-3.432-4.625 4.476-10.307 7.317-11.744 7.295" fill="#ee8421"/><g fill="#231f20"><path d="M119.228 60.397c0 10.347 6.634 12.815 16.929 12.815h17.228V88.62h-19.929c-20.364 0-32.018-7.141-32.018-34.087 0-23.323 3.81-35.583 30.303-35.583 21.021 0 26.129 8.588 26.129 27.189v14.393zm21.958-14.181c0-6.82.032-13.492-10.43-13.492-10.332 0-11.652 6.395-11.652 13.492h22.081m145.877-27.265h-59.716V88.62h14.929V33.877h10.529v.007c3.583 0 6.504 2.724 6.888 6.212V88.62h14.929V33.877h10.451v.007c3.839 0 6.963 3.124 6.963 6.963h0V88.62h14.928V38.855a19.91 19.91 0 0 0-19.901-19.904"/><path d="M189.53 33.884v-.007h27.868V18.951h-30.465l-.009.036a19.88 19.88 0 0 0-19.093 17.225h-.2v32.345h.2l-.2.16c0 10.772 8.585 19.54 19.293 19.867l.009.036h30.465V73.685H189.53c-3.844 0-6.968-3.124-6.968-6.968v-25.87c0-3.839 3.124-6.963 6.968-6.963m177.149 4.971c0-10.985-8.912-19.904-19.907-19.904h-29.856v14.927h27.869v.007c4.68 0 6.965 3.124 6.965 6.963 0 0 0 1.055-2.197 2.784-2.849 2.232-14.659 5.453-21.096 8.025v-.032c-10.041 3.36-14.653 9.631-14.653 19.455 0 12.768 5.621 17.7 16.671 17.7h36.204c-.32-7.496 0-49.924 0-49.924zm-14.928 35.203h-21.28c-1.339 0-2.117 0-2.221-.953-1.013-9.125 4.528-8.78 23.501-15.316v16.269"/></g><path d="M242.491 109.949h4.481v22.336h-4.481v-22.336m10.016 0h5.505l8.513 16.703h.061v-16.703h4.289v22.336h-5.471l-8.545-16.704h-.064v16.704h-4.289v-22.336m28.355 3.519h-6.4v-3.519h17.279v3.519h-6.399v18.817h-4.48v-18.817m14.688-3.519h13.183v3.519h-8.704v5.505h7.969v3.519h-7.969v6.273h8.769v3.52h-13.248v-22.336m18.368 0h4.831c4.801 0 10.528-.16 10.528 6.047 0 2.625-1.76 4.801-4.607 5.184v.065c1.216.095 1.919 1.312 2.367 2.304l3.584 8.736h-4.992l-2.688-6.979c-.64-1.661-1.216-2.301-3.104-2.301h-1.44v9.28h-4.479zm4.479 9.535h1.473c2.207 0 4.735-.32 4.735-3.104 0-2.688-2.495-2.912-4.735-2.912h-1.473v6.016m16.191-9.535h5.505l8.511 16.703h.065v-16.703h4.287v22.336h-5.472l-8.544-16.704h-.063v16.704h-4.289v-22.336m30.688 0h5.055l8.768 22.336h-4.959l-1.921-5.121h-9.055l-1.953 5.121h-4.637zm2.464 4.48h-.063l-3.235 9.216h6.529l-3.232-9.216m16.709-.961h-6.399v-3.519h17.279v3.519h-6.399v18.817h-4.481v-18.817m14.304-3.519h4.48v22.336h-4.48v-22.336m20.097-.384c7.008 0 10.943 4.736 10.943 11.487s-3.871 11.616-10.943 11.616c-7.169 0-10.945-4.767-10.945-11.616s3.841-11.487 10.945-11.487zm0 19.583c4.575 0 6.271-4.064 6.271-8.096 0-3.935-1.823-7.968-6.271-7.968s-6.273 4.033-6.273 7.968c0 4.032 1.697 8.096 6.273 8.096m15.776-19.199h5.503l8.512 16.703h.065v-16.703h4.287v22.336h-5.471l-8.545-16.704h-.061v16.704h-4.289v-22.336m30.686 0h5.055l8.769 22.336h-4.959l-1.923-5.121h-9.055l-1.952 5.121h-4.639zm2.464 4.48h-.063l-3.235 9.216h6.529l-3.232-9.216m15.201-4.48h4.48v18.816h8.672v3.52h-13.152v-22.336" fill="#cbd7de"/></svg>