<svg xmlns="http://www.w3.org/2000/svg" xmlns:xlink="http://www.w3.org/1999/xlink" width="389" height="338" xmlns:v="https://vecta.io/nano"><defs><linearGradient x1="50%" y1="0%" x2="50%" y2="97.5027902%" id="A"><stop stop-color="#52d057" offset="0%"/><stop stop-color="#5686dc" offset="100%"/></linearGradient><path d="M38.977 202.24h77.954l38.977 67.426H77.955L38.977 202.24 0 134.826l38.977-67.413 38.977 67.413 38.977-67.413h77.955.001L155.909 0h77.954l38.977 67.413h.001l38.977 67.413h-77.954l-38.977-67.413L155.909 0l-15.591 26.965L155.908 0H77.955L38.976 67.413l38.978 67.413-7.795 13.483 7.795-13.483 38.977 67.413H38.978h-.001zm137.625 31.629l18.285-31.63 38.976 67.426h-77.954l-38.978-67.426h77.954l-18.284 31.63z" id="B"/><linearGradient x1="50%" y1="0%" x2="50%" y2="100%" id="C"><stop stop-color="#33b64d" offset="0%"/><stop stop-color="#30a7d8" offset="100%"/></linearGradient><linearGradient x1="50%" y1="0%" x2="50%" y2="100%" id="D"><stop stop-color="#33b36c" offset="0%"/><stop stop-color="#208b5d" offset="100%"/></linearGradient></defs><g transform="translate(0 1)" fill="none" fill-rule="evenodd"><path stroke="#cecece" d="M146.254 252.144l.048.081h-.097l-48.375-83.72-.048-.081.048-.081.048.081z"/><g stroke="#f2f2f2"><path d="M339.996 84.607l-.048.081-48.375 83.736h-.097l-48.375-83.736-.048-.081h-96.75L194.726.806h96.846zM242.907 252.66l48.165 83.365h-96.346m-48.423-84.365L97.88 335.461 49.456 251.66h-.097L.985 167.94l.048-.081H97.88l48.375 83.72z"/><path d="M291.476.242l-48.375 83.72-.048.081h-96.846L97.831.323l.048-.081z"/><path d="M388.322 167.859l-.194.355-.21-.355h-96.443L243.1 84.123l-.048-.081h96.846l.048.081zM243.149 251.66l-.242.435-48.181 83.365-48.423-83.801h96.346l.21-.355.048-.081.194.355z"/><path d="M194.726 335.461H97.88L49.456 251.66l48.375-83.72.048-.081 48.375 83.72.048.081zm48.423-251.418l-.048.081-.048-.081h-96.846l-48.375 83.736-48.375-83.736L97.831.323l.048-.081h96.846l48.375 83.72z"/><path d="M146.254 251.579l-.048.081H49.36L.985 167.94l-.048-.081L49.36 84.043h96.846l-48.375 83.736.048.081z"/></g><g transform="translate(38.9 32.951)"><path d="M38.977 202.24h77.954l38.977 67.426H77.955L38.977 202.24 0 134.826l38.977-67.413 38.977 67.413 38.977-67.413h77.955.001L155.909 0h77.954l38.977 67.413h.001l38.977 67.413h-77.954l-38.977-67.413L155.909 0l-15.591 26.965L155.908 0H77.955L38.976 67.413l38.978 67.413-7.795 13.483 7.795-13.483 38.977 67.413H38.978h-.001zm137.625 31.629l18.285-31.63 38.976 67.426h-77.954l-38.978-67.426h77.954l-18.284 31.63z" fill="url(#A)" fill-rule="nonzero"/><mask id="E" fill="#fff"><use xlink:href="#B"/></mask><g fill-rule="nonzero"><path d="M-132.379 85.144c12.722 6.227 91.084 136.926 195.726 99.887S151.713-90.931 369.633 18.374 172.779 413.939 172.779 413.939L-195.78 274.613s50.679-195.696 63.401-189.469z" fill="url(#C)" mask="url(#E)"/><path fill="url(#D)" d="M137.631 174.077l-19.489-33.708 19.489-33.708h38.977l19.489 33.708-19.489 33.708z"/></g></g></g></svg>