<svg xmlns="http://www.w3.org/2000/svg" viewBox="0 0 283.5 283.5" xmlns:v="https://vecta.io/nano"><path d="M63.2 71.6c-3-2.7-6.9-4.2-10.9-4.1-4.8 0-9.3 1.6-11.7 4.1L34.2 78c-2.5 2.8-3.9 6.4-3.8 10.2-.1 4.3 1.5 8.5 4.5 11.7l78.5 78.5-8.5 8.5-78.5-78.5a28.67 28.67 0 0 1-8-20.2c-.1-6.9 2.5-13.7 7.3-18.7l6.4-6.4c5.5-5.5 13-7.6 20.2-7.6 7.2-.1 14.2 2.6 19.4 7.6l33.2 33.3-8.5 8.5-33.2-33.3zm60 96.9L47.6 92.8c-2.2-2.5-2-6.3.5-8.5 2.3-2 5.7-2 8 0l67.2 67.2 9.9-9.9 8.5 8.5-18.5 18.4h0z" fill="#5e9ee6"/><path d="M220.1 71.6l-33.2 33.2-8.5-8.4 33.2-33.2c2.5-2.5 4.1-6.8 4.1-11.3s-1.6-8.9-4.1-11.3l-6.4-6.4c-2.8-2.5-6.4-3.9-10.2-3.8-4.3-.1-8.5 1.5-11.7 4.5l-78.4 78.5-8.5-8.5 78.5-78.5a28.67 28.67 0 0 1 20.2-8c6.9-.1 13.7 2.5 18.7 7.3l6.4 6.4c5.3 5.4 7.6 12.7 7.6 19.8s-2.4 14.4-7.7 19.7zm-21.2-15.5l-67.2 67.2 9.9 9.9-8.5 8.5-18.4-18.4 75.7-75.7c2.3-2.3 6.1-2.3 8.5 0s2.3 6.1 0 8.5h0 0z" fill="#ff7464"/><path d="M257.6 213.8l-6.4 6.4c-5.4 5.3-12.7 7.6-19.8 7.6s-14.4-2.3-19.8-7.6l-33.2-33.3 8.5-8.5 33.2 33.2c2.4 2.5 6.8 4.1 11.3 4.1s8.9-1.6 11.3-4.1l6.4-6.4c2.5-2.8 3.9-6.4 3.8-10.2.1-4.3-1.5-8.5-4.5-11.7l-78.5-78.5 8.5-8.4 78.5 78.5a28.67 28.67 0 0 1 8 20.2c.1 6.9-2.5 13.7-7.3 18.7h0zm-21.9-14.9c-2.3 2.3-6.1 2.3-8.5 0L160 131.7l-9.9 9.9-8.5-8.5 18.4-18.4 75.6 75.6c2.4 2.4 2.4 6.2.1 8.6h0 0z" fill="#44c25a"/><path d="M78 249.1c2.8 2.5 6.4 3.9 10.2 3.8 4.3.1 8.5-1.5 11.7-4.5l78.5-78.5 8.5 8.5-78.5 78.5a28.67 28.67 0 0 1-20.2 8c-6.9.1-13.7-2.5-18.7-7.3l-6.4-6.4c-5.3-5.4-7.6-12.7-7.6-19.8s2.3-14.4 7.6-19.8l33.3-33.2 8.5 8.5-33.2 33.2c-2.5 2.4-4.1 6.8-4.1 11.3s1.6 8.9 4.1 11.3l6.3 6.4h0zm14.8-13.4c-2.2 2.5-6 2.8-8.5.6s-2.8-6-.6-8.5l.6-.6 67.2-67.2-9.9-9.9 8.5-8.5 18.4 18.4-75.7 75.7z" fill="#ff9f31"/></svg>