<svg xmlns="http://www.w3.org/2000/svg" width="128" height="128" fill="none" xmlns:v="https://vecta.io/nano"><path d="M54.153 44.862c.764.139 1.496-.367 1.636-1.131s-.367-1.496-1.131-1.636l-.505 2.767zm-17.797 3.181l1.218.702-1.218-.702zm.253 13.563c.386.674 1.245.908 1.919.522s.908-1.245.522-1.919l-2.441 1.397zm6.839 4.539c-.522-.575-1.412-.617-1.986-.095a1.41 1.41 0 0 0-.095 1.987l2.082-1.891zm12.543 11.684l-.704 1.217.704-1.217zm33.728 6.104c.641-.438.806-1.313.368-1.954s-1.313-.806-1.954-.368l1.586 2.323zM54.657 42.095c-4.352-.794-8.404-.832-11.772-.018-3.374.815-6.164 2.516-7.748 5.264l2.437 1.405c1.09-1.89 3.102-3.242 5.972-3.935 2.877-.695 6.512-.696 10.607.051l.505-2.767zm-19.52 5.246c-2.354 4.083-1.389 9.268 1.471 14.265l2.441-1.397c-2.661-4.648-3.09-8.663-1.476-11.463l-2.437-1.405zm6.229 20.696c3.601 3.964 8.349 7.788 13.921 11.01l1.408-2.435c-5.345-3.091-9.859-6.738-13.247-10.467l-2.082 1.891zm13.921 11.01c6.638 3.838 13.436 6.238 19.443 7.11 5.956.865 11.359.256 14.989-2.223l-1.586-2.323c-2.785 1.902-7.344 2.583-12.998 1.763-5.604-.814-12.065-3.076-18.439-6.762l-1.408 2.435zm41.024 1.288c0-2.714-2.198-4.918-4.913-4.918v2.813c1.158 0 2.1.941 2.1 2.105h2.813zm-4.913-4.918c-2.715 0-4.912 2.204-4.912 4.918h2.813c0-1.165.942-2.105 2.1-2.105v-2.812zm-4.912 4.918c0 2.714 2.197 4.918 4.912 4.918V82.44c-1.158 0-2.1-.941-2.1-2.105h-2.812zm4.912 4.918c2.715 0 4.913-2.204 4.913-4.918h-2.812c0 1.165-.942 2.105-2.1 2.105v2.813zM85.474 65.08c-.501.593-.427 1.48.166 1.982s1.48.427 1.982-.166l-2.148-1.815zm6.117-16.99l-1.218.702 1.218-.702zm-11.57-6.558c-.777-.01-1.414.611-1.424 1.388s.611 1.414 1.388 1.424l.037-2.812zm-7.474 3.624c.759-.163 1.243-.911 1.08-1.67s-.911-1.243-1.67-1.08l.59 2.75zm-16.529 5.072l.704 1.217-.704-1.217zM33.96 77.207a1.41 1.41 0 0 0 1.595 1.188c.768-.112 1.3-.827 1.188-1.595l-2.783.408zm53.662-10.312c2.849-3.371 4.897-6.858 5.871-10.178.976-3.326.897-6.587-.684-9.329l-2.436 1.405c1.088 1.887 1.252 4.303.422 7.133-.832 2.836-2.64 5.983-5.32 9.154l2.148 1.816zm5.187-19.507c-2.316-4.018-7.162-5.782-12.788-5.856l-.037 2.812c5.213.068 8.802 1.695 10.388 4.448l2.436-1.405zm-20.852-4.981c-5.273 1.131-11.014 3.35-16.643 6.605l1.408 2.435c5.4-3.123 10.867-5.226 15.825-6.29l-.59-2.75zm-16.643 6.605c-6.833 3.951-12.434 8.813-16.198 13.733-3.728 4.873-5.808 10.015-5.156 14.462l2.783-.408c-.49-3.344 1.065-7.716 4.607-12.346 3.506-4.583 8.809-9.212 15.372-13.007l-1.408-2.435zm-2.968 33.136c-.261-.731-1.066-1.112-1.798-.851s-1.112 1.066-.851 1.798l2.648-.947zm23.032 7.185c.4-.666.184-1.53-.482-1.929s-1.53-.184-1.929.482l2.411 1.447zm.787-8.786c-.232.741.182 1.53.923 1.762s1.53-.182 1.762-.923l-2.684-.839zm3.76-16.494h-1.406 1.406zM68.028 31.602c-.71-.316-1.541.004-1.856.713s.004 1.541.713 1.856l1.143-2.57zm-18.33 51.493c1.49 4.166 3.482 7.695 5.868 10.206s5.254 4.083 8.422 4.083v-2.812c-2.176 0-4.349-1.067-6.383-3.208s-3.856-5.295-5.258-9.215l-2.648.947zm14.29 14.289c4.598 0 8.522-3.273 11.391-8.051l-2.411-1.447c-2.655 4.424-5.832 6.686-8.979 6.686v2.813zM78.85 81.386c1.579-5.052 2.482-10.992 2.482-17.333H78.52c0 6.083-.868 11.738-2.354 16.494l2.685.839zm2.482-17.333c0-7.776-1.359-14.957-3.662-20.638-2.282-5.63-5.588-10.01-9.641-11.813l-1.143 2.57c3.081 1.37 6.009 4.951 8.177 10.299 2.148 5.298 3.456 12.113 3.456 19.582h2.813z" fill="#a2ecfb"/><path d="M94.906 80.334a3.51 3.51 0 0 0-3.506-3.512 3.511 3.511 0 1 0 0 7.023 3.51 3.51 0 0 0 3.506-3.512zM63.987 35.64a3.512 3.512 0 0 0 0-7.023 3.512 3.512 0 0 0 0 7.023z" stroke="#a2ecfb" stroke-width="3.6"/><path fill-rule="evenodd" d="M64.664 67.192c-1.731.375-3.437-.727-3.812-2.461s.726-3.442 2.457-3.817 3.437.727 3.811 2.461-.726 3.442-2.457 3.818z" fill="#a2ecfb"/></svg>