<svg xmlns="http://www.w3.org/2000/svg" xmlns:xlink="http://www.w3.org/1999/xlink" width="30" height="30" fill="none" xmlns:v="https://vecta.io/nano"><defs><path id="A" d="M0 0h30v30H0z"/></defs><g transform="matrix(1 0 0 1 0 0)"><mask id="B" fill="#fff"><use xlink:href="#A"/></mask><g mask="url(#B)"><path fill-rule="evenodd" transform="matrix(1 0 0 1 5.362575 4)" d="M9.12.12L.56 5.07s-.57.34-.56.8c.01.45 0 10.29 0 10.29a.74.74 0 0 0 .32.55c.31.22 8.87 5.19 8.87 5.19s.36.23.88 0c.54-.3 8.72-5.03 8.72-5.03s.48-.2.48-1.11V6.19s.1-.81-.72-1.2L10.15.12s-.51-.27-1.03 0zM2.002 15.031a.61.61 0 0 0 .25.44c.25.17 6.97 4.06 6.97 4.06s.28.18.69 0c.42-.23 6.84-3.93 6.84-3.93s.38-.16.38-.88v-2.01l-7.56 4.59v-1.76c0-.72.55-1.19.55-1.19l6.7-4.04c.25-.26.3-.68.31-.84v-1.78l-7.56 4.58v-1.83c0-.72.48-1.04.48-1.04l5.8-3.51-5.88-3.4s-.4-.22-.81 0l-6.72 3.87s-.45.27-.44.62c.01.36 0 8.05 0 8.05zm13.85-9.14h0 0z" fill="#409eff"/></g></g></svg>