<svg xmlns="http://www.w3.org/2000/svg" xmlns:xlink="http://www.w3.org/1999/xlink" width="16" height="16" fill="none" xmlns:v="https://vecta.io/nano"><defs><path id="A" d="M0 0h16v16H0z"/></defs><g transform="matrix(1 0 0 1 0 0)"><mask id="B" fill="#fff"><use xlink:href="#A"/></mask><g mask="url(#B)"><path fill-rule="evenodd" transform="matrix(1 0 0 1 2.15775 5.203702)" d="M2.9 2.366H.73V.676H3.1v-.61H0v5.46h3.25.01v-.61H.73v-1.95H2.9v-.6zM6.356 3.46c.2.19.29.38.29.59 0 .26-.08.48-.24.66s-.41.27-.75.27a.98.98 0 0 1-.67-.25c-.19-.17-.29-.42-.29-.74V3.8h-.73v.22c0 .45.15.82.45 1.12s.71.45 1.24.45.95-.15 1.26-.43c.31-.29.47-.68.47-1.17 0-.34-.13-.64-.39-.91-.25-.27-.62-.49-1.08-.69-.49-.19-.8-.35-.91-.49a.73.73 0 0 1-.18-.5c0-.23.08-.42.22-.55.15-.14.36-.21.61-.21.28 0 .49.09.64.29a.86.86 0 0 1 .19.63h.74c0-.38-.13-.73-.37-1.06-.25-.33-.64-.5-1.2-.5a1.59 1.59 0 0 0-1.1.42c-.31.27-.46.63-.46 1.08 0 .32.11.6.33.83.23.23.59.45 1.1.64.36.15.64.31.83.49zM10.04.003l-1.31 2.04-.43.8c-.1.21-.15.47-.17.78a2.18 2.18 0 0 0 .14.96c.11.33.33.59.63.77.31.18.69.26 1.12.24.44-.03.78-.15 1.02-.37a1.68 1.68 0 0 0 .51-.75c.1-.28.14-.56.13-.85-.01-.28-.07-.55-.19-.79-.12-.25-.34-.47-.69-.66-.34-.19-.79-.21-1.37-.06l1.34-2.11h-.73zm-.16 5.009a.94.94 0 0 0 .8-.32c.21-.23.32-.57.32-1.02s-.14-.75-.4-.93c-.27-.17-.57-.23-.9-.19s-.56.21-.71.48c-.15.28-.22.57-.2.88.03.31.13.56.32.77.2.2.45.31.77.33z" fill="#000"/></g></g></svg>