<svg xmlns="http://www.w3.org/2000/svg" width="27.8" height="24" fill="#130b43" clip-path="url(#clip0)" xmlns:v="https://vecta.io/nano"><path d="M16.771 15.36c0 1.016-.88 1.652-1.659 1.652s-1.715-.316-1.715-1.652v-.65H12.37v.65c0 1.479 1.23 2.683 2.741 2.683s2.741-1.203 2.741-2.683v-.65H16.77v.65zm-8.623-3.137c0-.971.842-1.76 1.876-1.76s1.875.79 1.875 1.76h1.182c0-1.583-1.371-2.87-3.057-2.87s-3.058 1.287-3.058 2.87h1.182zm9.738 0c0-.971.842-1.76 1.875-1.76s1.876.79 1.876 1.76h1.182c0-1.583-1.371-2.87-3.058-2.87s-3.057 1.287-3.057 2.87h1.182z"/><path d="M24.726 8.458V4.644c0-1.285-.156-2.177-.469-2.676s-.963-.883-1.952-1.153c-.299-.084-.448-.219-.448-.405 0-.251.336-.377 1.008-.377h1.022c1.11 0 1.952.345 2.526 1.034s.861 1.695.861 3.018v4.024c0 .931.1 1.649.301 2.152s.571.973 1.113 1.411c.159.13.238.238.238.321s-.079.191-.238.321c-.55.447-.924.92-1.119 1.418s-.294 1.213-.294 2.145v4.01c0 1.332-.289 2.343-.868 3.032s-1.418 1.034-2.519 1.034h-1.022c-.438 0-.716-.021-.833-.063s-.175-.147-.175-.314c0-.233.154-.387.462-.461l.56-.126c1.232-.279 1.847-1.495 1.847-3.647v-3.814c0-1.444.35-2.464 1.05-3.06l.266-.223c.131-.112.196-.196.196-.252 0-.065-.065-.149-.196-.252l-.266-.224c-.7-.596-1.05-1.616-1.05-3.06zM5.323 8.425V4.611c0-1.285.156-2.177.469-2.676s.963-.883 1.952-1.153c.299-.084.448-.219.448-.405C8.192.126 7.856 0 7.184 0H6.163c-1.11 0-1.952.345-2.526 1.034s-.861 1.695-.861 3.018v4.024c0 .931-.1 1.649-.301 2.152s-.571.973-1.113 1.411c-.159.13-.238.238-.238.321s.079.191.238.321c.55.447.924.92 1.12 1.418s.294 1.213.294 2.145v4.01c0 1.332.289 2.343.868 3.032s1.418 1.034 2.519 1.034h1.022c.438 0 .716-.021.833-.063s.175-.147.175-.314c0-.233-.154-.387-.462-.461l-.56-.126c-1.231-.279-1.847-1.495-1.847-3.647v-3.814c0-1.444-.35-2.464-1.05-3.06l-.266-.224c-.131-.112-.196-.196-.196-.251 0-.065.065-.149.196-.252l.266-.224c.7-.596 1.05-1.616 1.05-3.06z" fill-rule="evenodd"/></svg>