<svg xmlns="http://www.w3.org/2000/svg" viewBox="0 0 200 200" xmlns:v="https://vecta.io/nano"><path d="M53.7 54.2S97 42.5 106 25.3c5.4-12.6-5.2-14.4-7.9-13.9s-15 3.1-17.9 4.7-12.4 9.6-12.4 9.6l-7 9.3c0 0-8.5 16.2-7.1 19.2z" fill="#85efde"/><path d="M53.7 54.2s-14.8 45.1-25.8 51.4-17.2 2.7-17.5-3.5 4.6-19.9 4.9-20.5c.2-.6 15.8-21.6 22.8-23.9 7-2.4 15.6-3.5 15.6-3.5z" fill="#93c6f1"/><path d="M53.7 54.2S63.6 16.9 98 11.4c-9.8-.9-39.4 4.4-63.9 27.1-23.7 23.7-23.7 59-23.7 63.6.1-.1.1-31.6 43.3-47.9z" fill="#53bddf"/><path d="M141 143.3S97.7 155 88.7 172.2c-5.4 12.6 5.2 14.4 7.9 13.9 2.8-.5 15-3.1 17.9-4.7s12.4-9.5 12.4-9.5l7-9.3c0-.1 8.5-16.3 7.1-19.3z" fill="#86daef"/><path d="M141 143.3s14.8-45 25.8-51.3 17.2-2.7 17.5 3.5-4.6 19.9-4.9 20.5c-.2.6-15.8 21.6-22.8 23.9-7 2.2-15.6 3.4-15.6 3.4z" fill="#c986ff"/><path d="M141 143.3s-10 37.3-44.4 42.8c9.8.9 39.4-4.4 63.9-27 23.7-23.7 23.7-59 23.7-63.6.1 0 .1 31.5-43.2 47.8z" fill="#8973f6"/><g fill="#93c6f1"><path d="M148.6 45.7s7-17-10.9-22.6C115 16.3 89.9 73.8 83.1 90.7L76 111l-12.5 21.9s-14.6 13.8-16.1 19.6c-2.1 4-6.9 17.8 13 21.7s39.4-42 49.5-62.3c8.1-20.6 6.8-29.1 6.8-29.1L135.8 61l12.8-15.3z"/><path d="M46.9 152.1c-1.2 2.1-2 4.4-2.4 6.7-.2 1.1-.4 2.4-.2 3.5.2 1.2 1 2.2 1.6 3.2.6 1.1 2.4.1 1.7-1-.5-.8-1.2-1.7-1.3-2.7-.1-.9.1-2 .2-3 .4-2 1.1-4 2.1-5.8.7-1-1.1-2-1.7-.9h0zM148.4 34.6c.2 2.5.6 4.9-.1 7.3-.3 1-.5 2.2-1.3 2.9-.7.6-1.2 1.3-1.4 2.2-.3 1.3 1.5 1.7 1.9.5.1-.3.3-.6.4-1-.6.1-1.2.2-1.8.2.3.6-1.4 1.7-1.7 2.1l-.9 1.1c-.4.3-.8.6-1.1 1-.6.6-.9 1.4-1.5 2-.6.7-1.4 1.3-2.2 1.8-1.1.7-.1 2.4 1 1.7 1-.6 1.9-1.4 2.7-2.3.8-1 1.4-2 2.3-2.8.5-.4.8-1 1.3-1.5.4-.4.9-.7 1.3-1.2.8-.9 1.1-2 .5-3.1-.4-.9-1.5-.5-1.8.2-.1.3-.3.6-.4 1 .6.2 1.3.4 1.9.5.3-1 1.3-1.4 1.8-2.3s.8-2.1 1.1-3.1c.6-2.5.2-5 0-7.5-.1-1-2.1-1-2 .3h0z"/></g><path d="M87.2 85.2S22 113.6 21.7 134.7 43.9 153 43.9 153l18.2-19 6.5-3.8L91.1 118l16.3-5.6 3.9-1.3s45.5-24.1 50.2-27.6 20.6-22.4 5.4-34.9-32.7 14.9-32.7 14.9L94.6 84.3l-7.4.9z" fill="#c986ff"/><path d="M145.6 27.4s14.7 10.7 24 23.9c-17.2-16.3-35.9 11.3-47.9 36.6S110 111.6 110 111.6s-90.5 37.2-58.2 59.6c-4.7-3.4-17.8-9.6-25.2-23.1 15 11.5 32.3-2.1 58.3-61.9 5.3-3.9 85.1-30.8 60.7-58.8z" fill="#7687f0"/></svg>