<svg xmlns="http://www.w3.org/2000/svg" xmlns:xlink="http://www.w3.org/1999/xlink" width="30" height="30" fill="none" xmlns:v="https://vecta.io/nano"><defs><path id="A" d="M0 0h30v30H0z"/><path id="B" d="M0 0h22v22H0z"/></defs><g transform="matrix(1 0 0 1 0 0)"><mask id="D" fill="#fff"><use xlink:href="#A"/></mask><g mask="url(#D)"><g transform="matrix(1 0 0 1 4 4)"><mask id="D" fill="#fff"><use xlink:href="#B"/></mask><g mask="url(#D)" fill-rule="evenodd"><path transform="matrix(1 0 0 1 2.75 1.833333)" d="M0 9.17l2.75 2.75L14.67 0h-5.5L0 9.17zm9.165-.92l-2.29 2.29 2.75 2.75 5.04-5.04h-5.5z" fill="#40c4ff"/><path transform="matrix(1 0 0 1 6.875 12.375)" d="M2.75 5.5L5.5 2.75 2.75 0 0 2.75 2.75 5.5z" fill="#03a9f4"/><g transform="matrix(1 0 0 1 9.625 15.125)"><path d="M2.75 0L0 2.75l2.29 2.29h5.5L2.75 0z" fill="#01579b"/><path d="M4.13 1.38L2.75 0 0 2.75l4.13-1.37z" fill="#084994"/></g></g></g></g></g></svg>