<svg xmlns="http://www.w3.org/2000/svg" viewBox="0 0 1024 1024" width="128" height="128" fill="#fff" xmlns:v="https://vecta.io/nano"><path d="M714.752 936.448l-45.056-17.408 166.912-426.496c7.168-18.944-2.048-40.448-20.992-47.616-.512-.512-1.536-.512-2.048-.512l-291.84-95.232c-18.944-6.144-38.912 3.584-46.08 22.016L330.24 755.712 261.632 729.6 465.92 189.44c6.656-18.432 26.624-27.648 45.568-22.016L947.712 302.08c19.456 6.144 30.208 26.624 24.576 46.08-.512 1.024-.512 1.536-1.024 2.56L748.032 921.6c-5.12 13.312-19.968 19.968-33.28 14.848z"/><path d="M50.176 703.488c1.536 80.384 68.096 143.872 147.968 142.336 77.824-1.536 140.8-64.512 142.336-142.336 1.536-80.384-61.952-146.432-142.336-147.968S51.712 617.472 50.176 697.856v5.632zm418.816 162.304c0 80.384 65.024 145.408 145.408 144.896 80.384 0 145.408-65.024 144.896-145.408s-65.024-145.408-145.408-144.896c-79.872 0-144.896 65.024-144.896 145.408zM201.216 390.656L84.48 97.792c-7.168-17.92 1.536-38.4 19.456-45.568 1.024-.512 2.048-.512 2.56-1.024L227.84 14.336c15.872-5.12 33.28 2.56 40.448 17.92l14.848 32.256c7.68 16.896.512 36.864-16.384 44.544-1.024.512-2.56 1.024-3.584 1.536l-82.944 27.648c-7.68 2.56-11.264 10.24-9.216 17.92 0 .512 0 .512.512 1.024L250.368 358.4c2.56 6.144-.512 12.8-6.144 15.36l-43.008 16.896z"/><path d="M67.072 390.656c0 52.736 42.496 95.232 95.232 95.232s95.232-42.496 95.232-95.232-42.496-95.232-95.232-95.232-95.232 42.496-95.232 95.232z"/></svg>