<svg xmlns="http://www.w3.org/2000/svg" xmlns:xlink="http://www.w3.org/1999/xlink" width="30" height="30" fill="none" xmlns:v="https://vecta.io/nano"><defs><path id="A" d="M0 0h30v30H0z"/></defs><g transform="matrix(1 0 0 1 0 0)"><mask id="B" fill="#fff"><use xlink:href="#A"/></mask><g mask="url(#B)"><path fill-rule="evenodd" transform="matrix(1 0 0 1 7.406502 2)" d="M5.44 15.98h5.92c1.36 0 1.91-.55 1.91-1.91v-.78c0-1.36-.55-1.91-1.91-1.91l-5.92-.01v-.54c0-4.2 1.21-5.41 5.41-5.41h2.42c1.36 0 1.92-.56 1.92-1.92V1.91C15.19.55 14.71 0 13.27 0h-2.42C2.84 0 .02 2.82.02 10.83v13.26C-.13 25.33.57 26 1.93 26h1.59c1.35 0 1.92-.52 1.92-1.91v-8.11z" fill="#1973e8"/></g></g></svg>