<?xml version="1.0" standalone="no"?><!DOCTYPE svg PUBLIC "-//W3C//DTD SVG 1.1//EN" "http://www.w3.org/Graphics/SVG/1.1/DTD/svg11.dtd"><svg t="1670996465140" class="icon" viewBox="0 0 1024 1024" version="1.1" xmlns="http://www.w3.org/2000/svg" p-id="69371" xmlns:xlink="http://www.w3.org/1999/xlink" width="128" height="128"><path d="M511.4 843.6h-80c-49.9 0-90.7-40.8-90.7-90.7 0-49.9 40.8-90.7 90.7-90.7h80c49.9 0 90.7 40.8 90.7 90.7 0 49.9-40.8 90.7-90.7 90.7z" fill="#B2BBC5" p-id="69372"></path><path d="M709.2 181.5H585.7v131h-214v-131H248.3c-68.1 0-123.5 55.4-123.5 123.5v138c0 55 36.2 101.8 86.1 117.6V693c0 118.6 101.3 215 225.7 215h84.2c124.5 0 225.7-96.5 225.7-215V560.7c49.9-15.9 86.1-62.6 86.1-117.6V305c0-68.1-55.4-123.5-123.4-123.5zM189.3 443V305c0-32.5 26.4-59 59-59h59v197c0 32.5-26.4 59-59 59s-59-26.4-59-59z m387.3 330.1c-10.9 30.8-40 53.1-74.5 53.1H439c-34.5 0-63.6-22.3-74.5-53.1-2.9-8.2-4.8-17-4.8-26.2 0-28.8 18.2-56.1 41.2-70l77.8 87.5 68.4-87.5c17.5 14.6 34.4 45.5 34.4 70-0.1 9.2-2 18-4.9 26.2z m105.4-80c0 15.4-2.5 30.3-7.2 44.4h-29.4c-4.9-74.9-67.2-134.4-143.3-134.4H439c-76.1 0-138.4 59.5-143.3 134.4h-12.6c-4.8-14-7.7-28.8-7.7-44.4V563.4c55.1-12.4 96.3-61.6 96.3-120.4v-66h214v66c0 58.7 41.3 107.9 96.3 120.4v129.7zM768.1 443c0 32.5-26.4 59-59 59-32.5 0-59-26.4-59-59V246h59c32.5 0 59 26.4 59 59v138z" fill="#242529" p-id="69373"></path></svg>