<svg xmlns="http://www.w3.org/2000/svg" width="37.8" height="22"><g fill="none" fill-rule="evenodd"><path d="m26.095.047-.22-.002.22.002Zm-7.203 5.236c-2.059 4.018-2.984 9.79-5.048 13.088-2.778 4.438-8.347 4.55-11.51 1.717C.023 18.016-.02 15.78.004 12.895c.02-2.536.175-5.251 1.344-7.354C2.605 3.28 5.47.128 11.69.047c.33.035 4.825.594 7.203 5.236Z" fill="#FE328B"/><path d="M11.69.047c.327.034 4.823.592 7.202 5.236C21.272.64 25.768.081 26.095.047c-4.791-.063-9.62-.063-14.406 0" fill="#984BC1"/><path d="m11.69.047.219-.002-.22.002Zm7.202 5.236c2.06 4.018 2.985 9.79 5.049 13.088 2.778 4.438 8.346 4.55 11.509 1.717 2.311-2.072 2.355-4.307 2.331-7.193-.021-2.536-.176-5.251-1.345-7.354C35.18 3.28 32.315.128 26.095.047c-.33.035-4.824.594-7.203 5.236Z" fill="#2EDBE2"/></g></svg>
