<svg xmlns="http://www.w3.org/2000/svg" width="256" height="211" viewBox="0 0 256 211">
    <g fill="none" fill-rule="nonzero">
        <path fill="#8C8C8C" d="M3.531 3.531h243.641v3.531H3.531z"/>
        <path fill="#AA1B53" d="M10.549 1.81a6.18 6.18 0 1 1-8.74 8.739 6.18 6.18 0 0 1 8.74-8.74M254.19 1.81a6.18 6.18 0 1 1-8.739 8.739 6.18 6.18 0 0 1 8.74-8.74"/>
        <path fill="#EE8872" d="M228.502 178.375l-1.625-8.06h-.813c-6.5 8.06-17.874 13.299-31.685 13.299-21.53 0-33.717-15.717-33.717-31.837 0-26.598 22.342-40.703 62.965-40.3v-1.612c0-6.85-2.844-18.538-21.53-18.538-10.562 0-21.53 3.224-28.436 7.657l-5.28-17.329c7.718-4.836 22.342-9.269 38.997-9.269 34.123 0 44.685 21.36 44.685 44.33v38.285c0 9.672-.813 19.747.406 23.777h-23.967v-.403zm-4.469-49.972c-16.249-.403-36.56 3.627-36.56 19.747 0 10.478 6.906 15.314 15.436 15.314 10.562 0 18.28-6.851 20.718-14.508.812-2.015.406-4.03.406-6.045v-14.508z"/>
        <path fill="#AA1B53" d="M251.657 153.777v-38.65c0-9.357-1.625-19.528-6.5-26.851a62.445 62.445 0 0 1-21.936 39.87v13.425c0 1.628.406 4.069-.406 6.103-2.438 7.73-10.156 14.646-20.718 14.646-8.53 0-15.437-4.882-15.437-15.46v-1.627c-2.437.407-4.468.407-7.312.407-6.5 0-12.593-.814-18.28-2.848-.406 2.034-.406 4.475-.406 6.51 0 16.273 12.187 32.546 33.31 32.546 13.812 0 24.78-5.289 31.686-13.425h.813l1.624 8.136h24.374c-1.625-2.847-.812-13.018-.812-22.782z"/>
        <path fill="#C1B8BC" d="M135.633 195.972c.831 0 2.077.808 2.077 1.615v10.088c0 1.21-.83 2.422-2.492 2.422h-9.97c-1.246 0-1.662-1.211-1.662-2.018 0-.404.416-2.018 1.662-2.018h8.308v-8.474c0-1.211 1.246-1.615 2.077-1.615z"/>
        <g fill="#C1B8BC">
            <path d="M6.075 28.837c-.81 0-2.025-.81-2.025-1.619v-9.305c0-1.214.405-2.023 2.025-2.023h7.291c1.215 0 1.62 1.213 1.62 2.023 0 .404-.405 2.023-1.62 2.023H8.101v7.282c0 1.214-1.215 1.619-2.026 1.619zM135.685 28.837c.81 0 2.025-.81 2.025-1.619v-9.305c0-1.214-1.215-2.023-2.835-2.023h-7.29c-1.216 0-1.62 1.213-1.62 2.023 0 .404.404 2.023 1.62 2.023h6.075v7.282c0 1.214 1.215 1.619 2.025 1.619zM2.025 195.936c-.81 0-2.025.809-2.025 1.618v10.115c0 1.214.405 2.428 2.025 2.428h8.506c1.215 0 1.62-1.214 1.62-2.023 0-.405-.405-2.023-1.62-2.023H4.05v-8.497c0-1.214-1.216-1.618-2.026-1.618z"/>
        </g>
        <path fill="#EE8872" d="M43.53 138.103l-12.526 40.214H3.531L50.397 33.545H84.74l47.675 144.772h-28.686l-13.332-40.214H43.529zm42.017-20.108L73.831 81.4c-2.828-8.847-5.253-15.684-7.273-27.748h-.404c-2.02 12.064-4.444 19.303-6.868 27.748l-11.313 36.595h37.574z"/>
        <g fill="#AA1B53">
            <path d="M30.495 141c-4.879 0-9.352-1.203-13.824-2.006L3.659 178.317h27.65l12.198-39.323c-4.066.803-8.54 2.007-13.012 2.007zM104.09 90.844c-4.065 10.031-10.164 19.26-17.89 26.483v.4h-.407c-10.165 12.039-22.77 16.051-37.407 20.064h42.287l13.418 40.125h28.868l-28.868-87.072z"/>
        </g>
    </g>
</svg>
