<svg xmlns="http://www.w3.org/2000/svg" width="100%" height="100%" viewBox="0 0 340 250" preserveAspectRatio="xMidYMid meet" color-interpolation-filters="sRGB" xmlns:v="https://vecta.io/nano"><g fill="#426755" transform="translate(95 48.767)"><g mask="url(#C)"><path fill-opacity="0" d="M0 0h150v152.465H0z"/><svg filter="url(#A)" width="150" height="152.465" overflow="visible"><svg viewBox="0.0005642175674438477 0.00072479248046875 261.7687072753906 266.0718994140625"><g fill="#f5ad1e" fill-rule="evenodd"><path d="M226.27 179.857C305.602 20.568 143.82-27.684 38.042 78.64-85.698 203.022 155.84 321.274 226.27 179.857" fill-opacity=".6"/><path d="M119.854 265.99c-52.47-2.525-108.51-76.496-105.696-138.626C16.694 71.31 73.028-1.988 122.74.042c54.32 2.217 107.963 75.567 105.696 138.628-2.318 64.516-51.841 130.053-108.583 127.32" fill-opacity=".7"/><path d="M169.919 242.38c-34.285 6.953-74.84-10.034-104.446-22.172-23.034-9.444-58.165-22.552-64.136-46.08-10.61-41.79 44.017-112.926 90.81-124.273 53.747-13.032 157.785 18.196 168.582 68.252 8.727 40.456-38.84 113.732-90.81 124.273" fill-opacity=".7"/></g></svg></svg><defs><filter id="A"><feColorMatrix values="0 0 0 0 0.2578125  0 0 0 0 0.40234375  0 0 0 0 0.33203125  0 0 0 1 0"/></filter><filter id="B"><feColorMatrix values="0 0 0 0 0.99609375  0 0 0 0 0.99609375  0 0 0 0 0.99609375  0 0 0 1 0"/></filter></defs></g><path d="M58.877 98.31h0 0q-1-2.55-1.95-5.15h0q-.25-.75-.55-1.55h0q-12.2 4-24.7 6.65h0q-.8.15-1.47-.3-.68-.45-.83-1.3h0q-.15-.8.3-1.45.45-.65 1.25-.85h0q.1 0 .2-.05h0q.3-.05.55-.1h0q7.05-13.9 11.35-28.9h0q.25-.8.92-1.18.68-.37 1.53-.17h0q.8.25 1.18.95.37.7.17 1.5h0q-4 13.85-10.3 26.85h0q9.75-1.8 18.75-4.5h0q-1.65-4.4-3.55-8.75h0q-.35-.95.15-1.58.5-.62 1.3-.6.8.03 1.3.98h0q1 2.05 1.95 4.15h0q3.35 6.85 6.15 13.95h0q.25.75-.07 1.48-.33.72-1.08 1.07h0q-.8.25-1.53-.07-.72-.33-1.02-1.08zm13.25-44.5h0 0v51.75q0 .85-.57 1.43-.58.57-1.43.57h0q-.8 0-1.35-.55h0-10.15q-.6 0-1-.42-.4-.43-.4-1.03h0q0-.6.4-1 .4-.4 1-.4h0 8.85q.3 0 .5-.2.2-.2.2-.5h0V58.11q-6.7 0-15.52 0-8.83 0-15.78-.05h0q-2.75 5.9-6.1 11.45h0q-.6.9-1.4.8-.8-.1-1.27-.8-.48-.7.02-1.6h0q2.95-5.1 5.18-10.57 2.22-5.48 4.02-11.08h0q.3-.8 1-1.15.7-.35 1.5-.1h0q.8.3 1.15 1 .35.7.1 1.5h0q-1.3 3.95-3 7.75h0q6.1 0 13.8 0h0q3.65 0 7.25 0h0q4.9 0 9.05 0h0v-1.45q0-.8.58-1.38.57-.57 1.37-.57h0q.85 0 1.43.57.57.58.57 1.38zm36.75 44.5h0 0q-1-2.55-1.95-5.15h0q-.25-.75-.55-1.55h0q-12.2 4-24.7 6.65h0q-.8.15-1.47-.3-.68-.45-.83-1.3h0q-.15-.8.3-1.45.45-.65 1.25-.85h0q.1 0 .2-.05h0q.3-.05.55-.1h0q7.05-13.9 11.35-28.9h0q.25-.8.93-1.18.67-.37 1.52-.17h0q.8.25 1.18.95.37.7.17 1.5h0q-4 13.85-10.3 26.85h0q9.75-1.8 18.75-4.5h0q-1.65-4.4-3.55-8.75h0q-.35-.95.15-1.58.5-.62 1.3-.6.8.03 1.3.98h0q1 2.05 1.95 4.15h0q3.35 6.85 6.15 13.95h0q.25.75-.07 1.48-.33.72-1.08 1.07h0q-.8.25-1.52-.07-.73-.33-1.03-1.08zm13.25-44.5h0 0v51.75q0 .85-.57 1.43-.58.57-1.43.57h0q-.8 0-1.35-.55h0-10.15q-.6 0-1-.42-.4-.43-.4-1.03h0q0-.6.4-1 .4-.4 1-.4h0 8.85q.3 0 .5-.2.2-.2.2-.5h0V58.11q-6.7 0-15.52 0-8.83 0-15.78-.05h0q-2.75 5.9-6.1 11.45h0q-.6.9-1.4.8-.8-.1-1.27-.8-.48-.7.02-1.6h0q2.95-5.1 5.17-10.57 2.23-5.48 4.03-11.08h0q.3-.8 1-1.15.7-.35 1.5-.1h0q.8.3 1.15 1 .35.7.1 1.5h0q-1.3 3.95-3 7.75h0q6.1 0 13.8 0h0q3.65 0 7.25 0h0q4.9 0 9.05 0h0v-1.45q0-.8.58-1.38.57-.57 1.37-.57h0q.85 0 1.43.57.57.58.57 1.38z"/></g><mask id="C"><g fill="#fff"><path d="M0 0h150v152.465H0z"/><svg width="150" height="152.465" filter="url(#B)" overflow="visible"><svg viewBox="0.0005642175674438477 0.00072479248046875 261.7687072753906 266.0718994140625"><g fill-rule="evenodd"><path d="M226.27 179.857C305.602 20.568 143.82-27.684 38.042 78.64-85.698 203.022 155.84 321.274 226.27 179.857"/><path d="M119.854 265.99c-52.47-2.525-108.51-76.496-105.696-138.626C16.694 71.31 73.028-1.988 122.74.042c54.32 2.217 107.963 75.567 105.696 138.628-2.318 64.516-51.841 130.053-108.583 127.32"/><path d="M169.919 242.38c-34.285 6.953-74.84-10.034-104.446-22.172-23.034-9.444-58.165-22.552-64.136-46.08-10.61-41.79 44.017-112.926 90.81-124.273 53.747-13.032 157.785 18.196 168.582 68.252 8.727 40.456-38.84 113.732-90.81 124.273"/></g></svg></svg></g><path d="M34 6.7h0 0q-1-2.55-1.95-5.15h0Q31.8.8 31.5 0h0Q19.3 4 6.8 6.65h0q-.8.15-1.47-.3-.68-.45-.83-1.3h0q-.15-.8.3-1.45.45-.65 1.25-.85h0q.1 0 .2-.05h0q.3-.05.55-.1h0q7.05-13.9 11.35-28.9h0q.25-.8.92-1.18.68-.37 1.53-.17h0q.8.25 1.18.95.37.7.17 1.5h0q-4 13.85-10.3 26.85h0q9.75-1.8 18.75-4.5h0q-1.65-4.4-3.55-8.75h0q-.35-.95.15-1.58.5-.62 1.3-.6.8.03 1.3.98h0q1 2.05 1.95 4.15h0Q34.9-1.8 37.7 5.3h0q.25.75-.07 1.48-.33.72-1.08 1.07h0q-.8.25-1.53-.07Q34.3 7.45 34 6.7zm13.25-44.5h0 0v51.75q0 .85-.57 1.43-.58.57-1.43.57h0q-.8 0-1.35-.55h0-10.15q-.6 0-1-.42-.4-.43-.4-1.03h0q0-.6.4-1 .4-.4 1-.4h0 8.85q.3 0 .5-.2.2-.2.2-.5h0V-33.5q-6.7 0-15.52 0-8.83 0-15.78-.05h0q-2.75 5.9-6.1 11.45h0q-.6.9-1.4.8-.8-.1-1.27-.8-.48-.7.02-1.6h0q2.95-5.1 5.18-10.57 2.22-5.48 4.02-11.08h0q.3-.8 1-1.15.7-.35 1.5-.1h0q.8.3 1.15 1 .35.7.1 1.5h0q-1.3 3.95-3 7.75h0q6.1 0 13.8 0h0q3.65 0 7.25 0h0q4.9 0 9.05 0h0v-1.45q0-.8.58-1.38.57-.57 1.37-.57h0q.85 0 1.43.57.57.58.57 1.38zM84 6.7h0 0q-1-2.55-1.95-5.15h0Q81.8.8 81.5 0h0Q69.3 4 56.8 6.65h0q-.8.15-1.47-.3-.68-.45-.83-1.3h0q-.15-.8.3-1.45.45-.65 1.25-.85h0q.1 0 .2-.05h0q.3-.05.55-.1h0q7.05-13.9 11.35-28.9h0q.25-.8.93-1.18.67-.37 1.52-.17h0q.8.25 1.18.95.37.7.17 1.5h0q-4 13.85-10.3 26.85h0q9.75-1.8 18.75-4.5h0q-1.65-4.4-3.55-8.75h0q-.35-.95.15-1.58.5-.62 1.3-.6.8.03 1.3.98h0q1 2.05 1.95 4.15h0Q84.9-1.8 87.7 5.3h0q.25.75-.07 1.48-.33.72-1.08 1.07h0q-.8.25-1.52-.07Q84.3 7.45 84 6.7zm13.25-44.5h0 0v51.75q0 .85-.57 1.43-.58.57-1.43.57h0q-.8 0-1.35-.55h0-10.15q-.6 0-1-.42-.4-.43-.4-1.03h0q0-.6.4-1 .4-.4 1-.4h0 8.85q.3 0 .5-.2.2-.2.2-.5h0V-33.5q-6.7 0-15.52 0-8.83 0-15.78-.05h0q-2.75 5.9-6.1 11.45h0q-.6.9-1.4.8-.8-.1-1.27-.8-.48-.7.02-1.6h0q2.95-5.1 5.17-10.57 2.23-5.48 4.03-11.08h0q.3-.8 1-1.15.7-.35 1.5-.1h0q.8.3 1.15 1 .35.7.1 1.5h0q-1.3 3.95-3 7.75h0q6.1 0 13.8 0h0q3.65 0 7.25 0h0q4.9 0 9.05 0h0v-1.45q0-.8.58-1.38.57-.57 1.37-.57h0q.85 0 1.43.57.57.58.57 1.38z" transform="translate(24.877 91.61)" stroke="#000" stroke-width="6" stroke-linejoin="round"/></mask></svg>