<svg xmlns="http://www.w3.org/2000/svg" xmlns:xlink="http://www.w3.org/1999/xlink" width="30" height="30" fill="none" xmlns:v="https://vecta.io/nano"><defs><path id="A" d="M0 0h30v30H0z"/><path id="B" d="M0 0h21v21H0z"/></defs><g transform="matrix(1 0 0 1 0 0)"><mask id="D" fill="#fff"><use xlink:href="#A"/></mask><g mask="url(#D)"><g transform="matrix(1 0 0 1 4.5 4.5)"><mask id="D" fill="#fff"><use xlink:href="#B"/></mask><g mask="url(#D)"><path fill-rule="evenodd" transform="matrix(1 0 0 1 -.000056 .000127)" d="M16.7 10.02c.55.78.46 1.85-.21 2.53a1.96 1.96 0 0 1-2.53.21c-.79-.55-1.06-1.59-.64-2.45l-2.63-2.63c-.06.03-.12.06-.19.08v5.48a1.96 1.96 0 0 1 1.28 2.19c-.16.94-.98 1.63-1.94 1.63-.95 0-1.77-.69-1.94-1.63-.16-.95.38-1.87 1.29-2.19V7.76a1.94 1.94 0 0 1-1.16-1.1 1.94 1.94 0 0 1 .04-1.6L6.46 3.45.4 9.52c-.26.26-.4.6-.4.96s.14.7.4.95l9.17 9.17c.25.26.59.4.95.4a1.33 1.33 0 0 0 .96-.4l9.12-9.12c.26-.26.4-.6.4-.96s-.14-.7-.4-.96h0L11.44.4c-.26-.26-.6-.4-.96-.4s-.7.14-.96.4L7.39 2.53 9 4.13c.75-.36 1.65-.21 2.24.38s.74 1.49.38 2.24l2.63 2.63a1.97 1.97 0 0 1 2.45.64z" fill="#f05033"/></g></g></g></g></svg>