<svg xmlns="http://www.w3.org/2000/svg" height="512" viewBox="0 0 730 512" fill="none" width="300" xmlns:v="https://vecta.io/nano"><path fill-rule="evenodd" d="M411.148 6.39l238.387 119.193c11.016 5.508 11.188 21.168.296 26.916L340.222 315.904a60.53 60.53 0 0 1-55.319.608L90.512 219.316c-23.682-9.514-50.161 7.862-50.161 34.035a55.56 55.56 0 0 0 30.71 49.691l194.892 97.445c11.897-12.113 28.462-19.627 46.783-19.627 17.797 0 33.937 7.09 45.751 18.599l242.746-128.115c-.665-3.746-1.012-7.602-1.012-11.539 0-36.213 29.357-65.569 65.57-65.569s65.57 29.356 65.57 65.569-29.357 65.57-65.57 65.57c-17.707 0-33.775-7.018-45.573-18.425L377.337 435.137c.637 3.669.969 7.442.969 11.293 0 36.213-29.357 65.57-65.57 65.57s-65.57-29.357-65.57-65.57c0-3.349.251-6.64.736-9.855L50.187 337.719C19.429 322.34 0 290.903 0 256.514V237.36c0-26.19 14.495-50.229 37.658-62.452L355.829 6.998c17.263-9.111 37.86-9.337 55.319-.608zm-98.412 465.259c13.928 0 25.219-11.291 25.219-25.219s-11.291-25.219-25.219-25.219-25.219 11.291-25.219 25.219 11.291 25.219 25.219 25.219zM691.01 259.805c0 13.929-11.291 25.22-25.219 25.22s-25.219-11.291-25.219-25.22 11.291-25.219 25.219-25.219 25.219 11.291 25.219 25.219z" fill="#fff"/></svg>