<svg xmlns="http://www.w3.org/2000/svg" width="100" height="100" fill="none" xmlns:v="https://vecta.io/nano"><path fill-rule="evenodd" d="M72.6 44.8H47.1a2.22 2.22 0 0 0-2.2 2.2v5.5a2.22 2.22 0 0 0 2.2 2.2h15.5a2.22 2.22 0 0 1 2.2 2.2v.6.6c0 3.7-3 6.6-6.6 6.6h-21a2.22 2.22 0 0 1-2.2-2.2v-21c0-3.7 3-6.6 6.6-6.6h31a2.22 2.22 0 0 0 2.2-2.2v-5.5a2.22 2.22 0 0 0-2.2-2.2h-31A16.56 16.56 0 0 0 25 41.6v31a2.22 2.22 0 0 0 2.2 2.2h32.7a14.98 14.98 0 0 0 15-15V47c-.1-1.2-1.1-2.2-2.3-2.2z" fill="#fff"/></svg>