<svg xmlns="http://www.w3.org/2000/svg" width="128" height="128" fill="none" xmlns:v="https://vecta.io/nano"><path fill-rule="evenodd" d="M64.012 24C41.353 24 23 42.353 23 65.012c0 18.148 11.74 33.476 28.042 38.91 2.051.359 2.819-.872 2.819-1.948l-.051-7.639c-10.304 1.897-12.97-2.512-13.79-4.819-.461-1.179-2.461-4.819-4.204-5.793-1.435-.769-3.486-2.666-.051-2.717 3.23-.051 5.537 2.973 6.306 4.204 3.691 6.203 9.586 4.46 11.945 3.384.359-2.666 1.436-4.46 2.615-5.485-9.125-1.025-18.66-4.563-18.66-20.25 0-4.46 1.589-8.151 4.204-11.022-.41-1.025-1.846-5.229.41-10.868 0 0 3.435-1.077 11.278 4.204 3.281-.923 6.767-1.384 10.253-1.384s6.972.461 10.253 1.384c7.844-5.331 11.278-4.204 11.278-4.204 2.256 5.639.82 9.843.41 10.868 2.615 2.871 4.204 6.511 4.204 11.022 0 15.738-9.586 19.224-18.712 20.25 1.487 1.282 2.768 3.742 2.768 7.587l-.051 11.279c0 1.076.769 2.358 2.82 1.948 8.142-2.749 15.216-7.981 20.228-14.961a41.09 41.09 0 0 0 7.712-23.949C105.024 42.353 86.671 24 64.012 24z" fill="#fff"/></svg>