<svg xmlns="http://www.w3.org/2000/svg" xmlns:xlink="http://www.w3.org/1999/xlink" width="30" height="30" fill="none" xmlns:v="https://vecta.io/nano"><defs><path id="A" d="M0 0h30v30H0z"/><path id="B" d="M0 0h22v22H0z"/></defs><g transform="matrix(1 0 0 1 0 0)"><mask id="D" fill="#fff"><use xlink:href="#A"/></mask><g mask="url(#D)"><g transform="matrix(1 0 0 1 4 4)"><mask id="D" fill="#fff"><use xlink:href="#B"/></mask><g mask="url(#D)" fill-rule="evenodd"><path transform="matrix(1 0 0 1 .100822 6.235167)" d="M4.83 2.77L1.13 0A10.52 10.52 0 0 0 0 4.76a10.61 10.61 0 0 0 1.13 4.77l3.7-2.78a6.11 6.11 0 0 1-.33-1.99 6.29 6.29 0 0 1 .33-1.99z" fill="#fbbc05"/><path transform="matrix(1 0 0 1 1.228333 .24475)" d="M13.92 5.82l3.2-3.13C15.17 1.03 12.67 0 9.87 0 5.53 0 1.79 2.43 0 5.99l3.7 2.77C4.56 6.22 6.99 4.4 9.87 4.4a6.45 6.45 0 0 1 4.05 1.42z" fill="#ea4335"/><path transform="matrix(1 0 0 1 1.228333 12.9965)" d="M9.87 4.36C6.99 4.36 4.55 2.54 3.7 0L0 2.77c1.79 3.56 5.52 5.99 9.87 5.99 2.68 0 5.25-.93 7.17-2.68l-3.52-2.66c-.99.61-2.23.94-3.65.94z" fill="#34a853"/><path transform="matrix(1 0 0 1 11.099917 9.04475)" d="M10.25 0H0v4.16h5.9c-.29 1.41-1.1 2.5-2.25 3.21l3.52 2.66c2.02-1.84 3.33-4.57 3.33-8.07 0-.64-.1-1.32-.25-1.96z" fill="#4285f4"/></g></g></g></g></svg>