<svg xmlns="http://www.w3.org/2000/svg" viewBox="0 0 100 100" width="50" height="50" fill="#08ffbd" xmlns:v="https://vecta.io/nano"><path d="M23 23v65h65V23H23zm-1-1h67v67H22V22zM10 10v8h8v-8h-8zM9 9h10v10H9V9z"/><path d="M9.146 9.854a.5.5 0 1 1 .708-.708l9 9a.5.5 0 0 1-.708.708l-9-9zM33 22h1v66.168h-1zm33 0h1v66.168h-1zm-22 0h1v66.168h-1zm33 0h1v66.168h-1zm-22 0h1v66.168h-1z"/><path d="M88.584 34.084v-1H22.416v1zm0 44v-1H22.416v1zm0-22v-1H22.416v1zm0-11v-1H22.416v1zm.5 22v-1H22.916v1zM13 18.5h1V89h-1zm5-4.5v-1h71v1z"/><path d="M88 9h1v9h-1zM9 89v-1h9v1z"/></svg>