<svg xmlns="http://www.w3.org/2000/svg" width="91" height="94" fill="none" xmlns:v="https://vecta.io/nano"><path d="M16.5874 13.4898L65.2574 7.81319C70.7431 7.17338 75.7088 11.1017 76.3486 16.5874L82.4886 69.2305C83.1284 74.7162 79.2 79.6819 73.7144 80.3217L25.0443 85.9982C19.5586 86.6381 14.5929 82.7097 13.9531 77.2241L7.81317 24.5809C7.17336 19.0952 11.1017 14.1296 16.5874 13.4898Z" stroke="url(#A)" stroke-width="12"/><path d="M30.191 75.519l40.247-4.715a2 2 0 0 0 1.755-2.212l-5.595-49.337c-.19-1.679-2.248-2.38-3.423-1.167l-22.892 23.62a2 2 0 0 0-.429.671l-11.76 30.432c-.543 1.405.603 2.883 2.098 2.707z" fill="url(#B)"/><defs><linearGradient id="A" x1="40.227" y1="4.692" x2="50.074" y2="89.12" gradientUnits="userSpaceOnUse"><stop stop-color="#5ebb79"/><stop offset="1" stop-color="#00ab82"/></linearGradient><linearGradient id="B" x1="69.526" y1="43.057" x2="23.949" y2="47.847" gradientUnits="userSpaceOnUse"><stop stop-color="#5bbb7a"/><stop offset="1" stop-color="#06ac82"/></linearGradient></defs></svg>