<svg xmlns="http://www.w3.org/2000/svg" viewBox="0 0 80 80" xmlns:v="https://vecta.io/nano"><defs><linearGradient id="A" x1="50%" x2="50%" y1="0%" y2="95.703%"><stop offset="0%" stop-color="#1026f6"/><stop offset="100%" stop-color="#000b76"/></linearGradient><linearGradient id="B" x1="50%" x2="50%" y1="0%" y2="165.217%"><stop offset="0%" stop-color="#09f"/><stop offset="100%" stop-color="#0019ff"/></linearGradient></defs><g fill-rule="evenodd"><circle cx="40" cy="40" r="37" fill="#000b76"/><path fill="url(#A)" d="M9 47l-.305-.336a32.34 32.34 0 0 1-.487-10.334C10.194 30.609 15.108 25 22 25c8 0 16.333 4.667 25 14l-1.714 32.565A32.22 32.22 0 0 1 40 72c-14.01 0-25.919-9.004-30.252-21.542.285-1.521.036-2.674-.748-3.458z"/><path fill="url(#B)" d="M8.038 38.421C10.631 44.807 15.618 48 23 48c16 0 21-22 36-22 4.97 0 8.87 1.647 11.7 4.941A32.01 32.01 0 0 1 72 40c0 17.673-14.327 32-32 32S8 57.673 8 40c0-.53.013-1.056.038-1.579z"/></g></svg>