<svg xmlns="http://www.w3.org/2000/svg" xmlns:xlink="http://www.w3.org/1999/xlink" width="64" height="64" fill="none" xmlns:v="https://vecta.io/nano"><defs><path id="A" d="M0 0h52v52H0z"/><linearGradient id="B" x1="10.356564919110983%" y1="35.4033047948208%" x2="78.07191382830771%" y2="84.44716439349618%"><stop offset="0" stop-color="#00deec"/><stop offset="1" stop-color="#00ff90"/></linearGradient><linearGradient id="C" x1="18.798070009944503%" y1="38.63188025967122%" x2="117.5347573346579%" y2="106.2203854202282%"><stop offset="0" stop-color="#2c55ff"/><stop offset=".21" stop-color="#2e51ff"/><stop offset=".43" stop-color="#3444ff"/><stop offset=".65" stop-color="#3f30ff"/><stop offset=".88" stop-color="#4d13ff"/><stop offset="1" stop-color="#5700ff"/></linearGradient></defs><g transform="translate(6 6)"><mask id="D" fill="#fff"><use xlink:href="#A"/></mask><g mask="url(#D)" fill-rule="evenodd"><path fill="url(#B)" transform="matrix(1 0 0 1 1.300479 15.912974)" d="M6 25.62h24.08L16.5 2.1c-.38-.64-.91-1.17-1.55-1.54S13.58 0 12.84 0s-1.47.19-2.11.56A4.21 4.21 0 0 0 9.19 2.1L.8 16.62c-.52.92-.8 1.95-.8 3a6.04 6.04 0 0 0 .8 3c.53.92 1.29 1.67 2.2 2.2s1.95.81 3 .8z"/><path transform="matrix(1 0 0 1 8.6749 24.106794)" d="M10.79 1.53H6.21V0H4.59v1.53H0v1.62h1.88c.42 1.56 1.21 3 2.3 4.2-1.17.88-2.5 1.53-3.92 1.91l.44 1.56c1.7-.45 3.3-1.24 4.68-2.34 1.38 1.1 2.97 1.89 4.68 2.34l.44-1.56c-1.42-.38-2.75-1.03-3.92-1.91a10.04 10.04 0 0 0 2.31-4.2h1.9V1.53zM7.219 3.152h-3.65a8.41 8.41 0 0 0 1.83 3.1c.82-.9 1.44-1.95 1.82-3.1z" fill="#fff"/><path fill="url(#C)" transform="matrix(1 0 0 1 2.589047 9.1)" d="M25.62 2.12l-7.7 13.33-.2.34c-1.06 1.82-6.22 10.5-10.7 14.56-3.39 2.7-7.02-.17-7.02-.17a6.08 6.08 0 0 0 1.84 1.54 5.99 5.99 0 0 0 2.3.71H8.1h35.02c.74.01 1.47-.19 2.11-.56.64-.36 1.18-.9 1.55-1.54a4.18 4.18 0 0 0 .56-2.1c0-.74-.2-1.47-.57-2.11l-13.86-24c-.36-.65-.89-1.18-1.54-1.55a4.19 4.19 0 0 0-2.1-.57 4.2 4.2 0 0 0-2.11.57c-.64.37-1.18.9-1.54 1.55z"/><path transform="matrix(1 0 0 1 23.963956 20.579081)" d="M15.74 14.33L8.97 0h-2.2L0 14.33h2.67l1.65-3.49h7.09l1.65 3.49h2.68zm-5.338-5.633l-2.53-5.35-2.53 5.35h5.06z" fill="#fff"/></g></g></svg>