<svg xmlns="http://www.w3.org/2000/svg" viewBox="0 0 1024 1024" width="128" height="128" fill="#fff" xmlns:v="https://vecta.io/nano"><path d="M412.457 39.322l-127.483 410.91 30.433 66.893L453.309 98.289l454.349 95.708S804.342 539.064 724.05 752.082c-70.764 190.669-91.392 184.673-173.128 161.761-75.96-37.745-51.717-145.132-51.717-145.132L126.592 598.968s-19.297 122.813 12.82 166.139c32.143 43.325 9.636 36.101 265.252 158.853 255.575 122.762 306.729 8.069 319.38-18.207C740.152 871.02 980.997 151.24 980.997 151.24L412.457 39.322zm15.56 836.045c-219.06-105.201-222.08-109.517-236.596-130.243l-8.699-12.134c-4.89-7.337-7.598-27.735-7.921-52.803l266.511 121.411c-.609 27.51 3.374 58.568 15.872 87.117a855.782 855.782 0 0 1-29.169-13.348zm76.892-365.779c-2.074-.778-4.465.497-5.187 2.847l-11.182 34.319c-.778 2.391.312 4.936 2.427 5.714l205.947 79.043c2.115.829 4.413-.461 5.187-2.796l11.182-34.319c.748-2.335-.312-4.936-2.401-5.765L504.91 509.588zm40.049-114.284c-2.068-.778-4.46.497-5.181 2.847l-11.182 34.319c-.783 2.396.307 4.931 2.422 5.714l205.952 79.037c2.109.835 4.413-.445 5.181-2.78l11.182-34.324c.748-2.335-.312-4.936-2.401-5.765l-205.972-79.048zm35.415-108.073c-2.068-.778-4.47.497-5.187 2.842l-11.187 34.324c-.768 2.391.317 4.931 2.432 5.709l205.947 79.043c2.115.835 4.408-.451 5.181-2.79l11.192-34.319c.742-2.335-.323-4.931-2.412-5.765l-205.967-79.043zm-84.751-31.145c-14.894 0-26.993 12.943-26.993 28.908s12.104 28.902 26.993 28.902c14.95 0 27.028-12.938 27.028-28.902s-12.078-28.908-27.028-28.908zm-27.013 107.208c-14.894 0-26.993 12.943-26.993 28.908s12.099 28.902 26.993 28.902c14.95 0 27.028-12.938 27.028-28.902s-12.078-28.908-27.028-28.908zm-39.091 114.545c-14.894 0-26.993 12.943-26.993 28.908s12.099 28.902 26.993 28.902c14.95 0 27.028-12.938 27.028-28.902s-12.078-28.908-27.028-28.908zM268.969 528.85c-11.269 21.868-31.058 26.629-47.718 21.284l58.604 65.802-10.885-87.086zm-24.586 13.348a26.972 26.972 0 0 0 15.529-34.826L120.013 142.336a26.967 26.967 0 0 0-50.355 19.292l139.899 365.036a26.962 26.962 0 0 0 34.826 15.534z"/></svg>