<svg xmlns="http://www.w3.org/2000/svg" viewBox="0 0 32 32" fill="none" xmlns:v="https://vecta.io/nano"><path d="M6.495 19.883l19.52-6.518-.99-5.314c-.347-1.338-.622-1.696-.73-1.82a3.807 3.807 0 0 0-1.371-.996c-.152-.065-.578-.216-1.956-.133-1.458.088-3.372.386-6.403.866L8.209 7.123c-1.337.347-1.696.623-1.82.731a3.82 3.82 0 0 0-.995 1.371c-.065.152-.216.578-.133 1.957.088 1.458.386 3.373.866 6.404l.368 2.297z" fill="url(#A)"/><path fill-rule="evenodd" d="M1.113 18.38C.185 12.516-.28 9.584.726 7.23a8.885 8.885 0 0 1 2.324-3.2C4.977 2.347 7.908 1.883 13.77.954S22.565-.44 24.92.566a8.882 8.882 0 0 1 3.198 2.324c1.684 1.928 2.148 4.86 3.076 10.725s1.393 8.797.387 11.15a8.883 8.883 0 0 1-2.323 3.2c-1.927 1.684-4.859 2.148-10.722 3.077s-8.794 1.393-11.147.387a8.883 8.883 0 0 1-3.198-2.324c-1.684-1.928-2.148-4.86-3.077-10.725zm10.341 10.414c1.57-.095 3.592-.412 6.585-.886s5.013-.798 6.537-1.193c1.475-.383 2.155-.756 2.594-1.14a5.711 5.711 0 0 0 1.493-2.057c.23-.536.375-1.298.283-2.82-.095-1.57-.412-3.593-.886-6.587s-.797-5.015-1.192-6.538c-.383-1.476-.757-2.156-1.14-2.595a5.71 5.71 0 0 0-2.056-1.494c-.536-.23-1.298-.375-2.82-.283-1.57.095-3.591.412-6.585.886s-5.013.798-6.536 1.193c-1.476.383-2.155.757-2.594 1.14a5.712 5.712 0 0 0-1.494 2.057c-.229.536-.374 1.298-.282 2.82.095 1.571.411 3.593.886 6.587s.797 5.015 1.192 6.538c.383 1.476.756 2.156 1.14 2.595a5.711 5.711 0 0 0 2.056 1.494c.536.23 1.297.375 2.82.283z" fill="url(#A)"/><defs><linearGradient id="A" x1="12.69" y1="0" x2="17.769" y2="31.733" gradientUnits="userSpaceOnUse"><stop stop-color="#66e3ff"/><stop offset="1" stop-color="#7064f9"/></linearGradient></defs></svg>