<svg xmlns="http://www.w3.org/2000/svg" xmlns:xlink="http://www.w3.org/1999/xlink" width="83" height="82" xmlns:v="https://vecta.io/nano"><defs><path d="M1.811 4.29a16.84 16.84 0 0 0-1.4 1.374.283.283 0 0 0 .06.427l27.453 17.462c.16.102.378.04.455-.133a16.478 16.478 0 0 0-3.444-18.357C21.675 1.796 17.319.145 12.954.145c-3.981 0-7.97 1.373-11.143 4.144" id="A"/><path d="M5.26 5.034A16.48 16.48 0 0 0 1.814 23.39a.315.315 0 0 0 .455.134L29.723 6.062a.282.282 0 0 0 .06-.428 16.65 16.65 0 0 0-1.4-1.374C25.21 1.488 21.22.115 17.24.115c-4.365 0-8.721 1.651-11.98 4.919" id="B"/><path id="C" d="M0 .424h81.071V80.41H.001z"/><linearGradient x1="21.838%" y1="17.134%" x2="99.948%" y2="78.589%" id="D"><stop stop-color="#00f9e4" offset="0%"/><stop stop-color="#4954ff" offset="100%"/></linearGradient><linearGradient x1="78.163%" y1="17.133%" x2=".052%" y2="78.589%" id="E"><stop stop-color="#00f9e4" offset="0%"/><stop stop-color="#4954ff" offset="100%"/></linearGradient></defs><g fill="none" fill-rule="evenodd"><path d="M74.447 44.19a3.82 3.82 0 0 1 .755 2.46c-.748 17.973-15.738 32.317-34.117 32.317S7.726 64.633 6.967 46.667a3.829 3.829 0 0 1 .776-2.485L38.289 4.153c1.55-2.032 4.644-2.019 6.177.026L74.447 44.19z" fill="#00f9e5"/><path d="M30.156 57.452c-6.886 6.168-17.53 5.653-23.774-1.15S.66 38.987 7.546 32.82s17.53-5.653 23.774 1.149 5.722 17.317-1.164 23.484" fill="#fff"/><path d="M12.767 38.458a8.722 8.722 0 0 0-.616 12.427c3.304 3.6 8.936 3.87 12.58.608a8.747 8.747 0 0 0 2.501-3.833l-14.465-9.202Z" fill="#1e1e1e"/><g transform="translate(5.892 28.39)"><mask id="F" fill="#fff"><use xlink:href="#A"/></mask><path d="M1.811 4.29a16.84 16.84 0 0 0-1.4 1.374.283.283 0 0 0 .06.427l27.453 17.462c.16.102.378.04.455-.133a16.478 16.478 0 0 0-3.444-18.357C21.675 1.796 17.319.145 12.954.145c-3.981 0-7.97 1.373-11.143 4.144" fill="url(#D)" mask="url(#F)"/></g><path d="M51.846 57.422c6.886 6.167 17.53 5.654 23.773-1.149s5.722-17.316-1.163-23.484-17.53-5.653-23.774 1.15-5.723 17.315 1.164 23.483" fill="#fff"/><path d="M69.235 38.428a8.723 8.723 0 0 1 .616 12.427c-3.305 3.6-8.937 3.872-12.58.608a8.738 8.738 0 0 1-2.501-3.833l14.465-9.202Z" fill="#1e1e1e"/><g transform="translate(45.916 28.39)"><mask id="G" fill="#fff"><use xlink:href="#B"/></mask><path d="M5.26 5.034A16.48 16.48 0 0 0 1.814 23.39a.315.315 0 0 0 .455.134L29.723 6.062a.282.282 0 0 0 .06-.428 16.65 16.65 0 0 0-1.4-1.374C25.21 1.488 21.22.115 17.24.115c-4.365 0-8.721 1.651-11.98 4.919" fill="url(#E)" mask="url(#G)"/></g><path d="m5.124 33.01.003-.003v-.001l-.003.005Z" fill="#0c6066"/><g transform="translate(.465 .246)"><mask id="H" fill="#fff"><use xlink:href="#C"/></mask><path d="M73.994 54.988a15.24 15.24 0 0 1-10.563 4.932 15.274 15.274 0 0 1-11-3.89 15.053 15.053 0 0 1-2.955-3.62l25.63-16.304c4.078 5.645 3.792 13.54-1.112 18.882m-11.18 13.441c-6.033 5.731-13.966 8.888-22.338 8.888s-16.301-3.155-22.333-8.883a32.092 32.092 0 0 1-5.045-6.148c1.723.507 3.508.767 5.297.767 4.409 0 8.832-1.552 12.348-4.7a18.08 18.08 0 0 0 4.367-5.897 1.84 1.84 0 0 0 .142-.258l.004-.009a18.053 18.053 0 0 0 1.543-7.305c.002-4.591-1.757-9.215-5.31-12.774a18.167 18.167 0 0 0-5.176-3.628l-.068-.034c-.094-.043-.189-.082-.284-.124a18.44 18.44 0 0 0-3.765-1.21L38.944 4.402a2.237 2.237 0 0 1 1.796-.885h.01a2.239 2.239 0 0 1 1.798.9l16.416 22.647c-1.335.27-2.626.682-3.854 1.229l-.284.125c-.023.01-.045.022-.068.033-1.883.88-3.64 2.09-5.175 3.628a18.032 18.032 0 0 0-3.766 20.08v.003c.04.092.09.18.145.262a18.089 18.089 0 0 0 4.366 5.898c3.516 3.149 7.94 4.7 12.348 4.7 1.747 0 3.49-.249 5.174-.733a32.055 32.055 0 0 1-5.037 6.14M5.965 36.135l25.63 16.303a15.04 15.04 0 0 1-2.955 3.62 15.271 15.271 0 0 1-11 3.89c-4.073-.196-7.824-1.947-10.563-4.931-4.904-5.343-5.19-13.237-1.112-18.882m2.322-2.532c2.87-2.508 6.478-3.751 10.094-3.753 3.467.002 6.915 1.145 9.697 3.41l.011.008c.387.315.76.653 1.119 1.012l.045.044c.346.348.669.707.973 1.077l.075.09c.292.361.564.733.817 1.111l.083.124a15.2 15.2 0 0 1 .668 1.129l.092.173a14.81 14.81 0 0 1 .526 1.13l.091.222a15.19 15.19 0 0 1 .394 1.126l.079.262a14.794 14.794 0 0 1 .493 2.537l.03.304a15.667 15.667 0 0 1 .016 2.37c-.007.106-.02.21-.03.315a14.999 14.999 0 0 1-.662 3.218l-.01.031L8.101 33.777c.063-.057.121-.117.186-.173m54.404-3.782c3.615 0 7.222 1.244 10.093 3.752.065.057.124.116.187.173L48.183 49.514a14.94 14.94 0 0 1-.669-3.231l-.034-.339a15.068 15.068 0 0 1-.036-1.258 15.56 15.56 0 0 1 .084-1.418 14.985 14.985 0 0 1 1.578-5.262l.1-.188c.204-.378.422-.75.66-1.115l.092-.137a15.22 15.22 0 0 1 .81-1.1c.026-.033.055-.065.082-.098a15.34 15.34 0 0 1 .966-1.07l.05-.05c.358-.357.73-.693 1.114-1.007l.015-.012c2.782-2.263 6.23-3.407 9.696-3.407m13.87 3.113a1.554 1.554 0 0 0-.15-.202 18.574 18.574 0 0 0-1.53-1.5c-.149-.13-.308-.242-.46-.367l-.265-.21a18.357 18.357 0 0 0-3.31-2.086l-.277-.138a18.082 18.082 0 0 0-1.42-.592l-.055-.021a18.526 18.526 0 0 0-6.55-1.128L45.063 2.577a5.355 5.355 0 0 0-4.3-2.153h-.025c-1.705 0-3.27.77-4.296 2.116L18.609 26.723a18.528 18.528 0 0 0-8.107 1.739c-.094.043-.186.093-.28.139a17.834 17.834 0 0 0-1.703.951 17.895 17.895 0 0 0-1.607 1.136l-.261.209c-.153.124-.312.236-.461.366a18.55 18.55 0 0 0-1.529 1.499c-.058.064-.105.134-.153.204-6.033 6.843-6.07 17.245.25 24.13a18.293 18.293 0 0 0 3.618 3.039 34.942 34.942 0 0 0 7.596 10.53c6.619 6.284 15.32 9.745 24.504 9.745s17.89-3.463 24.508-9.751a34.946 34.946 0 0 0 7.554-10.45 18.343 18.343 0 0 0 3.776-3.143c6.32-6.885 6.283-17.288.248-24.13" fill="#0c6066" mask="url(#H)"/></g><path d="m76.875 32.978.003.003-.003-.003Z" fill="#0c6066"/></g></svg>