<svg xmlns="http://www.w3.org/2000/svg" width="128" height="128" fill="none" xmlns:v="https://vecta.io/nano"><path d="M105.5 76.5l.765 2C99.953 96.299 83.412 109 64 109c-26.5 0-46-21.319-46-47 0-13.125 8-29 15.5-33 2.169 17.292 8.476 41.833 10.11 48.034.23.874 1.017 1.466 1.921 1.466H49a2 2 0 0 0 1.92-1.44L57.5 54.5l7.645 33.446a2 2 0 0 0 1.95 1.554h3.94a2 2 0 0 0 1.907-1.398L78.5 70.5l3 6h24z" fill="#00c000"/><path d="M109 62.5c0 2.379-.5 7-1 9.5-7.5.5-23 1-23 1l-5.5-18.5H72L66 75l-6.5-36c-.747-3.734-8.5-2-8.5-2l-7.5 26.5S38 38 36.5 25.69C44.105 19.615 53.644 16 64 16c24.853 0 45 20.819 45 46.5z" fill="#ff8c1a"/></svg>