<svg xmlns="http://www.w3.org/2000/svg" xmlns:xlink="http://www.w3.org/1999/xlink" width="30" height="30" fill="none" xmlns:v="https://vecta.io/nano"><defs><path id="A" d="M0 0h30v30H0z"/><path id="B" d="M0 0h20v20H0z"/></defs><g transform="matrix(1 0 0 1 0 0)"><mask id="D" fill="#fff"><use xlink:href="#A"/></mask><g mask="url(#D)"><g transform="matrix(1 0 0 1 5 5)"><mask id="D" fill="#fff"><use xlink:href="#B"/></mask><g mask="url(#D)"><path fill-rule="evenodd" transform="matrix(1 0 0 1 1.261707 1.265626)" d="M12.12.69C9.95-.23 7.5-.23 5.33.69 3.24 1.58 1.58 3.25.69 5.34.23 6.41 0 7.56 0 8.73v.44c.02.49.21.96.53 1.33a2.32 2.32 0 0 0 1.21.72c1.12.19 2.16.72 2.97 1.53a5.38 5.38 0 0 1 1.53 2.93 2.27 2.27 0 0 0 2.13 1.78h.36a8.6 8.6 0 0 0 3.39-.69c3.24-1.36 5.34-4.53 5.34-8.04 0-1.17-.23-2.32-.69-3.39A8.73 8.73 0 0 0 12.12.69zm-1.826 5.6c-.69-.4-1.42-.7-2.19-.9-.36-.09-.74-.03-1.06.16-.32.18-.56.48-.67.82-.22.76-.33 1.54-.32 2.32 0 .66.11 1.43.32 2.32a1.46 1.46 0 0 0 .66.86c.32.19.71.25 1.07.16a7.83 7.83 0 0 0 2.19-.87c.67-.4 1.28-.88 1.82-1.45.27-.26.41-.62.4-1 .01-.37-.13-.74-.4-1-.54-.56-1.15-1.04-1.82-1.42z" fill="#fe0e50"/></g></g></g></g></svg>