<svg xmlns="http://www.w3.org/2000/svg" width="100" height="100" fill="#fff" xmlns:v="https://vecta.io/nano"><path d="M45.994 41.607h7.717l1.917-2.639V18.294h-11.55v20.675l1.916 2.637m-4.974 9.222l2.384-7.339-1.918-2.639-19.662-6.388-3.569 10.985 19.665 6.389 3.1-1.007m7.232 7.58l-6.242-4.537-3.103 1.01-12.152 16.726 9.344 6.788L48.252 61.67v-3.26m9.445-4.538l-6.244 4.536.001 3.262 12.151 16.726 9.345-6.788L60.797 54.88l-3.1-1.008"/><path d="M56.3 43.488l2.386 7.34 3.102 1.006 19.662-6.387-3.569-10.985-19.663 6.389-1.918 2.636M49.856.35C22.386.35.036 22.696.036 50.162c0 27.476 22.349 49.828 49.819 49.828s49.814-22.352 49.814-49.828C99.669 22.696 77.323.35 49.856.35zm0 10.086c21.936 0 39.727 17.783 39.727 39.726 0 21.95-17.791 39.74-39.727 39.74-21.945 0-39.732-17.791-39.732-39.74 0-21.942 17.787-39.726 39.732-39.726zm30.172 50.798l-14.947-4.857.989-3.045 14.946 4.857-.988 3.045M60.966 37.239l-2.59-1.881 9.236-12.715 2.591 1.881-9.237 12.716M38.9 37.122l-9.236-12.715 2.591-1.882 9.236 12.715-2.591 1.881M19.616 61.043l-.989-3.044 14.945-4.855.988 3.044-14.945 4.855m28.539 20.88h3.201V66.207h-3.201v15.716z"/></svg>