<svg xmlns="http://www.w3.org/2000/svg" xmlns:xlink="http://www.w3.org/1999/xlink" width="16" height="16" fill="none" xmlns:v="https://vecta.io/nano"><style><![CDATA[.B{fill-rule:evenodd}]]></style><defs><path id="A" d="M0 0h16v16H0z"/></defs><g transform="matrix(1 0 0 1 0 0)"><mask id="B" fill="#fff"><use xlink:href="#A"/></mask><g mask="url(#B)" class="B"><g transform="matrix(1 0 0 1 1.88593 1.477984)"><path transform="matrix(1 0 0 1 5.679859 0)" d="M0 0v1.14h1.14V.59H.59V0H0z" fill="#ec1b23"/><path transform="matrix(1 0 0 1 0 1.135969)" d="M8.226 2.268h.31v-.27h-.31v.27zM4.544 3.409h.59v-.55h-.59v.55zM5.68 5.135h1.14v-1.14H5.68v1.14zM1.136 6.27h.27v-.32h.32v-.27h-.59v.59zM4.54 0h3.41v.59h1.14v.55h.58l.01.58h.54v1.14V4h.59.55v.54h.59v.59l.28.03-.01 2.24h-.86-.55v-.58h-.59v2.25l-.54.02-.01.57-.58.02-.01.53-.54.01h-.59-3.41H4h-.58l-.02-.54-.53-.01-.01-.58c-.19 0-.39-.01-.58-.01l-.01-2.26h-.55v.58h-.58H0V5.13h.59v-.59h.55V4h.58.55V2.86 1.72h.59v-.58h.55V.59h1.13V0m2.863 1.136v.59h.27v-.32h.28v-.27h-.55M6.267 2.859v.82h.27v-.27h.55v-.28h-.27v-.27h-.55m1.136 0v.55h.55v-.55h-.55" fill="#fff200"/><g transform="matrix(1 0 0 1 1.135984 2.271922)" fill="#fff20a"><path transform="matrix(1 0 0 1 6.267391 0)" d="M0 0v.59h.27V.27h.28V0H0z"/><path transform="matrix(1 0 0 1 0 4.543891)" d="M0 .59h.27V.27h.32V0H0v.59z"/></g><path transform="matrix(1 0 0 1 8.226 3.133703)" d="M0 .27h.31V0H0v.27z" fill="#fef20b"/><g transform="matrix(1 0 0 1 1.136 3.995295)" fill="#ffc90d"><path transform="matrix(1 0 0 1 .587531 .000174)" d="M0 0v1.14h.55V0H0z"/><path transform="matrix(1 0 0 1 9.087561 0)" d="M0 1.14h.59V0H0v1.14z"/><path transform="matrix(1 0 0 1 0 3.956312)" d="M1.72 2.28l-.57-.02L1.14 0H.59v.59H0v.55h.59v1.13h.55v.59h.58v.55h.55V4h.59v-.59l-.57-.01-.02-.54c-.18 0-.36 0-.53-.01l-.02-.57z"/></g><g transform="matrix(1 0 0 1 4.543891 3.995078)" fill="#333"><path transform="matrix(1 0 0 1 0 0)" d="M0 .55h.59V0H0v.55z"/><path transform="matrix(1 0 0 1 2.859109 0)" d="M.55.55H0V0h.55v.55z"/></g><path transform="matrix(1 0 0 1 6.267422 3.995094)" d="M.27.82V.55h.55V.27H.55V0H0v.82h.27z" fill="#fff10b"/><path transform="matrix(1 0 0 1 5.679844 5.131438)" d="M0 1.14h1.14V0H0v1.14z" fill="#ff7f26"/><path transform="matrix(1 0 0 1 8.539313 7.951766)" d="M2.82.59h-.55V0h-.59v2.26l-.54.02-.01.57-.58.01-.01.54-.54.01V4h.55v-.59h.59v-.55h.54v-.59h.59V1.14h.55V.59z" fill="#fec90d"/><g transform="matrix(1 0 0 1 3.407953 11.358484)" fill="#323232"><path transform="matrix(1 0 0 1 0 .000391)" d="M.59 1.14H0v.55h1.72v-.55h-.58V0H.59v1.14z"/><path transform="matrix(1 0 0 1 3.995063 0)" d="M.55 1.14H0v.55h1.69l-.01-.55h-.54V.59 0H.55v.59.55z"/></g><path transform="matrix(1 0 0 1 4.543484 11.359551)" d="M0 .59h3.41V0H0v.59z" fill="#ffc80d"/></g></g></g></svg>