<svg xmlns="http://www.w3.org/2000/svg" width="32" height="32" fill="none" xmlns:v="https://vecta.io/nano"><path fill-rule="evenodd" d="M19.355 5.335l6.3 11.84a1.38 1.38 0 0 1 0 1.28l-3.99 7.5c-.24.44-.7.72-1.21.72h-8.91c-.51 0-.97-.28-1.21-.72l-3.99-7.5a1.38 1.38 0 0 1 0-1.28l6.3-11.84a.91.91 0 0 1 1.23-.37.83.83 0 0 1 .37.37l1.75 3.29 1.76-3.29c.23-.44.78-.61 1.22-.37.16.08.29.21.38.37zm-.796 8.105l-1.29 2.42.53.99a2.04 2.04 0 0 1 .24.96h.01v.04c-.02 1.12-.93 2.01-2.05 2.01-1.13 0-2.04-.91-2.04-2.04v-.01a1.87 1.87 0 0 1 .04-.4v-.03a2.05 2.05 0 0 1 .22-.57v-.01l1.78-3.34v.01l1.29-2.42.86-1.63c.05-.08.11-.14.19-.19.22-.11.5-.03.61.19l4.3 8.07a.66.66 0 0 1 0 .64l-3.15 5.91c-.12.22-.35.36-.6.36h-7c-.25 0-.48-.14-.6-.36l-3.15-5.91a.66.66 0 0 1 0-.64l4.3-8.07a.47.47 0 0 1 .18-.19c.23-.11.5-.03.62.19l.86 1.63-2.52 4.73c-.12.23-.22.46-.29.7l-.01.03-.04.11c-.11.38-.17.78-.17 1.2a4.33 4.33 0 0 0 4.32 4.32 4.32 4.32 0 0 0 4.32-4.32 4.23 4.23 0 0 0-.56-2.13l-1.2-2.25z" fill="#fff"/></svg>