<svg xmlns="http://www.w3.org/2000/svg" viewBox="0 0 1024 1024" width="128" height="128" fill="#fff" xmlns:v="https://vecta.io/nano"><path d="M500.6 212.2c100.1 0 190.8 40.6 256.4 106.2s106.2 156.3 106.2 256.4S822.6 765.6 757 831.2 600.7 937.4 500.6 937.4s-190.8-40.6-256.4-106.2S138 674.9 138 574.8 178.6 384 244.2 318.4s156.3-106.2 256.4-106.2zM731 344.4c-59-59-140.4-95.4-230.4-95.4s-171.4 36.5-230.4 95.4c-59 59-95.4 140.4-95.4 230.4s36.5 171.4 95.4 230.4c59 59 140.4 95.4 230.4 95.4S672 864.1 731 805.2c59-59 95.4-140.4 95.4-230.4S790 403.4 731 344.4zm52.2 203.9c-.9-10.1-9.8-17.5-19.9-16.6s-17.5 9.8-16.6 19.9l.8 11.5 18.3-.8-18.4.9c0 .4.1.9.1 1.3l.2 10.3c0 60.3-21.7 116.1-58.1 159.4-36.5 43.3-87.8 74-147.2 84.2-10 1.7-16.7 11.2-15 21.2s11.2 16.7 21.2 15c68.1-11.7 127.1-47.1 169-96.9 42-49.8 66.9-113.9 66.9-182.9 0-3.4-.1-7.3-.3-11.9v-1.4h-.1c-.1-4.2-.4-8.6-.9-13.2z"/><path d="M561.5 323.4c-4.5 9.1-.9 20.1 8.2 24.6s20.1.9 24.6-8.2c23.8-47.5 34-92.6 31.9-135.3-2.2-43.2-16.8-83.8-42.5-121.8-5.7-8.4-17.1-10.6-25.5-5-8.4 5.7-10.6 17.1-5 25.5 22 32.6 34.5 66.8 36.3 103 1.8 36.6-7.2 75.5-28 117.2z"/><path d="M618.7 194.1c53.3-18.9 102.1-15.3 146.3 11.4 42.4 25.7 79.6 72.7 111.5 141.7L888 372l-27.4 1.2c-75.9 3.2-134.7-8.4-176.9-34.4-44-27.1-69.5-68.9-77-124.9l18.2-2.5-6.2-17.3zm127.4 42.8c-30.2-18.3-63.7-22.4-100.4-12.8 8.2 37 27.2 64.9 57.2 83.4 30.7 18.9 73.1 28.8 127.7 29.4-25.5-48.1-53.7-81.4-84.5-100z"/></svg>