<svg xmlns="http://www.w3.org/2000/svg" xmlns:xlink="http://www.w3.org/1999/xlink" width="42" height="42" fill="none" xmlns:v="https://vecta.io/nano"><defs><path id="A" transform="matrix(1 0 0 1 0 0)" d="M0 31.75h31.75V0H0v31.75z"/></defs><g transform="translate(5 5.127)"><mask id="B" fill="#fff"><use xlink:href="#A"/></mask><g mask="url(#B)"><path fill-rule="evenodd" transform="matrix(1 0 0 1 0 -.000176)" d="M27.597 15.877a11.73 11.73 0 0 0-11.72-11.73 11.73 11.73 0 0 0-11.73 11.73 11.73 11.73 0 0 0 11.73 11.72c6.47 0 11.72-5.25 11.72-11.72zM4.65 27.1c1.45 1.45 3.15 2.6 5.04 3.4 1.96.83 4.04 1.25 6.18 1.25s4.22-.42 6.18-1.25a20.52 20.52 0 0 0 .46-.21 1.8 1.8 0 0 0 1.05-1.79c-.02-.25-.02-.5 0-.75a4.98 4.98 0 0 1 4.6-4.6 5.42 5.42 0 0 1 .57 0c.76.03 1.47-.39 1.76-1.08 0-.01.01-.01.01-.02.82-1.96 1.25-4.04 1.25-6.18s-.43-4.22-1.25-6.18c-.8-1.89-1.95-3.58-3.4-5.04-1.46-1.46-3.16-2.6-5.05-3.4C20.09.42 18.01 0 15.87 0s-4.22.42-6.18 1.25a15.68 15.68 0 0 0-5.04 3.4 15.79 15.79 0 0 0-3.4 5.04C.42 11.65 0 13.73 0 15.87s.42 4.22 1.25 6.18c.8 1.89 1.94 3.59 3.4 5.05z" fill="#0d3cfb"/></g><g fill-rule="evenodd"><path d="M28.496 24.594c-1.93 0-3.5 1.57-3.5 3.5 0 1.94 1.57 3.51 3.5 3.51a3.5 3.5 0 1 0 0-7.01z" fill="#e10602"/><path d="M16.881 20.907a1.52 1.52 0 0 0 2.27 1.308l4.412-2.546a2.52 2.52 0 0 0 1.252-2.185V14.26c.007-.898-.474-1.732-1.259-2.178l-4.405-2.553a1.52 1.52 0 0 0-2.27 1.308v1.584c.007.672.361 1.294.94 1.633l3.041 1.754-3.033 1.747a1.9 1.9 0 0 0-.948 1.64v1.711zm-8.699-1.238l4.412 2.546a1.52 1.52 0 0 0 2.27-1.308v-1.711a1.9 1.9 0 0 0-.948-1.64l-3.033-1.747 3.041-1.754a1.91 1.91 0 0 0 .94-1.633v-1.584a1.52 1.52 0 0 0-2.27-1.308l-4.405 2.553c-.785.445-1.266 1.28-1.259 2.178v3.224a2.52 2.52 0 0 0 1.252 2.185z" fill="#0d3cfb"/></g></g></svg>