<svg xmlns="http://www.w3.org/2000/svg" width="230" height="400" xmlns:v="https://vecta.io/nano"><style><![CDATA[.B{stroke-opacity:NaN}.C{stroke-width:1.5}.D{stroke-width:5}]]></style><g fill="#fff" stroke="null"><path d="M8.527 104.468h48v189.003h-48z" class="C"/><ellipse cx="32.432" cy="292.801" rx="24.27" ry="24" class="B D"/><path d="M62.527 104.468h48v224.73h-48z" class="C"/><g class="D B"><ellipse cx="86.486" cy="328.921" rx="24.27" ry="24"/><ellipse cx="139.873" cy="361.95" rx="24.27" ry="24"/></g><path d="M115.86 104.468h48v259.456h-48z" class="C"/><circle cx="195.405" cy="275.202" r="24" class="B D"/><g class="C"><path d="M171.527 106.468h48v170.142h-48z"/><path d="M8.527 104.468h210v110h-210z"/><ellipse cx="114.027" cy="107.05" rx="105.541" ry="105" class="B"/></g></g><g fill="#222224"><path d="M88.281 137.081c1.217 18.973 17.348 21.081 25.869 21.081s24.043.422 28-20.238" stroke="#222224" class="D"/><circle cx="163.216" cy="100.252" r="11.622"/><circle cx="64.702" cy="100.117" r="11.622"/></g></svg>