<svg xmlns="http://www.w3.org/2000/svg" width="167.274" height="24.192" fill="#5433ff" xmlns:v="https://vecta.io/nano"><path d="M64.271 14.073L63.112 17.3h-8.827a.39.39 0 0 0-.4.373v.029c.104.775.492 1.484 1.09 1.988a.61.61 0 0 0 .1.07 5.86 5.86 0 0 0 3.25.687h5.561c.102-.005.202.032.278.102a.38.38 0 0 1 .122.269c.002.046-.005.092-.019.136l-1.159 3.232h-5.344a13.7 13.7 0 0 1-3.55-.376c-.924-.257-1.795-.676-2.572-1.238-2.275-1.74-3.529-4.502-3.343-7.36-.04-1.987.581-3.932 1.764-5.529a6.74 6.74 0 0 1 2.893-2.292c1.42-.503 2.921-.734 4.426-.683h6.5a.39.39 0 0 1 .278.102c.075.069.119.167.122.27.002.046-.004.092-.019.135l-1.159 3.228h-5.339c-.981-.091-1.966.127-2.817.622a.6.6 0 0 0-.124.1 3.53 3.53 0 0 0-.939 2c-.013.207.143.386.35.4.015.001.03.001.045 0h9.622c.212-.004.387.163.393.374 0 .046-.008.091-.024.134zM16.517 6.709h4.513a.4.4 0 0 1 .427.377v16.675a.4.4 0 0 1-.42.385h-4.52a.4.4 0 0 1-.426-.378V7.091a.4.4 0 0 1 .42-.384zm-.426-2.385V.388a.4.4 0 0 1 .419-.385h4.521a.4.4 0 0 1 .427.378v3.943a.4.4 0 0 1-.42.385h-4.52a.4.4 0 0 1-.426-.378v-.008zm17.263 9.24l6.006-6.856h5.741a.4.4 0 0 1 .408.4.4.4 0 0 1-.1.273l-7.425 7.764 7.123 8.351a.4.4 0 0 1-.063.565.41.41 0 0 1-.257.088h-5.81l-5.69-6.994c-.88-1.045-.852-2.58.067-3.591zM31.852.399l.011 23.36a.4.4 0 0 1-.4.387h-4.24a.39.39 0 0 1-.4-.383V.388a.39.39 0 0 1 .12-.275c.075-.072.176-.111.28-.109h4.232a.4.4 0 0 1 .397.395zM.412.001h4.5a.39.39 0 0 1 .4.377v13.188q.114 2.57.227 3.4c.093 1.001.727 1.87 1.652 2.263a13.77 13.77 0 0 0 4.882.6h-.257v4.306h-.306c-1.95.061-3.902-.084-5.821-.435-2.557-.581-4.582-2.531-5.259-5.065a21.6 21.6 0 0 1-.413-5.064V.391a.4.4 0 0 1 .395-.39zm155.463 24.192h-4.789V6.789h9.22a12.52 12.52 0 0 1 3.162.3 5.03 5.03 0 0 1 1.984 1.09c1.209 1.114 1.822 2.893 1.822 5.289v10.723h-4.788V12.935c.061-.67-.145-1.338-.572-1.858a2.62 2.62 0 0 0-1.894-.571h-4.145v13.686zm-28.946 0h-4.789V10.505h-5.146v13.687h-4.789V6.789h17.583a14.2 14.2 0 0 1 3.645.357c.802.221 1.53.653 2.108 1.25 1.105 1.315 1.668 3.002 1.572 4.717v11.078h-4.789V13.864c.017-.586-.018-1.172-.107-1.752a1.79 1.79 0 0 0-.5-.893c-.63-.52-1.437-.776-2.251-.715h-2.537v13.688zm19.44 0h-4.788V6.789h4.788v17.4zm-38.844 0h-8.22c-1.274.044-2.549-.089-3.787-.393-1.963-.597-3.601-1.963-4.539-3.788a9.61 9.61 0 0 1-1.036-4.646 8.5 8.5 0 0 1 3-6.932 8.07 8.07 0 0 1 5.326-1.645h2.219v3.717h-1.183a4.12 4.12 0 0 0-3.466 1.536c-.721.954-1.087 2.129-1.037 3.324-.151 1.612.488 3.197 1.716 4.253a4.63 4.63 0 0 0 2.786.858h3.467v-8.791h.022V5.925h-.022V.356h4.753v23.835zm-20.905 0H76.541c-1.253.027-2.506-.026-3.752-.161a4.72 4.72 0 0 1-1.822-.662 4.89 4.89 0 0 1-2.108-4.324 5.92 5.92 0 0 1 .839-3.128 4.29 4.29 0 0 1 2.234-1.876c1.317-.346 2.678-.49 4.038-.428h5.861c.107-.888-.158-1.781-.733-2.466-.874-.527-1.897-.753-2.912-.643H70.11V6.789h8.076l3 .089c.569.063 1.131.177 1.68.339a5.3 5.3 0 0 1 2.921 2.546 9.27 9.27 0 0 1 .831 4.637v9.79zM75.505 17.33a1.9 1.9 0 0 0-1.3.429 1.5 1.5 0 0 0-.482 1.179c-.038.472.189.926.59 1.179a4.16 4.16 0 0 0 2.019.358h5.5V17.33h-6.327zm70.863-12.328h-4.787V.356h4.788v4.645z"/></svg>