<svg xmlns="http://www.w3.org/2000/svg" viewBox="0 0 1024 1024" width="128" height="128" xmlns:v="https://vecta.io/nano"><path d="M535.235 715.374c83.526 68.83 193.29 22.738 258.239-49.094 5.082-5.615 10.832-10.654 16.903-15.457 27.498-1.294 57.372 1.81 81.869 15.457 0 0-43.911 33.163-60.602 69.557 0 0 49.238 10.029 87.906-14.324 0 0-4.854 58.176-46.058 108.47a423.278 423.278 0 0 1-41.839 10.451c-253.918 50.033-326.984-94.273-326.984-94.273l30.568-30.787z" fill="#d45136"/><path d="M831.643 735.836c16.692-36.394 60.602-69.557 60.602-69.557-24.496-13.648-54.37-16.751-81.869-15.457 71.679-56.603 204.671-58.742 204.671-58.742s62.294 175.406-141.558 237.903c41.213-50.295 46.058-108.47 46.058-108.47-38.668 24.353-87.906 14.324-87.906 14.324z" fill="#d8d8d8"/><path d="M690.77 666.246c0 162.156 0 295.41-293.609 293.601h-5.369C98.191 979.979 98.191 828.402 98.191 666.246v-4.786c0-162.147 131.445-293.592 293.601-293.592h5.369c162.147 0 293.609 131.445 293.609 293.592v4.786zM556.264 169.343s76.296-106.99 223.452-106.99c0 0 14.806 138.759-79.222 246.037" fill="#e76541"/><path d="M557.626 200.604s59.14-82.942 173.216-82.942c0 0 11.474 107.566-61.423 190.719" fill="#e49788"/><path d="M224.308 169.343S148.012 62.353.848 62.353c0 0-14.806 138.759 79.23 246.037" fill="#e76541"/><path d="M222.947 200.604s-59.14-82.942-173.216-82.942c0 0-11.474 107.566 61.423 190.719" fill="#e49788"/><path d="M394.463 109.756s-309.641 0-385.253 390.892c0 0 289.237-58.455 385.261 91.432 78.004-134.277 385.244-91.432 385.244-91.432-75.611-390.892-385.253-390.892-385.253-390.892z" fill="#e76541"/><path d="M176.973 194.609s45.255 20.159 111.87 117.374c70.758 103.279 54.65 229.151 54.65 229.151s-85.851-61.981-334.281-40.478c0-.008 16.793-194.076 167.762-306.047zm436.562 0s-45.264 20.159-111.87 117.374c-70.758 103.279-54.658 229.151-54.658 229.151s85.851-61.981 334.29-40.478c-.008-.008-16.793-194.076-167.762-306.047z" fill="#d8d8d8"/><path d="M523.853 357.171a32.402 32.402 0 1 0 64.805 0 32.402 32.402 0 1 0-64.805 0z" fill="#434849"/><path d="M557.626 350.922a12.235 12.235 0 1 0 24.471 0 12.235 12.235 0 1 0-24.471 0z" fill="#fff"/><path d="M201.833 357.171a32.402 32.402 0 1 0 64.805 0 32.402 32.402 0 1 0-64.805 0z" fill="#434849"/><path d="M234.244 350.922a12.235 12.235 0 1 0 24.471 0 12.235 12.235 0 1 0-24.471 0z" fill="#fff"/><path d="M445.435 541.134a50.963 50.963 0 0 1-101.926 0" fill="#434849"/></svg>