<svg xmlns="http://www.w3.org/2000/svg" viewBox="0 0 1024 1024" width="128" height="128" fill="#06e9b9" xmlns:v="https://vecta.io/nano"><path d="M266.256 652.502a25.61 25.61 0 0 1-18.11-7.502L82.291 479.137a25.61 25.61 0 0 1 .006-36.226l.743-.743c10.004-9.999 26.221-9.995 36.221.012a25.6 25.6 0 0 1 4.401 5.887l142.594 142.602 112.42-112.428-147.745-147.744c-10.002-10.002-10.002-26.218 0-36.221s26.218-10.002 36.221 0L433.007 460.13c10.002 10.002 10.002 26.218 0 36.22L284.367 645c-4.803 4.803-11.318 7.502-18.111 7.502zm229.48-220.609c-6.555 0-13.109-2.5-18.11-7.502L311.773 258.536c-10.002-10.002-10.002-26.218 0-36.221l148.64-148.638a25.61 25.61 0 0 1 36.221 0L662.487 239.54c4.802 4.803 7.501 11.318 7.501 18.11a25.61 25.61 0 0 1-7.502 18.109L513.847 424.392c-5.001 5-11.556 7.501-18.11 7.501zM366.105 240.426l129.632 129.635 112.419-112.412-129.633-129.641-112.418 112.417zM546.068 956.51a25.61 25.61 0 0 1-18.111-7.502L362.122 783.155c-10.001-10.002-10.001-26.218.001-36.221l148.638-148.64a25.62 25.62 0 0 1 18.11-7.501c6.791 0 13.308 2.699 18.111 7.502l165.835 165.852c10 10.002 10 26.218-.001 36.22L564.179 949.008a25.61 25.61 0 0 1-18.11 7.502zM416.452 765.045l129.617 129.631 112.417-112.42-129.616-129.63-112.418 112.419zm359.116-29.124c-6.555 0-13.11-2.5-18.11-7.502L591.605 562.562c-10.001-10.001-10.001-26.217 0-36.22l148.641-148.649a25.61 25.61 0 0 1 36.222.001l165.833 165.864c10.001 10.003 10 26.219-.003 36.221s-26.219 10-36.221-.003L758.355 432.027 645.936 544.452 793.68 692.2c10.002 10.002 10.001 26.218-.001 36.221-5 5-11.556 7.5-18.11 7.5z"/><path d="M690.763 488.791a25.53 25.53 0 0 1-18.109-7.501l-126.13-126.12c-10.002-10.001-10.003-26.218-.001-36.221s26.217-10.003 36.221-.001l126.13 126.12c10.002 10.001 10.003 26.218.001 36.221-5.001 5.001-11.556 7.502-18.111 7.502zM460.548 706.393a25.53 25.53 0 0 1-18.109-7.501L319.541 576.005c-10.002-10.001-10.003-26.218-.001-36.221s26.218-10.002 36.221-.001l122.896 122.888c10.002 10.001 10.003 26.218.001 36.221-5.001 5.002-11.556 7.502-18.11 7.502z"/></svg>