<svg xmlns="http://www.w3.org/2000/svg" width="35" height="37" xmlns:v="https://vecta.io/nano"><defs><linearGradient x1="50%" y1="0.384646046%" x2="50%" y2="131.020006%" id="A"><stop stop-color="#617be0" offset="0%"/><stop stop-color="#734cb9" offset="100%"/></linearGradient></defs><g fill-rule="evenodd"><path d="M33.917 6.935c-.718.502-1.171.767-1.862.928.061-.932.326-2.099.947-3.426l.616-1.317-1.224.782c-.382.244-1.201.572-1.996.89l-1.165.481C26.47 1.95 22.18.079 16.746.079 9.477.079 4.035 3.804 1.844 9.791l-.361.114a.48.48 0 0 0-.277.244c-2.019 4.118-.767 6.57-.712 6.671a.47.47 0 0 0 .326.238c.396 10.959 7.125 19.41 15.669 19.41 9.116 0 15.591-7.654 16.167-18.805.012 0 .023.011.036.011.072 0 .146-.017.214-.051.142-.07.239-.203.263-.36.278-1.913.087-3.377-.206-4.445.862-1.341 1.193-3.205 1.409-4.449.072-.415.136-.773.195-.966l.367-1.18-1.017.712h0z" fill="url(#A)"/><path d="M29.82 21.869c-2.28 8.799-6.466 3.735-12.593 3.735S5.793 31.468 3.795 21.869c-1.417-6.807 6.885-5.513 13.012-5.513s14.699-1.002 13.013 5.513h0 0z" fill="#fff"/><path d="M11.17 22.411c0 .894-.725.121-1.619.121s-1.618.773-1.618-.121a1.62 1.62 0 0 1 1.618-1.618 1.62 1.62 0 0 1 1.619 1.618h0 0zm14.391 0c0 .894-.725.121-1.618.121s-1.619.773-1.619-.121a1.62 1.62 0 0 1 1.619-1.618 1.62 1.62 0 0 1 1.618 1.618h0 0z" fill="#6c60c9"/><g fill="#fff"><path d="M28.057 6.351c.858-.646 3.654-1.513 4.561-2.091-.67 1.43-.949 2.686-.998 3.693-.021.002-.034.008-.055.01l-.37.063v.011l-.159.038c-.96.193-1.911.577-2.718 1.112L26.4 8.649c.222-.867.83-1.678 1.657-2.299h0 0z"/><path d="M32.794 12.268c-.309-.877-.657-1.377-.727-1.473l-.01-.012c-.007-.009-.015-.011-.022-.017a.41.41 0 0 0-.142-.114 26.6 26.6 0 0 0-3.049-1.282c.862-.508 1.852-.854 2.78-.987 1.106-.161 1.618-.46 2.536-1.1-.237.763-.415 3.248-1.366 4.985h0 0zm-.104 4.928s-14.186-7.875-31.774-.6c0 0-1.214-2.29.722-6.237 0 0 17.097-5.756 30.041.72 0 0 1.604 2.038 1.01 6.117h0 0z"/></g></g></svg>