<svg xmlns="http://www.w3.org/2000/svg" width="108" height="97" xmlns:v="https://vecta.io/nano"><path fill-rule="evenodd" stroke-width="3" stroke="#fff" fill="#fff" d="M100.524 71.035c.113-.739-.384-1.37-1.5-1.927-1.641-.818-2.777-6.48-3.722-18.016.101-8.096-.183-15.449-.873-22.095s-1.695-10.336-2.903-10.736c-2.235-.745-3.826-.977-4.755-.697s-1.908.905-2.921 1.9c-5.649 6.465-10.79 15.078-15.255 25.982-1.455 3.39-2.978 7.086-4.546 11.132l-3.034 8.036c-.734-1.636-1.565-4.596-2.531-8.967s-1.809-8.937-2.505-13.659c-.906-6.633-2.155-12.57-3.773-17.855s-3.097-8.148-4.325-8.387c-3.886-.766-6.98.763-9.119 4.814-2.144 4.045-3.868 10.395-5.062 19.212l-.706 5.528c-1.306 9.867-2.184 20.066-2.691 30.472-.516-3.377-2.164-11.524-5.27-24.951l-2.199-9.145-.904-4.409c-1.858-8.391-3.578-15.47-5.121-21.165s-2.739-8.651-3.522-8.766c-1.666-.246-3.156-.032-4.449.663s-1.835 1.763-1.629 3.174c.053.376.628 2.019 1.698 4.895 3.56 9.126 6.549 18.68 9.071 28.785l5.879 24.358c2.109 9.101 3.289 14.913 3.687 17.66.471 2.726 1.286 3.898 2.457 3.537.806-.245 1.679-.919 2.637-1.997s1.435-2.083 1.422-3.045c.735-16.592 1.956-27.973 3.217-34.869 1.201-8.867 2.504-15.438 3.759-19.969s2.769-7.257 4.473-8.306c.608 1.243 1.954 7.075 3.835 17.102l.963 4.836c.864 4.809 2.022 10.16 3.412 15.93l2.54 10.135c.335.911.622 1.436.862 1.582s.753.161 1.544.046c.631-.092 1.399-.437 2.31-1.022s1.686-1.154 2.328-1.718c1.04-.817 2.252-2.807 3.689-5.845 1.437-3.028 3.596-8.467 6.708-15.705 2.839-6.728 5.481-11.752 7.797-15.406 2.316-3.647 4.074-5.917 5.19-7.065 1.153.645 2.185 9.991 2.642 26.695.412 5.484.883 10.215 1.422 14.224s1.096 6.298 1.718 7.011c.194.345.563.518 1.11.523s1.296-.056 2.251-.18c1.113-.145 2.158-.492 3.14-1.025s1.502-.959 1.554-1.305h0 0z"/></svg>