<svg xmlns="http://www.w3.org/2000/svg" xmlns:xlink="http://www.w3.org/1999/xlink" width="693" height="528" xmlns:v="https://vecta.io/nano"><path d="M693 283.5v221.81c-.015 12.525-10.165 22.675-22.69 22.69H500.17l1.58-2L691 286.04z" fill="#f2f2f2"/><g fill="#e6e6e6"><path d="M270.812 205.368H75.443a6.04 6.04 0 0 0-6.036 6.036 6.04 6.04 0 0 0 6.036 6.036h195.369a6.04 6.04 0 0 0 6.036-6.036 6.04 6.04 0 0 0-6.036-6.036zm-134.794-33.844H75.443a6.04 6.04 0 0 0-6.036 6.036 6.04 6.04 0 0 0 6.036 6.036h60.575a6.04 6.04 0 0 0 6.036-6.036 6.04 6.04 0 0 0-6.036-6.036zM670.31 0H22.69C10.165.015.015 10.165 0 22.69v482.62c.015 12.525 10.165 22.675 22.69 22.69h647.62c12.525-.015 22.675-10.165 22.69-22.69V22.69C692.985 10.165 682.835.015 670.31 0zM691 505.31A20.69 20.69 0 0 1 670.31 526H22.69A20.69 20.69 0 0 1 2 505.31V157.676C2 71.698 71.698 2 157.676 2H670.31A20.69 20.69 0 0 1 691 22.69zM629.89 87.269H63.16a1 1 0 1 1 0-2h566.73a1 1 0 1 1 0 2z"/><ellipse cx="91.515" cy="48.603" rx="8.457" ry="8.645"/><ellipse cx="120.729" cy="48.603" rx="8.457" ry="8.645"/><ellipse cx="149.942" cy="48.603" rx="8.457" ry="8.645"/><path d="M183.254 55.436a1 1 0 0 1-.715-.301l-5.706-5.833a1 1 0 0 1 0-1.398l5.706-5.833a1 1 0 1 1 1.43 1.399l-5.022 5.133 5.022 5.134a1 1 0 0 1-.715 1.699zm9.588 0a1 1 0 0 1-.715-1.699l5.021-5.134-5.021-5.133a1 1 0 0 1 1.43-1.398l5.706 5.833a1 1 0 0 1 0 1.398l-5.706 5.833a1 1 0 0 1-.715.301z"/><use xlink:href="#B"/><use xlink:href="#B" x="-26"/><use xlink:href="#B" x="24.5" y="0.5"/><path d="M388.93 45.499h-84.81a2.67 2.67 0 1 0 0 5.34h84.81a2.67 2.67 0 1 0 0-5.34z"/></g><path d="M161.607 410.446l-50.717-1.603c-7.034-.222-14.944-.211-19.962 3.424-5.694 4.126-4.832 11.435-.104 16.176s12.277 7.45 19.686 9.652c39.364 11.7 82.929 14.075 125.229 11.428s83.73-10.131 124.955-17.59c3.91-.707 8.341-1.725 9.936-4.446 1.542-2.632-.476-5.807-3.611-7.508s-7.109-2.275-10.943-2.781a1027.71 1027.71 0 0 0-209.501-5.976" fill="#6190e8"/><path d="M252.73 371.44v-12c-8.708.123-39.87-.089-48 0-.605 41.941-4.313 33.725 30.048 33.888 3.288.012 5.948 2.679 5.952 5.967v.18c0 3.294-2.671 5.965-5.965 5.965H204.73v12h48c.067-.04-.049-11.587 0-12 2.03-34.765-1.986-22.261-31.166-23.656-2.712-.139-4.838-2.38-4.835-5.095v-.15a5.1 5.1 0 0 1 5.1-5.1zm59 0v-12c-8.708.123-39.87-.089-48 0-.61 42.305-4.378 33.579 30.952 33.895a5.1 5.1 0 0 1 5.048 5.1v1.907a5.1 5.1 0 0 1-5.1 5.098h-30.9v12h48c.067-.04-.049-11.587 0-12 2.03-34.765-1.986-22.261-31.166-23.656-2.712-.139-4.838-2.38-4.835-5.095v-.15a5.1 5.1 0 0 1 5.1-5.1zm-121 0v-12h-48v50c-9.409 15.929 44.042 4.901 48.003 8.004-.003-.004-.003-12.004-.003-12.004-36.521-.191-37.439 6.646-36.264-26.43.147-4.221 3.61-7.568 7.834-7.571l28.43.001z" fill="#3f3d56"/><path d="M285.607 267.112l-50.717-1.336c-7.034-.185-14.944-.176-19.962 2.854-5.694 3.439-4.832 9.532-.104 13.484s12.277 6.21 19.686 8.046c39.364 9.753 82.929 11.733 125.229 9.526s83.73-8.445 124.955-14.663c3.91-.59 8.341-1.438 9.936-3.706 1.542-2.194-.476-4.84-3.611-6.258s-7.109-1.896-10.943-2.318c-69.565-7.61-139.652-9.277-209.501-4.981" fill="#6190e8"/><path d="M276.73 214.44c-.817 18.526 5.992 24.358-17.501 21.998-1.587-11.052 6.462-26.39-11.999-22.496 3.698 8.018-10.303 68.844 11.996 57.995 1.252-18.275-7.002-26.29 17.504-23.494 1.965 11.297-7.207 27.921 11.999 23.996-3.698-8.021 10.303-68.842-11.999-57.998zm123 0c1.647 1.017-15.09 18.724-15.452 20.175-.502-1.238-16.477-18.562-14.548-20.174-22.23-10.985-8.375 50.195-12.004 58.002.004-.003 12.004-.003 12.004-.003v-37.998c16.867 22.75 13.735 18.922 30-1.117v39.115c22.229 10.989 8.376-50.199 12.004-58.003-.004.003-12.004.003-12.004.003zm-53 0h-48c-2.82 16.822 6.505 11.18 18.002 12l-.002 46h12v-46c11.443-.778 20.856 4.748 18-12zm87 46a128.28 128.28 0 0 1 0-46h-12l-.014 52.312a5.71 5.71 0 0 0 5.706 5.713l42.309-.024v-12z" fill="#3f3d56"/><path d="M127.181 262.44H78.407a9 9 0 1 0 0 18h48.774a9 9 0 1 0 0-18z" fill="#e6e6e6"/><path fill="#ffb6b6" d="M569.392 517.568l-9.901-.001-4.71-38.19 14.613.001-.002 38.19z"/><use xlink:href="#C" fill="#2f2e41"/><path fill="#ffb6b6" d="M604.392 517.568l-9.901-.001-4.71-38.19 14.613.001-.002 38.19z"/><g fill="#2f2e41"><use xlink:href="#C" x="35"/><path d="M544.739 309.48s-9.526 29.258-7.768 33.109 4.758.851 1.758 3.851-5.619-.189-2.809 4.906 7.066 47.034 8.938 49.064 4.446 2.085 2.159 4.057-5.287-2.027-2.287 1.973 10.961 96.276 10.961 96.276h15.551s3.873-4.465 1.681-7.37.192-4.025 0-5.965.537-6.123.672-8.031 2.764-47.378-3.551-73.643l11.514-50.012 5.757 60.446s-6.416 50.702 0 67.001c0 0-5.172 4.307-2.878 6.803s4.294.496 2.294 2.496 3 9 3 9l17-1 9.622-94.734s1.622-9.88 0-11.573-1.622 4.307-1.622-1.693v-8l7.125-52.102c-.125-2.898-12.125-23.898-12.125-23.898z"/></g><path d="M595.019 191.147l-24.823-1.707-7.428 11.712-17.889 7.273v57.695a55.6 55.6 0 0 1 2.85 17.321c-.068 11.495-3.023 25.035-2 28 10 29 65 0 65 0l-1-31 1.357-70.059-11.239-8.964z" fill="#e6e6e6"/><path d="M543.733 322.005l-1.712-18.241-10.557-.476 2.496 19.221c-1.778 2.623-1.265 6.168 1.183 8.18s6.026 1.827 8.254-.426 2.374-5.832.335-8.258z" fill="#ffb6b6"/><path d="M548.928 206.886l-.293.05a16.99 16.99 0 0 0-12.585 9.628c-3.023 6.538-12.84 49.517-8.537 55.998 3.338 5.027 2.527 4.046.958 7.838s-4.096-.254-2.025 5.764 4.347 5.159 2.424 7.485-3.894 1.869-2.025 5.764 1.566 5.209 1.919 6.675.046 11.782.046 11.782 11.276-.855 16.888 1.827c0 0-3.131-10.418-1.361-12.086s3.894-1.869 2.378-4.297-4.954-2.53-1.212-3.742 2.537-22.956 2.537-22.956c6.163-16.141 3.728-42.689.886-69.729z" fill="#e6e6e6"/><path d="M616.922 323.306l.789-18.304 10.519-1.008-1.523 19.323c1.908 2.53 1.575 6.097-.769 8.229s-5.926 2.129-8.265-.009-2.665-5.705-.752-8.231z" fill="#ffb6b6"/><path d="M605.926 208.597l.295.035a16.99 16.99 0 0 1 13.054 8.981c3.349 6.377 13.945 49.569 11.351 55.496-2.419 5.528-2.319 4.168-.561 7.876s4.078-.461 2.313 5.654-4.081 5.372-2.044 7.597 3.984 1.671 2.313 5.654-1.301 5.281-1.58 6.764.548 11.769.548 11.769-11.305-.285-16.774 2.676c0 0 2.602-10.562.749-12.139s-3.984-1.671-2.592-4.172 4.821-2.777 1.022-3.799-3.692-22.798-3.692-22.798z" fill="#e6e6e6"/><circle cx="583.217" cy="166.41" r="19.362" fill="#ffb6b6"/><path d="M596.692 182.984c2.693-2.107 2.954-6.124 5.252-8.657 3.842-4.234 5.647-8.789 3.635-13.805-1.78-4.437-1.402-9.891-5.236-12.747 1.883-.682 2.326-2.097.665-2.123-1.12-.018-5.297 2.124-3.287-.544s-1.795-1.615-1.543-2.707 1.865-1.697 2.577-.831a5.64 5.64 0 0 0-8.846 1.012c-2.265-3.394-4.668-5.729-8.134-3.575-3.403 2.115-3.359 4.73-7.019 4.102-1.721-.295-1.883 2.955-3.059 4.246-1.104 1.394-2.839 2.134-4.609 1.966-1.715-.324-3.027-2.462-2.066-3.919l-4.043 9.224-1.629-1.999c-2.589 1.687-1.739 6.09.867 7.751s5.993 1.306 8.994.57c3.613-.886 7.342-1.196 11.052-.917 5.666.8 9.613 7.575 7.515 12.899 2.177-2.138 6.204-.364 7.332 2.471s.301 6.029-.535 8.964" fill="#2f2e41"/><defs ><path id="B" d="M579.352 40.959h-10.61a2.19 2.19 0 0 0-2.19 2.19v10.62a2.19 2.19 0 0 0 2.19 2.19h10.61a2.2 2.2 0 0 0 2.2-2.19v-10.62a2.2 2.2 0 0 0-2.2-2.19z"/><path id="C" d="M569.741 527.897l-30.447-.001v-.385c0-6.545 5.306-11.85 11.851-11.851h.001l5.562-4.219 10.377 4.22h2.658z"/></defs></svg>