<svg xmlns="http://www.w3.org/2000/svg" viewBox="0 0 1024 1024" width="128" height="128" xmlns:v="https://vecta.io/nano"><g fill="#20b2aa"><path d="M590.222 73.956l268.8 268.299v533.834c0 37.7-30.566 68.267-68.267 68.267H233.244c-37.7 0-68.267-30.566-68.267-68.267V142.222c0-37.7 30.566-68.267 68.267-68.267h356.978zM578.458 102.4H233.244a39.822 39.822 0 0 0-39.799 38.457l-.023 1.365v733.867a39.822 39.822 0 0 0 38.457 39.799l1.365.023h557.511a39.822 39.822 0 0 0 39.799-38.457l.023-1.365V354.054L578.458 102.4z"/><path d="M854.756 370.648H639.613c-45.528 0-82.551-36.432-83.507-81.738l-.017-1.792V73.956h28.444v213.163c0 29.895 23.819 54.232 53.515 55.063l1.564.023h215.142v28.444zM85.333 489.244h853.333q28.444 0 28.444 28.444v284.444q0 28.444-28.444 28.444H85.333q-28.444 0-28.444-28.444V517.689q0-28.444 28.444-28.444z"/></g><path d="M366.564 756.622v-65.28c0-18.944-3.584-47.36-5.888-66.048h1.024l15.36 45.568 25.856 69.632h25.088l25.6-69.632 15.872-45.568h1.28c-2.56 18.688-6.144 47.104-6.144 66.048v65.28h41.728v-190.72h-49.664l-29.184 82.432c-3.584 11.008-6.656 23.04-10.496 34.56h-1.28c-3.584-11.52-6.656-23.552-10.496-34.56l-30.208-82.432h-49.408v190.72h40.96zm240.896 0c55.552 0 93.952-29.952 93.952-96.256s-38.4-94.464-96.512-94.464h-54.784v190.72h57.344zm-5.376-36.864h-6.144V602.51h6.144c30.72 0 52.48 12.544 52.48 57.856s-21.76 59.392-52.48 59.392z" fill="#fff"/></svg>