<svg xmlns="http://www.w3.org/2000/svg" width="128" height="128" fill="none" xmlns:v="https://vecta.io/nano"><path d="M106.899 64.441l-1.307 2.427c-.27.597-.722 1.092-1.292 1.414a3.08 3.08 0 0 1-1.878.377 2.15 2.15 0 0 0-1.388.448l-3.743 2.355c-.864.474-1.824.748-2.808.801s-1.968-.117-2.878-.496c-3.037-1.174-6.263-1.781-9.519-1.791-1.614-.053-3.218.268-4.688.937s-2.764 1.669-3.783 2.922a13.29 13.29 0 0 0-1.907 3.841c-1.11 2.749-2.06 19.143-2.06 23.325 0 0-15.778-3.062-30.58-18.212l3.859-10.136H30.838l8.74-9.267H24.534l8.749-9.258H19l15.904-16.86c4.876-4.827 11.01-8.187 17.703-9.697 6.358-1.092 7.997-.474 11.919.69l2.176.654.761.224 2.776.851a11.25 11.25 0 0 0 5.561.081 10.18 10.18 0 0 1 7.388.895 7.38 7.38 0 0 1 2.501 2.346c.638.968 1.039 2.072 1.17 3.223.116 1.015.47 1.989 1.031 2.843s1.316 1.564 2.202 2.073c2.671 1.463 5.464 2.694 8.346 3.68 2.033.77 4.065 1.648 6.08 2.435 1.001.38 1.884 1.016 2.561 1.844.576.692.92 1.547.985 2.445.126 1.791.332 3.581.421 5.372a13.64 13.64 0 0 1-1.585 7.19v.027z" fill="#fff"/></svg>