<svg xmlns="http://www.w3.org/2000/svg" viewBox="0 0 851 586" fill="none" xmlns:v="https://vecta.io/nano"><path d="M274.765 118.464L101.097 419.343c-13.079 22.66-5.317 51.635 17.336 64.717 7.501 4.332 15.694 7.211 23.774 7.188h370.131L567.029 586H142.207c-24.179.038-48.691-6.919-71.137-19.882C3.108 526.87-20.177 439.946 19.06 371.967L192.728 71.088c39.238-67.979 126.14-91.27 194.101-52.023 23.059 13.317 40.975 32.122 53.051 53.814l89.921 155.596.211-.122 137.854 238.831c13.079 22.66 42.047 30.424 64.701 17.341s30.415-42.057 17.336-64.717L576.235 118.929c-12.536-21.719-39.67-29.754-61.849-18.862l-47.401-82.121c67.529-37.015 152.589-13.438 191.287 53.607L831.94 372.432c39.237 67.979 15.952 154.903-52.01 194.151s-154.863 15.956-194.101-52.023L425.366 236.557l-.064.11-70.309-121.811c-2.806-4.197-5.648-6.944-9.121-9.724-1.547-1.237-3.501-2.351-5.336-3.396l-.001-.001-1.07-.612c-22.654-13.082-51.621-5.319-64.7 17.341z" fill="#fff"/></svg>