<?xml version="1.0" standalone="no"?><!DOCTYPE svg PUBLIC "-//W3C//DTD SVG 1.1//EN" "http://www.w3.org/Graphics/SVG/1.1/DTD/svg11.dtd"><svg t="1671007195955" class="icon" viewBox="0 0 1024 1024" version="1.1" xmlns="http://www.w3.org/2000/svg" p-id="114565" xmlns:xlink="http://www.w3.org/1999/xlink" width="128" height="128"><path d="M501.333333 117.333333c176.725333 0 320 143.274667 320 320 0 136.32-85.973333 255.744-211.008 300.949334l-6.741333 2.346666-5.568 1.813334-43.882667 43.861333a74.666667 74.666667 0 0 1-99.072 5.802667l-3.328-2.773334-3.2-3.008-43.904-43.882666-5.546666-1.792A320.149333 320.149333 0 0 1 181.653333 451.84l-0.234666-7.253333L181.333333 437.333333c0-176.725333 143.274667-320 320-320z m219.050667 187.434667L533.333333 425.685333v155.306667a32 32 0 0 1-63.850666 3.093333L469.333333 581.013333v-153.941333l-187.648-121.322667a254.656 254.656 0 0 0-36.266666 125.077334l-0.085334 6.506666c0 114.88 76.373333 214.805333 185.130667 246.08a32 32 0 0 1 11.370667 5.930667l2.410666 2.176 49.536 49.536a10.666667 10.666667 0 0 0 13.610667 1.237333l1.493333-1.237333 49.536-49.536a32 32 0 0 1 13.781334-8.106667A256.106667 256.106667 0 0 0 757.333333 437.333333c0-48.533333-13.504-93.888-36.949333-132.565333zM501.333333 181.333333a255.189333 255.189333 0 0 0-179.925333 73.898667l178.837333 115.626667 180.181334-116.458667A255.168 255.168 0 0 0 501.333333 181.333333zM576 832a32 32 0 0 1 3.072 63.850667L576 896h-149.333333a32 32 0 0 1-3.072-63.850667L426.666667 832h149.333333z" fill="#ffffff" p-id="114566"></path></svg>