<svg xmlns="http://www.w3.org/2000/svg" viewBox="0 0 1024 1024" width="128" height="128" xmlns:v="https://vecta.io/nano"><path d="M501.333 117.333c176.725 0 320 143.275 320 320 0 136.32-85.973 255.744-211.008 300.949l-6.741 2.347-5.568 1.813-43.883 43.861a74.667 74.667 0 0 1-99.072 5.803l-3.328-2.773-3.2-3.008-43.904-43.883-5.547-1.792A320.149 320.149 0 0 1 181.653 451.84l-.235-7.253-.085-7.253c0-176.725 143.275-320 320-320zm219.051 187.435L533.333 425.685v155.307a32 32 0 0 1-63.851 3.093l-.149-3.072V427.072L281.685 305.749a254.656 254.656 0 0 0-36.267 125.077l-.085 6.507c0 114.88 76.373 214.805 185.131 246.08a32 32 0 0 1 11.371 5.931l2.411 2.176 49.536 49.536a10.667 10.667 0 0 0 13.611 1.237l1.493-1.237 49.536-49.536a32 32 0 0 1 13.781-8.107 256.107 256.107 0 0 0 185.131-246.08c0-48.533-13.504-93.888-36.949-132.565zM501.333 181.333a255.189 255.189 0 0 0-179.925 73.899l178.837 115.627L680.427 254.4a255.168 255.168 0 0 0-179.093-73.067zM576 832a32 32 0 0 1 3.072 63.851L576 896H426.667a32 32 0 0 1-3.072-63.851l3.072-.149H576z" fill="#fff"/></svg>