<svg xmlns="http://www.w3.org/2000/svg" width="399" height="396" xmlns:v="https://vecta.io/nano"><defs><filter id="A"><feColorMatrix in="SourceGraphic" values="0 0 0 0 0.145098 0 0 0 0 0.419608 0 0 0 0 1.000000 0 0 0 1.000000 0"/></filter></defs><g filter="url(#A)" fill-rule="evenodd"><g fill="#92b9ff"><g fill-rule="nonzero"><g transform="matrix(-1 0 0 1 399 0)"><path d="M99.439 345.263h-2.486c-2.486 1.238-6.215 2.475-7.458 4.95-3.729 6.188 1.243 13.613 7.458 17.325C128.028 386.1 164.075 396 200.121 396c53.449 0 103.168-21.038 140.458-58.163S399 251.213 399 198 377.869 95.287 340.579 58.163 253.57 0 200.121 0 95.71 22.275 58.421 59.4 0 146.025 0 199.238C0 237.6 11.187 274.725 32.318 306.9c1.243 2.475 4.972 4.95 7.458 4.95 2.486 1.237 6.215 0 8.701-1.238 6.215-4.95 1.243-14.85-1.243-17.325-18.645-28.463-28.589-60.638-28.589-94.05 0-23.513 4.972-45.788 14.916-68.062 8.701-21.038 22.374-40.837 39.776-56.925 16.159-16.088 36.047-29.7 57.178-39.6 22.374-8.662 44.748-13.612 68.364-13.612s45.991 4.95 68.364 14.85c21.131 8.663 41.019 22.275 57.178 39.6 16.159 16.088 29.832 35.887 39.776 56.925 9.944 22.275 14.916 44.55 14.916 68.063s-4.972 45.787-14.916 68.063c-8.701 21.037-22.374 40.837-39.776 56.925s-36.047 29.7-57.178 39.6c-22.374 9.9-44.748 14.85-68.364 14.85-37.29 0-74.579-18.562-93.224-30.937-2.486-2.475-3.729-3.713-6.215-3.713h0z"/></g><g transform="matrix(.707107 .707107 -.707107 .707107 201.073919 51.830105)"><path d="M191.151 0c6.209 0 11.242 4.989 11.242 11.155l-.001 69.965h-56.12c-3.878 0-7.01 3.035-7.136 6.826l-.004.238v26.877c0 11.716-9.572 21.213-21.38 21.213s-21.38-9.497-21.38-21.213h0V87.496c0-5.872-4.786-10.618-10.69-10.618-5.892 0-10.69 4.754-10.69 10.618h0v28.26c0 .234.008.466.023.697.74 22.787 19.591 41.034 42.736 41.034 23.138 0 41.984-18.235 42.736-41.012h0 .023v-14.142h41.88l.001 87.328c0 6.161-5.028 11.155-11.242 11.155H11.242C5.033 200.816 0 195.827 0 189.661v-68.04h56.999c3.959 0 7.14-3.162 7.14-7.064h0V87.68c0-11.716 9.572-21.213 21.38-21.213s21.38 9.497 21.38 21.213h0v27.565c0 5.872 4.786 10.618 10.69 10.618 5.892 0 10.69-4.754 10.69-10.618h0v-28.26a10.73 10.73 0 0 0-.023-.697c-.74-22.787-19.591-41.034-42.736-41.034-23.138 0-41.984 18.235-42.736 41.012h0-.023v14.142H0V11.155C0 4.994 5.028 0 11.242 0h179.908z"/></g></g></g></g></svg>