<svg xmlns="http://www.w3.org/2000/svg" width="175" height="200" xmlns:v="https://vecta.io/nano"><path d="M84.034 155.012c-1.62-3.352-3.693-7.895-5.822-13.256-2.129 2.748-4.448 5.512-6.95 8.308l-3.963 4.512-5.02-2.121C47.609 146.267 5.067 125.584.683 92.176c-3.137-34.805 17.228-53.09 9.865-72.439 29.698 7.101 53.114 18.602 68.094 33.32 23.503-30 53.606-31.176 61.636-53.058 55.767 77.943 46.871 149.19-46.084 160.675C86.33 175.139 77.569 188.57 68.046 200l-13.034-8.094c11.176-10.731 20.739-23.256 29.023-36.894h0 0zm8.968-38.832c1.938 5.218 3.924 9.444 5.203 12.009 13.535-29.388 22.772-61.525 30.214-91.12-8.022 8.34-23.479 11.597-35.584 28.364a31.36 31.36 0 0 0-2.025 3.535c7.561 14.003 8.721 29.976 2.192 47.212h0 0zm-40.087 11.533c-5.147-28.65-12.097-55.274-24.257-78.832h0c12.978 18.118 28.054 44.384 36.044 74.114C92.74 89.762 74.4 54.94 22.692 42.589c4.805 12.637-8.499 24.583-6.45 47.323 3.018 22.947 28.689 34.575 36.672 37.8h0 0zm56.172 1.978c50.929-8.769 56.664-49.007 27.029-93.9-3.781 27.164-13.217 61.398-27.029 93.9h0z" fill="#26a2ff" fill-rule="evenodd"/></svg>