<svg xmlns="http://www.w3.org/2000/svg" width="192" height="192" xmlns:v="https://vecta.io/nano"><path d="M169.474 143.901l-68.703 39.695a9.48 9.48 0 0 1-9.542 0l-68.703-39.695c-2.958-1.718-4.771-4.866-4.771-8.206v-79.39c0-3.435 1.813-6.489 4.771-8.206L91.229 8.404a9.48 9.48 0 0 1 9.542 0l68.703 39.695c2.958 1.718 4.771 4.866 4.771 8.206v79.39c-.095 3.34-1.908 6.489-4.771 8.206z" fill="#8d6748" fill-rule="evenodd"/><path d="M95.905 22.049c.954 0 1.813.286 2.672.763l59.352 34.256a5.49 5.49 0 0 1 2.672 4.676v68.512a5.49 5.49 0 0 1-2.672 4.676l-59.352 34.256c-.859.477-1.718.763-2.672.763a5.13 5.13 0 0 1-2.672-.763l-59.352-34.256a5.49 5.49 0 0 1-2.672-4.676V61.744a5.49 5.49 0 0 1 2.672-4.676l59.352-34.256c.859-.477 1.813-.763 2.672-.763m0-2.863a7.84 7.84 0 0 0-4.103 1.145L32.45 54.587c-2.576 1.431-4.103 4.199-4.103 7.061v68.512c0 2.958 1.527 5.63 4.103 7.061l59.352 34.256a7.84 7.84 0 0 0 4.103 1.145 7.84 7.84 0 0 0 4.103-1.145l59.352-34.256c2.576-1.431 4.103-4.198 4.103-7.061V61.649c0-2.958-1.527-5.63-4.103-7.061l-59.352-34.256a7.84 7.84 0 0 0-4.103-1.145zm8.444 42.463c0-.477-.382-.954-.954-.954H85.456c-.477 0-.954.382-.954.954 0 3.244.477 14.409 5.248 19.847.191.191.382.286.668.286h8.015c.286 0 .477-.095.668-.286 4.771-5.344 5.248-16.508 5.248-19.847zm-7.061 17.367h-5.63c-.286 0-.477-.095-.668-.286-3.244-3.817-3.626-11.45-3.721-14.122 0-.477.382-.954.954-.954h12.596c.477 0 .954.382.954.954 0 2.672-.477 10.21-3.721 14.122-.286.191-.477.286-.763.286zm-1.05-20.229s3.435-2.004 1.336-5.63c-1.24-1.908-1.813-3.531-1.336-4.199-1.24 1.527-3.34 3.149-1.05 6.584.763.859 1.145 2.672 1.05 3.244zm-3.817.286s2.29-1.336.859-3.817c-.859-1.24-1.24-2.386-.859-2.767-.859 1.05-2.195 2.099-.668 4.485.477.477.668 1.718.668 2.099zm7.825 11.068c-.382 2.576-1.145 5.534-2.767 7.443-.191.191-.382.286-.573.286h-4.771c-.191 0-.477-.095-.573-.286-1.145-1.431-1.908-3.34-2.386-5.344 0 0 5.534.763 8.683-.382 2.29-.859 2.386-1.718 2.386-1.718zM37.555 85.599h3.531l5.821 8.97 5.821-8.97h3.531v19.084h-3.34V91.038l-6.011 8.97h-.095l-5.916-8.874v13.645h-3.34v-19.18zm35.974 19.37a11.09 11.09 0 0 1-4.008-.763c-1.24-.477-2.29-1.24-3.149-2.099s-1.527-1.908-2.004-3.149a10.09 10.09 0 0 1-.763-3.817v-.095c0-1.336.286-2.576.763-3.817.477-1.145 1.145-2.195 2.099-3.149.859-.859 1.908-1.622 3.149-2.099 1.24-.573 2.576-.763 4.008-.763a11.09 11.09 0 0 1 4.008.763c1.24.477 2.29 1.24 3.149 2.099s1.527 1.908 2.004 3.149a10.09 10.09 0 0 1 .763 3.817v.095c0 1.336-.286 2.576-.763 3.817-.477 1.145-1.145 2.195-2.099 3.149-.859.859-1.908 1.622-3.149 2.099-1.24.573-2.576.763-4.008.763zm0-3.053c.954 0 1.813-.191 2.576-.573a7.64 7.64 0 0 0 2.004-1.431c.573-.573.954-1.336 1.336-2.099.286-.859.477-1.718.477-2.576v-.095c0-.954-.191-1.813-.477-2.672s-.763-1.527-1.336-2.195a7.64 7.64 0 0 0-2.004-1.431c-.763-.382-1.622-.573-2.576-.573s-1.813.191-2.576.573a7.64 7.64 0 0 0-2.004 1.431c-.573.573-.954 1.336-1.336 2.099-.286.859-.477 1.718-.477 2.576v.095c0 .954.191 1.813.477 2.672s.763 1.527 1.336 2.195a7.64 7.64 0 0 0 2.004 1.431c.763.382 1.718.573 2.576.573zm26.145 3.053c-1.431 0-2.672-.286-3.817-.763s-2.195-1.24-3.053-2.099-1.527-1.908-2.004-3.149-.763-2.481-.763-3.817v-.095a10.09 10.09 0 0 1 .763-3.817 11.01 11.01 0 0 1 2.004-3.149c.859-.859 1.908-1.622 3.149-2.099s2.481-.763 4.008-.763c.859 0 1.622.095 2.386.191l2.004.573c.573.286 1.145.573 1.622.954l1.431 1.24-2.195 2.481c-.763-.668-1.527-1.24-2.386-1.718s-1.813-.668-2.958-.668c-.954 0-1.718.191-2.481.573a7.64 7.64 0 0 0-2.004 1.431c-.573.573-.954 1.336-1.336 2.099-.286.859-.477 1.718-.477 2.576v.095c0 .954.191 1.813.477 2.672s.763 1.527 1.336 2.195c.573.573 1.24 1.145 2.004 1.431s1.622.573 2.481.573c1.145 0 2.195-.191 2.958-.668s1.622-1.05 2.481-1.813l2.195 2.195c-.477.573-.954.954-1.527 1.431s-1.145.763-1.718 1.05-1.336.573-2.004.668c-.859.191-1.718.191-2.576.191zm14.504-19.37h3.34v7.92h9.16v-7.92h3.34v19.084h-3.34v-8.015h-9.16v8.015h-3.34V85.599zm30.63-.095h3.053l8.397 19.18h-3.531l-1.908-4.58h-8.97l-2.004 4.58h-3.435l8.397-19.18zm4.771 11.641l-3.244-7.634-3.244 7.634h6.489zm-114.41 13.55H156.83v1.05H35.169zM156.83 74.817h-51.718c0 .382-.095.668-.095 1.05h51.813v-1.05zm-121.661 0v1.05h48.76c0-.382-.095-.668-.095-1.05H35.169z" fill="#fff"/></svg>