<svg xmlns="http://www.w3.org/2000/svg" width="308" height="308" viewBox="0 0 1000 1000" xmlns:v="https://vecta.io/nano"><path fill="#396" d="M167.262 323.831c-10.277 2.785-11.231 14-11.231 14 0 5.723.954 10.123 9.462 14.708 8.569 4.6 20.215-4.585 20.215-13.062 0-8.446-8.261-18.492-18.446-15.646zm785.2 102.123c-15.6-8.785-66.615-17.985-113.461-5.523-.031.031-.092.031-.154.031-.031 0-.092.031-.154.031C792 432.8 763.6 406.877 763.6 406.877 621.539 255.939 502.769 199.615 424.908 179.508l-12.523-2.969c-24.246-5.646-49.461-8.831-75.385-8.831-91.815 0-174.908 37.2-235 97.369-6.785-5.861-15.8-9.015-25.754-6.339-21.185 5.877-23.169 28.846-23.169 28.846 0 9.2 1.292 16.677 10.215 23.954-17.215 25.062-31.077 52.4-40.985 81.723-1.446 6-4.754 26.738 17.031 31.108 32.415 6.462 49.046 9.908 53.092 22.339 3.523 10.861.385 27.277-19.292 29-10.846.954-44.169-10.585-56.154-37.985-4.031-4.031-6.046-.385-6.585.954-3.692 19.831-5.708 40.354-5.708 61.277 0 183.585 148.738 332.354 332.292 332.354 132.308 0 246.477-77.338 300-189.246 10.6-22.292 18.754-45.908 24.246-70.585 1.323-6.077 2.554-12.2 3.569-18.385 4.785-19.861 13.4-34.677 43.092-43.785 66.369-20.246 64.092 85.492 98.954 143.954s81.015 90.169 112.446 56.431c31.554-33.708 70.462-181.277 70.462-181.277 16.138-59.046-4.985-89.262-37.292-103.462zm-796.708-66.446c-19.738-10.631-21.939-20.785-21.939-34.046 0 0 2.2-25.846 25.815-32.369 23.646-6.538 42.754 16.692 42.754 36.215 0 19.569-26.923 40.815-46.631 30.2z"/></svg>