<svg xmlns="http://www.w3.org/2000/svg" viewBox="0 0 1024 1024" width="128" height="128" fill="#fff" xmlns:v="https://vecta.io/nano"><path d="M549.1 819.5l-23.8-3.1c1.4-10.7 17.5-66.8 70.4-144.4 30.1-44.2 67-88 109.7-130.1 52.3-51.6 113.4-100.8 181.8-146.4l13.3 20c-152.9 101.9-239.3 203.1-284.9 270-49.8 72.9-65.3 125-66.5 134z"/><path d="M693.1 883.2c-51.7 0-94.1-14.3-111.5-20.2l-5.6-1.9c-19.1-.8-32.5-20.2-40.6-31.9-.4-.6-.8-1.1-1.2-1.7-.7.1-1.4.2-2 .2-9.8 1.2-32.8 4-42.3-23.5l-.3-.9c-15.9-60.6-16.2-121.1-1.2-180 13.9-54.1 40.8-104.6 77.9-145.9 33.3-37.1 74.2-66 118.2-83.7 46-18.4 95.3-24.5 142.7-17.4 5.6.9 10.7 1 15.7 1.1 13.9.3 28.3.6 46.5 17.1l.4.4.4.4c1.5 1.7 36.9 41.2 57.3 105.5 12 37.9 16.2 76.5 12.6 114.8-4.5 47.8-21.3 95.1-49.9 140.6-25.9 41.1-57.2 72.8-93.1 94-29.8 17.6-63.1 28.3-98.9 31.6-8.6 1.1-17 1.4-25.1 1.4zm-115.9-22h.2-.2zm.1-24c2.8 0 5.1.8 11.9 3.1 163.6 55.2 253.8-22.1 300.6-96.7 48.2-76.7 59.8-155.8 34.7-235.3-17.7-56-48.2-92-51.8-96.2-11.3-10-18.2-10.2-30.5-10.5-5.4-.1-11.6-.3-18.7-1.3-86-12.9-175.5 22.1-239.5 93.3-73 81.3-99.7 194.7-71.5 303.2 3 8.4 6.5 8.4 16.6 7.2 6.5-.8 15.3-1.9 21.3 5.3 1.3 1.6 2.8 3.7 4.6 6.3 4.1 5.9 14.9 21.6 22.1 21.6h.2zM532 824.7s0 .1 0 0c0 .1 0 0 0 0zM383.6 630.2l-23.9-1.7c12.3-168.7-13.9-287.2-38.1-356.9-29.4-85-62.4-120.7-62.7-121l16.8-17.2c9.2 9 41.6 52.2 68.7 130.3 16 46.3 27.7 97.4 34.7 151.8 8.4 66.7 10 139 4.5 214.7z"/><path d="M412.4 637.5c-12.4 0-24.1-4.6-32.3-7.8-2.4-.9-5.5-2.2-7.1-2.6-.5.2-1.1.5-1.7.8-9.1 4.6-21.1 9.4-50.3 9l-4.6-1C251 608 201.2 572 168.5 528.9c-28.1-36.9-43.8-78.8-46.8-124.8-3.8-58.6 13.8-111 29.2-144.5 16-34.9 37.7-66.1 51.4-74.3 17.6-10.4 25-20.1 32.2-29.5 6.7-8.8 13.7-17.9 27.4-24.7l2.4-.9c1.1-.3 26.5-6.5 62.7-6 48.1.6 92.5 13 128.5 35.7 56.1 35.5 93 95.4 109.8 178.1 8.5 41.8 8.7 81.9.7 119-6.7 31.2-19.3 60.6-37.4 87.3-40.6 60.2-99 90.7-107.8 92.3-2.8.7-5.6.9-8.4.9zM372.2 627h0zm.5-24c4.9 0 9.9 1.9 16.2 4.4 8.2 3.2 18.3 7.2 26.9 5.9 7.5-2.9 47.5-24.3 81.2-66.4 45.6-56.9 60.6-125.5 44.7-204-15.4-76.1-48.7-130.8-99.1-162.6-73.3-46.3-160-29.5-171.3-27-7.9 4.2-12.1 9.7-17.8 17.1-7.8 10.1-17.4 22.7-39 35.5-5.1 3-24.4 25.7-41.9 63.7-14.3 31.1-30.6 79.4-27.1 133 5.9 91 65.9 161.8 178 210.5h.3c23.7 0 31.7-4 36.6-6.5 3.4-1.7 7.1-3.6 12.3-3.6zm42.6 10.5z"/></svg>