<svg xmlns="http://www.w3.org/2000/svg" viewBox="0 0 1024 1024" width="200" height="200" xmlns:v="https://vecta.io/nano"><path d="M454.118 312.166c3.292 1.647 4.39 3.294 4.39 4.39s-1.099 2.744-4.39 4.941l-14.819 10.976v192.077c0 41.708 1.097 73.537 2.744 98.234v3.84c0 7.136-1.647 9.332-13.172 14.819-5.487 2.743-9.33 4.39-11.525 4.39-2.744 0-3.294-2.741-3.294-8.23V610.71h-81.22v43.904c0 7.134-1.099 8.781-12.075 13.718-4.939 2.196-8.23 3.296-10.426 3.296-3.84 0-4.39-3.296-4.39-11.525v-6.036c1.097-32.381 1.647-77.38 1.647-108.662V343.448c0-13.17-.55-39.511-1.647-56.527l29.085 25.245h71.344l14.268-20.304 33.48 20.304zm-40.064 137.748V323.692h-81.22v126.223h81.22zm0 148.722V461.99h-81.22v136.648h81.22zm324.337-297.994c3.292 2.196 4.39 3.84 4.39 5.487s-1.099 2.744-4.39 4.939l-16.463 10.976v62.565c0 6.586 2.193 35.671 2.193 40.61 0 6.586-2.741 8.231-12.621 13.172-5.489 2.743-8.783 3.84-10.979 3.84-3.84 0-3.84-2.196-3.84-23.049h-167.38c0 62.012-8.233 170.126-19.209 207.442-17.014 58.721-36.222 86.712-113.053 140.493l-4.939-6.036c95.491-79.577 110.857-153.661 110.857-315.008V341.803c0-37.318-.55-54.88-1.099-68.598l36.77 26.89h150.368l16.464-23.598 32.93 24.146zm-41.708 106.465v-94.942h-167.38v94.942h167.38zm61.466 202.503c.55 58.72 6.583 77.38 17.014 82.318 2.741 1.647 4.39 2.744 4.39 4.941 0 1.097-.55 2.195-1.099 3.842-11.525 26.342-25.245 35.671-116.893 35.671-82.318 0-85.61-4.939-85.61-52.683V505.342c0-31.829-.55-50.488-1.647-63.66l40.062 19.209c3.294 1.645 4.939 2.743 4.939 4.39s-.55 2.196-18.109 13.172v112.5c48.294-37.866 89.453-72.989 126.771-111.951l29.635 24.144c2.743 2.196 3.84 3.842 3.84 4.941 0 1.645-2.195 2.193-7.134 2.193-6.586 0-20.304 4.941-26.89 9.33l-126.223 85.064v77.38c-.546 28.537 2.744 32.927 57.074 32.927 20.304 0 42.255-1.645 60.367-3.842 24.146-3.292 27.989-14.819 30.184-101.526h9.33z" fill="#f9f9f9"/></svg>