<svg xmlns="http://www.w3.org/2000/svg" width="221.953" height="221.953" viewBox="0 0 58.725 58.725" xmlns:v="https://vecta.io/nano"><path d="M29.362 0C13.161 0 0 13.162 0 29.363s13.161 29.362 29.362 29.362 29.363-13.161 29.363-29.362S45.563 0 29.362 0zm0 2.55c14.823 0 26.813 11.99 26.813 26.813s-11.99 26.813-26.813 26.813S2.549 44.187 2.549 29.363 14.538 2.55 29.362 2.55z"/><g stroke="red"><path d="M17.449 17.45h23.825v23.825H17.449z" fill="#fffff9" stroke-width="2.575"/><g fill="red"><path d="M30.43 25.252h4.173v15.321H30.43z" stroke-width="2.906"/><path d="M32.655 51.793c-.211-.266-.58-1.366-1.345-4.019-.829-2.872-1.371-4.189-1.775-4.317-.78-.248-1.352.658-2.829 4.475-.764 1.975-1.321 3.199-1.644 3.612l-.207.265-1.307-.343c-7.303-1.918-13.148-7.33-15.639-14.482-.44-1.265-1.053-3.847-.966-4.072.08-.21 1.399-.672 4.215-1.478 3.42-.979 4.276-1.378 4.276-1.991 0-.65-1.06-1.267-4.326-2.518-2.197-.842-3.845-1.622-3.937-1.863-.166-.434.999-4.015 1.862-5.721 2.74-5.418 7.408-9.464 13.102-11.358.779-.259 1.87-.56 2.425-.669l1.217-.257c.31-.089.691.864 1.569 3.929.876 3.056 1.28 4.124 1.679 4.438.32.252.55.214.964-.158.463-.417.907-1.329 2.033-4.179.596-1.508 1.242-2.991 1.434-3.294.338-.533.364-.549.793-.472.244.044 1.03.256 1.747.471 6.699 2.011 12.045 6.991 14.595 13.594.418 1.083 1.023 3.302 1.158 4.251l.078.548-.75.3c-.412.165-1.948.646-3.412 1.07-3.618 1.046-4.381 1.4-4.381 2.033 0 .332.609.896 1.397 1.293.307.155 1.465.637 2.573 1.07 2.506.981 3.312 1.332 3.893 1.697.446.28.455.299.377.817-.119.797-.855 3.039-1.415 4.31-2.752 6.254-8.479 11.087-15.086 12.732-1.643.409-2.214.478-2.367.284zm9.798-22.439V16.259H29.357 16.262v13.096V42.45h13.096 13.096z" stroke-width=".097"/></g></g><path d="M26.789 56.025c-6.291-.652-11.93-3.323-16.35-7.743-4.401-4.401-7.037-9.944-7.709-16.209-.195-1.824-.132-4.835.14-6.615.722-4.727 2.62-9.106 5.552-12.804.905-1.142 3.41-3.608 4.524-4.455C17.07 5.067 21.433 3.319 26.6 2.73c1.307-.149 4.467-.124 5.893.047 7.881.943 14.772 5.188 19.211 11.835 1.341 2.008 2.669 4.849 3.325 7.114 2.249 7.761 1.004 15.922-3.438 22.537C47.36 50.563 40.847 54.687 33.29 55.85c-1.424.219-5.115.318-6.5.175zm8.147-4.43c3.976-1.016 7.335-2.888 10.267-5.723 2.644-2.556 4.611-5.689 5.767-9.184.583-1.764.755-2.604.577-2.818-.248-.299-1.327-.813-3.781-1.8-2.933-1.18-3.659-1.541-4.11-2.039-.386-.427-.391-.454-.145-.766.275-.349 1.043-.677 2.963-1.261l2.804-.854c1.093-.333 2.646-.885 2.646-.941 0-.016-.086-.475-.191-1.019-1.677-8.691-8.096-15.506-16.706-17.736-.763-.198-1.118-.251-1.24-.186-.265.142-.848 1.35-1.893 3.92-1.127 2.773-1.618 3.756-2.033 4.073-.817.623-1.129.093-2.348-3.986-.901-3.017-1.221-3.911-1.484-4.149-.175-.159-.221-.159-.964-.004-6.885 1.436-12.505 5.562-15.785 11.589-1.1 2.022-2.411 5.925-2.151 6.41.136.254 1.489.894 4.111 1.946 2.614 1.048 3.44 1.459 3.832 1.906.338.385.355.594.07.855-.449.412-1.292.733-4.04 1.538-2.336.685-3.588 1.105-3.955 1.329-.307.187-.315.208-.253.637.103.708.68 2.938.999 3.855.458 1.318 1.701 3.773 2.546 5.026 3.163 4.695 7.684 7.886 13.294 9.383 1.023.273 1.098.281 1.263.131.295-.267.882-1.502 1.772-3.73 1.305-3.266 1.87-4.335 2.36-4.463.657-.172.96.479 2.302 4.935.415 1.377.856 2.727.98 3 .224.492.23.496.654.496.235 0 1.077-.166 1.871-.369z" fill="#fff" fill-rule="evenodd" stroke="#fff" stroke-linejoin="round" paint-order="normal" stroke-width=".559"/></svg>