<svg xmlns="http://www.w3.org/2000/svg" xmlns:xlink="http://www.w3.org/1999/xlink" width="30" height="30" fill="none" xmlns:v="https://vecta.io/nano"><defs><path id="A" d="M0 0h30v30H0z"/><path id="B" d="M0 0h22v14.73H0z"/></defs><g transform="matrix(1 0 0 1 0 0)"><mask id="D" fill="#fff"><use xlink:href="#A"/></mask><g mask="url(#D)"><g transform="matrix(1 0 0 1 4 7.63477)"><mask id="D" fill="#fff"><use xlink:href="#B"/></mask><g mask="url(#D)" fill-rule="evenodd"><path transform="matrix(1 0 0 1 0 0)" d="M6.93.79L.22 12.35c-.62 1.06.15 2.38 1.38 2.38h5.25c-.53-.46-.72-1.26-.33-1.94l5.09-8.72L9.71.79C9.09-.26 7.55-.26 6.93.79z" fill="#80eec0"/><path transform="matrix(1 0 0 1 8.226084 2.678239)" d="M.18 10.1c-.51.87.13 1.95 1.15 1.95h11.12c1.02 0 1.65-1.08 1.14-1.95L8.03.65c-.51-.87-1.78-.87-2.29 0L.18 10.1z" fill="#00dc82"/></g></g></g></g></svg>