<svg xmlns="http://www.w3.org/2000/svg" viewBox="0 0 568 200" xmlns:v="https://vecta.io/nano"><g fill="#333"><path d="M552 124.5v48.6c0 6.6-2.3 7.9-8.1 4.6l-34.8-19.8c-4.2-2.3-6.1-5.4-6-10.3l.1-42.8c0-5.1-1.8-8.6-6.4-11s-9.1-5.1-13.5-7.7c-3.3-2-6.6-2.1-9.9-.1l-15.2 8.7c-3 1.7-4.3 4-4.3 7.6l-.1 70.4c0 7.2-2.2 8.4-8.5 4.8l-34.5-19.6c-4.2-2.3-6.1-5.4-6-10.3l.1-42.8c0-5.1-1.8-8.6-6.4-11-4.5-2.3-8.9-4.9-13.2-7.5-3.7-2.3-7.2-2.2-11 .1-4.3 2.6-8.7 5.2-13.2 7.6-4.4 2.3-6.3 5.7-6.2 10.6l.1 43.6c0 4.4-1.6 7.3-5.4 9.4l-36.2 20.6c-4.8 2.7-7.4 1.2-7.4-4.3l-.1-98.8c0-4 1.6-6.9 5.1-8.9l63.8-36.6c3.5-2 6.8-2 10.3.1l41.2 23.7c2.1 1.2 3.5 1.2 5.6 0L472 30.2c4.3-2.5 8-2.6 12.4 0l62.1 35.7c4.1 2.3 5.8 5.5 5.8 10.1v48.6h-.3v-.1zm-532.7-.3l-.1-47.8c-.1-5 1.7-8.2 6.1-10.7l62.4-35.9c3.8-2.2 7.1-2.3 10.9-.1l62.8 36c4.1 2.3 5.9 5.4 5.9 10.1l-.2 97.3c0 6.6-2.4 8-8.1 4.8l-35.2-20c-3.9-2.2-5.8-5.1-5.7-9.7l.1-43.2c.1-5.1-1.7-8.7-6.3-11-4.7-2.4-9.3-5.2-13.9-7.9-3.2-1.9-6.3-1.9-9.6 0l-14.8 8.5c-3.9 2.1-5.3 5.3-5.3 9.6l.1 43.6c.1 4.9-1.8 8-6 10.3l-34.8 19.8c-5.7 3.3-8.2 1.9-8.2-4.6l-.1-49.1h0 0z"/><g fill-rule="evenodd"><path d="M145.3 65h-7.7l4.5 7.9h7.7l-4.5-7.9z"/><path d="M202.4 89.7l-1.7-3.2-5.2-8.9-5.7.1 1.5 2.7-14.6.1-3.2-5.5-10.7.1 57.9 91 21.7-38.8L225 97.4l-1.8-3.1-4-6.9h0z" stroke="#333" stroke-width="2" stroke-linejoin="round"/></g></g><path d="M256.3 80.9L270 57.2c1-1.7 2.2-2.4 4.2-2.4h40.1c3.8 0 4.8 1.5 3.2 5-4.2 7.1-8.5 14.1-12.3 21.4l-13.5 23-29.8 51.5c-4.9 8.2-9.7 16.4-15.3 24.2-1.2 1.7-2.5 3.4-3.9 4.9-3.6 3.8-6.6 3.8-10.2-.1-1.7-1.8-7.2-9.8-4.3-5.1l-15.1-23.2c1.5-3.5 18-33.3 22.3-40.8.5-.5 14.6-23.8 20.9-34.7h0z" fill="#f4dd4b"/><g fill-rule="evenodd"><path d="M213.2 156.4l22.8-41.9-6.2-10.4"/><path d="M168.3 51.7l-6.4.1 3.9 6.4h2.3l3.6 6 10.5-.2-6.4-10.6-6.4.2-1.1-1.9zm-.9-30.9l-6.3.1 3.8 6.3 6.3-.1-3.8-6.3zm-11.2 8.9l-5.3.1 3.2 5.2 5.3-.1-3.2-5.2zm22.4-19.6l-4.4.1 2.3 3.8 4.4-.1-2.3-3.8zm-10.2 28.7l-5.6.2 2.9 4.8 5.6-.2-2.9-4.8zm27.2 3.1l-9 .2-1.5-2.4-8.1.2 4.3 7 5.5-.1 4.2 6.9 11.6-.2-7-11.6zm-9.5-15.6l-7.8.2 4.1 6.8 7.8-.2-4.1-6.8zM151.6 12l-3.6.1 1.9 3.1 3.6-.1-1.9-3.1zM211 66l-14.3.3 2.9 4.6h4.3l2.7 4.3 9.9-.2-5.5-9zm-56.1-24.5l-4.4.1 2.3 3.8 4.4-.1-2.3-3.8z" fill="#333" stroke="#333" stroke-width="2" stroke-linejoin="round"/></g></svg>