<svg xmlns="http://www.w3.org/2000/svg" viewBox="0 0 1024 1024" width="128" height="128" xmlns:v="https://vecta.io/nano"><path d="M356 274.9c-15.7-38.9-53.9-66.3-98.4-66.3-58.6 0-106.1 47.5-106.1 106.1 0 49.6 34.1 91.3 80.1 102.9" fill="#3a3a3a"/><path d="M230.4 422.4c-49.4-12.4-83.9-56.7-83.9-107.7 0-61.3 49.8-111.1 111.1-111.1 45.5 0 85.9 27.3 103 69.4l-9.3 3.8c-15.5-38.4-52.3-63.2-93.7-63.2-55.7 0-101.1 45.4-101.1 101.1 0 46.4 31.4 86.7 76.4 98l-2.5 9.7z"/><path d="M321.2 298c-11.4-15.4-29.6-27.3-50.2-27.3-34.5 0-62.4 28-62.4 62.5 0 24 15.8 46.7 35.7 57.2" fill="#ffd4dc"/><path d="M661 274.9c15.7-38.9 53.9-66.3 98.4-66.3 58.6 0 106.1 47.5 106.1 106.1 0 49.6-34.1 91.3-80.1 102.9" fill="#3a3a3a"/><path d="M786.6 422.4l-2.4-9.7c45-11.3 76.4-51.6 76.4-98 0-55.7-45.4-101.1-101.1-101.1-41.4 0-78.2 24.8-93.7 63.2l-9.3-3.8c17.1-42.2 57.5-69.4 103-69.4 61.3 0 111.1 49.8 111.1 111.1-.1 51-34.6 95.3-84 107.7z"/><path d="M695.8 298.9c11.4-15.4 29.6-27.3 50.2-27.3 34.5 0 62.4 28 62.4 62.5 0 24-15.8 46.7-35.7 57.2" fill="#ffd4dc"/><path d="M208.5 533.2a300 300 0 1 0 600 0 300 300 0 1 0-600 0z" fill="#fff"/><path d="M508.5 838.2c-81.5 0-158.1-31.7-215.7-89.3s-89.3-134.2-89.3-215.7 31.7-158.1 89.3-215.7 134.2-89.3 215.7-89.3 158.1 31.7 215.7 89.3 89.3 134.2 89.3 215.7-31.7 158.1-89.3 215.7c-57.7 57.6-134.3 89.3-215.7 89.3zm0-600c-162.7 0-295 132.3-295 295s132.3 295 295 295 295-132.3 295-295-132.4-295-295-295zm-11.3 294.6l7.4 6.4c1.8 1.5 6.1 1.5 7.9 0l7.4-6.4c1.8-1.5-.4-3.4-3.9-3.4h-14.7c-3.7 0-5.9 1.9-4.1 3.4z"/><path d="M508.5 542.9c-2.1 0-4.2-.6-5.6-1.8l-7.4-6.4c-1.4-1.2-1.8-2.8-1.2-4.3.8-2.1 3.5-3.5 6.8-3.5h14.7c3.4 0 6 1.4 6.8 3.5.6 1.5.1 3.1-1.2 4.3l-7.4 6.4c-1.3 1.2-3.4 1.8-5.5 1.8zM500 532l6.2 5.3c.8.7 3.8.7 4.6 0l6.2-5.3c-.3-.1-.7-.1-1.1-.1h-14.7c-.5 0-.9 0-1.2.1zm-32.6 45.8c-7.4 0-14.2-1.3-19.2-3.9-8.7-4.4-11.2-12.3-6.8-20.9l4.5 2.3c-3.2 6.2-1.6 11 4.6 14.2 13.7 7 44.4 3.3 52.8-13.1 1-2 3-3.2 5.3-3.3s4.4.9 5.3 2.4c8.6 14.4 36.7 18.6 50.8 11.2 6.3-3.4 8-8.3 5-14.7l4.5-2.1c4.2 8.9 1.5 16.6-7.2 21.3-7.6 4-19.2 5.2-30.5 3.1-12.3-2.3-22.1-8.1-26.8-16-.2-.1-.8-.3-1.3-.1-.4.1-.6.3-.7.5-6.7 13.2-24.7 19.1-40.3 19.1z"/><path d="M506 534.9h5v21h-5z"/><path d="M606.165 508.872a81.8 69.7 25.986 1 0 147.06 71.682 81.8 69.7 25.986 1 0-147.06-71.682zm-197.012.588a69.7 81.8 64.014 1 0-147.06 71.682 69.7 81.8 64.014 1 0 147.06-71.682z" fill="#565656"/><path d="M253.7 611a57.5 21.3 0 1 0 115 0 57.5 21.3 0 1 0-115 0zm388.5-1.4a57.5 21.3 0 1 0 115 0 57.5 21.3 0 1 0-115 0z" fill="#ffd4dc"/><path d="M302.5 533.2a55 55 0 1 0 110 0 55 55 0 1 0-110 0z"/><path d="M357.5 589.7c-31.2 0-56.5-25.3-56.5-56.5s25.3-56.5 56.5-56.5S414 502 414 533.2s-25.4 56.5-56.5 56.5zm0-110c-29.5 0-53.5 24-53.5 53.5s24 53.5 53.5 53.5 53.5-24 53.5-53.5-24-53.5-53.5-53.5z"/><path d="M318.5 518a15.2 15.2 0 1 0 30.4 0 15.2 15.2 0 1 0-30.4 0z" fill="#fff"/><path d="M396.6 550.8c2.4 4.2-1.2 14.8-13.9 22.3s-26.4 6.4-28.9 2.3 9.7-1.6 22.5-9 17.9-19.8 20.3-15.6z" fill="#565656"/><path d="M604.2 533.2a55 55 0 1 0 110 0 55 55 0 1 0-110 0z"/><path d="M659.2 589.7c-31.2 0-56.5-25.3-56.5-56.5s25.3-56.5 56.5-56.5 56.5 25.3 56.5 56.5-25.3 56.5-56.5 56.5zm0-110c-29.5 0-53.5 24-53.5 53.5s24 53.5 53.5 53.5 53.5-24 53.5-53.5-24-53.5-53.5-53.5z"/><path d="M620.3 518a15.2 15.2 0 1 0 30.4 0 15.2 15.2 0 1 0-30.4 0z" fill="#fff"/><path d="M698.4 550.8c2.4 4.2-1.2 14.8-13.9 22.3s-26.4 6.4-28.9 2.3 9.7-1.6 22.5-9 17.9-19.8 20.3-15.6z" fill="#565656"/></svg>