<svg xmlns="http://www.w3.org/2000/svg" width="128" height="128" viewBox="0 0 33.867 33.867" xmlns:v="https://vecta.io/nano"><defs><linearGradient id="A" x1="28.979" y1="29.441" x2="11.025" y2="-.485" gradientUnits="userSpaceOnUse"><stop offset="0" stop-color="#fd3a84"/><stop offset="1" stop-color="#ffa68d"/></linearGradient></defs><g transform="translate(-2.552 2.192)" fill="none"><g stroke-linejoin="round"><path d="m 28.297984,10.803162 c -0.817172,3.031648 -5.99427,9.550843 -9.927146,8.490748 -3.932876,-1.060094 -5.235519,-8.914846 -4.315058,-12.3296919 1.221724,-4.5325074 5.400352,-7.34745386 9.333228,-6.28735906 3.932877,1.06009476 6.1307,5.59379526 4.908976,10.12630296 z" stroke="url(#A)" stroke-width="1.5"/><path d="m 18.161175,19.567296 c -0.265128,0.161312 -0.528896,0.359148 -0.719483,0.60871 -0.131463,0.172143 -0.218509,0.351186 -0.320773,0.540626 -0.148756,0.347697 -0.301683,0.735358 -0.31227,1.119698 -0.005,0.182545 0.03419,0.328946 0.06966,0.504789 0.121594,0.450591 0.448155,0.719051 0.742598,1.051704 0.05216,0.05893 0.09919,0.122211 0.148784,0.183317 0.07842,0.122757 0.264531,0.379626 0.260685,0.534068 -0.0072,0.28838 -0.298375,0.455693 -0.497857,0.596715 -0.705511,0.334808 -1.488394,0.418366 -2.249034,0.549872 -0.634106,0.110445 -1.296239,0.238756 -1.80924,0.658213 -0.06428,0.05256 -0.10992,0.124479 -0.16488,0.18672 -0.03547,0.0752 -0.08022,0.14669 -0.106417,0.225602 -0.138351,0.416679 -0.01801,0.992124 0.04332,1.421 0.01606,0.107794 0.06149,0.303805 0.02085,0.418566 -0.116216,0.328178 -0.586508,0.378595 -0.854455,0.43326 -0.231451,0.04722 -0.466649,0.07373 -0.699973,0.110591 -0.717282,0.09523 -1.439339,0.134223 -2.1614788,0.166531 0,0 -0.09461,0.0694 -0.09461,0.0694 v 0 c 0.7226408,-0.0333 1.4451868,-0.07298 2.1632128,-0.166227 0.312431,-0.04819 0.922349,-0.119618 1.241332,-0.245383 0.210549,-0.08301 0.442733,-0.194958 0.520223,-0.425516 0.03875,-0.115289 -0.0069,-0.311809 -0.02347,-0.420118 -0.06199,-0.427086 -0.181637,-0.999906 -0.03968,-1.414495 0.02668,-0.07793 0.0719,-0.148219 0.10785,-0.222332 0.07334,-0.0815 0.179354,-0.218321 0.283865,-0.280151 0.448037,-0.265078 0.971934,-0.348509 1.475568,-0.441871 0.138399,-0.0239 0.276797,-0.0478 0.415196,-0.0717 0.136491,-0.02395 0.272928,-0.04821 0.409475,-0.07184 0.584121,-0.101098 1.121696,-0.212907 1.638308,-0.525922 0.20505,-0.147778 0.490037,-0.316084 0.494151,-0.612396 0.0022,-0.157519 -0.183747,-0.412526 -0.264074,-0.537765 -0.04988,-0.06134 -0.09717,-0.12489 -0.149651,-0.184023 -0.293322,-0.330488 -0.61867,-0.597062 -0.73881,-1.045613 -0.03571,-0.176549 -0.07405,-0.317166 -0.0685,-0.500666 0.01171,-0.387568 0.163486,-0.764987 0.313499,-1.115234 0.106253,-0.195626 0.185907,-0.361071 0.323114,-0.538204 0.09019,-0.116428 0.227882,-0.239894 0.340427,-0.336864 0.1627,-0.140184 0.127597,-0.06559 0.16082,-0.14169 0,0 0.101728,-0.08137 0.101728,-0.08137 z" stroke="url(#A)"/></g><path d="m 21.480657,2.004798 c 0,0 -2.899874,0.5612661 -4.723988,3.7417734 -1.824115,3.1805072 -0.654811,7.7174078 -0.654811,7.7174078" stroke="url(#A)" stroke-linecap="round"/></g></svg>