<svg xmlns="http://www.w3.org/2000/svg" viewBox="0 0 1024 1024" width="128" height="128" fill="#fff" xmlns:v="https://vecta.io/nano"><path d="M960.167 449.689c0-17.254-13.98-31.233-31.234-31.233S897.7 432.435 897.7 449.689c0 177.968-172.803 322.75-385.217 322.75-.548 0-1.059.133-1.6.162-6.865-.231-13.842 1.648-19.761 6.082L374.513 866.14v-83.29c0-1.542-.237-3.019-.453-4.499 2.407-14.399-5.574-28.962-19.74-34.329-137.929-52.209-227.055-167.739-227.055-294.333 0-17.254-13.98-31.233-31.233-31.233s-31.233 13.98-31.233 31.233c0 146.376 96.361 279.547 247.248 344.541v134.379c0 11.835 6.68 22.643 17.264 27.939a31.26 31.26 0 0 0 13.97 3.294c6.629 0 13.227-2.115 18.739-6.243L520.51 834.73c243.147-3.712 439.657-174.942 439.657-385.041zm-856.693-74.751c16.187 5.877 34.121-2.532 39.988-18.758C192.264 221.209 343.9 126.939 512.229 126.939c169.051 0 320.879 94.79 369.224 230.502 4.555 12.78 16.583 20.762 29.424 20.762 3.477 0 7.016-.589 10.483-1.819 16.247-5.785 24.727-23.659 18.941-39.907C882.348 173.779 710.318 64.471 512.228 64.471c-197.225 0-369.022 108.699-427.514 270.48-5.866 16.216 2.532 34.12 18.759 39.987zm287.123-74.393c-17.254 0-31.233 13.98-31.233 31.233v30.471c0 17.254 13.98 31.233 31.233 31.233s31.234-13.98 31.234-31.233v-30.471c-.001-17.254-13.98-31.233-31.234-31.233zm243.77 0c-17.254 0-31.234 13.98-31.234 31.233v30.471c0 17.254 13.98 31.233 31.234 31.233s31.233-13.98 31.233-31.233v-30.471c.001-17.254-13.979-31.233-31.233-31.233zm-44.86 141.447c-14.306-9.405-33.593-5.389-43.16 8.765-.132.193-13.614 19.755-34.172 19.755-19.989 0-32.423-18.098-33.268-19.369-9.161-14.417-28.255-18.809-42.835-9.771-14.651 9.109-19.155 28.367-10.055 43.018 11.214 18.047 41.971 48.59 86.157 48.59 43.963 0 75.106-30.319 86.575-48.223 9.221-14.397 5.033-33.359-9.243-42.764z"/></svg>