<svg xmlns="http://www.w3.org/2000/svg" width="346.667" height="346.667" viewBox="0 0 260 260" preserveAspectRatio="xMidYMid meet" xmlns:v="https://vecta.io/nano"><path d="M126.8 21.8c-2.8 4.9-19.1 31-20.5 32.7-.5.5-5.8 8.9-11.9 18.5-29.2 46.1-36.7 64.7-36.6 91 .1 35.1 22.1 66.1 53.7 75.5 8.6 2.6 25.5 2.8 34.2.5 24.4-6.4 42.7-23.6 51.8-48.5 1.3-3.6 2.1-6.5 1.9-6.5s.1-1.1.6-2.5c2.9-7.6 2.9-26.6 0-39.3-1.9-8.7-7.3-23.9-9.1-25.7-.5-.5-.9-1.5-.9-2.2 0-2.2-14.1-25.9-31.7-53.4L136 26.7c-3-4.9-5.6-9-6-9.2-.3-.2-1.8 1.7-3.2 4.3zm18.3 85.7c19.2 30.5 22.9 39.4 22.4 54.5-.8 23.7-20.3 41.7-42 38.8-15-2-27.1-13.1-32-29.5-1.8-5.8-1.2-20.5 1-26.8 2.8-8.1 10.1-21.7 17.6-32.6 2.1-3.2 3.9-6.2 3.9-6.7s.6-1.5 1.4-2.1c.7-.6 3.8-5.2 6.7-10.1 4.1-6.8 5.7-8.6 6.5-7.7.7.7 7.1 10.6 14.5 22.2z" fill="#fff"/></svg>