<svg xmlns="http://www.w3.org/2000/svg" xmlns:xlink="http://www.w3.org/1999/xlink" width="29.958" height="29.958" fill="none" xmlns:v="https://vecta.io/nano"><defs><path id="A" d="M0 0h29.958v29.958H0z"/><path id="B" d="M0 0h24v23.768H0z"/></defs><g transform="matrix(1 0 0 1 0 0)"><mask id="D" fill="#fff"><use xlink:href="#A"/></mask><g mask="url(#D)"><g transform="matrix(1 0 0 1 2.979125 3.095179)"><mask id="D" fill="#fff"><use xlink:href="#B"/></mask><g mask="url(#D)"><path fill-rule="evenodd" transform="matrix(1 0 0 1 4.507126 1.24849)" d="M11.238 15.988c-.1.04-.19.12-.24.22l-1.63 3.65c-.07.14-.05.3.04.42.09.13.24.19.39.18a.44.44 0 0 0 .35-.25l1.63-3.65c.1-.21.01-.47-.21-.56a.42.42 0 0 0-.33-.01zm1.395 1.894l-.87 1.95c-.1.21 0 .46.21.56.21.09.47 0 .56-.22l.88-1.94c.09-.22 0-.47-.22-.56-.21-.1-.46 0-.56.21zM2.77 17.57c-.1.22-.17.45-.2.69.51.01.95.35 1.1.84.15.48-.03 1.01-.45 1.31.24.26.54.48.87.62a2.62 2.62 0 0 0 3.47-1.31l7.18-15.99a2.69 2.69 0 0 0 .06-2.01c-.25-.65-.75-1.17-1.38-1.46-.27-.12-.55-.19-.84-.22L12.11 0H2.62A2.63 2.63 0 0 0 0 2.62c0 1.45 1.18 2.63 2.62 2.63h5.17c.04 0 .08.01.12.03.18.07.25.28.17.45 0 .01 0 .01-.01.02l-5.3 11.82zM4.582 2.593c0-1.03-.83-1.86-1.86-1.86s-1.86.83-1.86 1.86.83 1.86 1.86 1.86 1.86-.83 1.86-1.86z" fill="#3cffdc"/></g></g></g></g></svg>