<svg xmlns="http://www.w3.org/2000/svg" width="128" height="128" fill="none" xmlns:v="https://vecta.io/nano"><path fill-rule="evenodd" d="M82.546 32.212c1.304.754 2.278 2.237 2.774 4.559s.477 5.34-.09 8.883c-.238 1.488-.57 3.056-.996 4.689-3.409-.795-7.154-1.391-11.127-1.75-2.298-3.268-4.686-6.22-7.079-8.781 1.198-1.184 2.388-2.257 3.555-3.207 2.779-2.263 5.379-3.789 7.635-4.52s4.024-.628 5.328.127zm-20.123 7.6c-1.198-1.184-2.387-2.257-3.554-3.207-2.779-2.263-5.379-3.789-7.635-4.52s-4.024-.628-5.328.127-2.278 2.237-2.774 4.559-.477 5.34.09 8.883c.238 1.488.57 3.056.995 4.689 3.409-.795 7.154-1.391 11.127-1.75 2.298-3.268 4.686-6.22 7.079-8.781zm1.803-1.855a52.46 52.46 0 0 0-3.726-3.36c-2.922-2.38-5.803-4.11-8.468-4.974s-5.258-.9-7.417.349-3.424 3.517-4.01 6.261-.53 6.109.065 9.834a52.66 52.66 0 0 0 1.042 4.914 52.4 52.4 0 0 0-4.77 1.553c-3.519 1.346-6.455 2.98-8.535 4.861S25 61.504 25 64s1.327 4.726 3.407 6.607 5.016 3.515 8.535 4.861a52.4 52.4 0 0 0 4.77 1.553 52.66 52.66 0 0 0-1.042 4.914c-.596 3.725-.651 7.09-.065 9.834s1.85 5.012 4.01 6.261 4.752 1.212 7.417.349 5.546-2.594 8.468-4.974a52.46 52.46 0 0 0 3.726-3.36 52.53 52.53 0 0 0 3.726 3.36c2.923 2.38 5.803 4.11 8.469 4.974s5.258.9 7.417-.349 3.424-3.517 4.01-6.261.53-6.109-.065-9.834c-.251-1.567-.599-3.21-1.042-4.914a52.38 52.38 0 0 0 4.77-1.553c3.519-1.346 6.455-2.98 8.535-4.861s3.407-4.111 3.407-6.607-1.328-4.726-3.407-6.607-5.016-3.515-8.535-4.861a52.38 52.38 0 0 0-4.77-1.553c.443-1.704.791-3.347 1.042-4.914.596-3.725.651-7.09.065-9.834s-1.851-5.012-4.01-6.261-4.752-1.212-7.417-.348-5.546 2.594-8.469 4.974c-1.229 1.001-2.475 2.124-3.726 3.36zm19.303 14.878c-2.64-.61-5.501-1.1-8.53-1.448.988 1.515 1.953 3.088 2.889 4.712a100.96 100.96 0 0 1 2.628 4.861c1.214-2.802 2.221-5.529 3.013-8.124zM81.987 64c1.676-3.628 3.034-7.175 4.051-10.531 1.622.447 3.143.943 4.547 1.48 3.346 1.28 5.964 2.772 7.724 4.363s2.555 3.178 2.555 4.688-.795 3.097-2.555 4.689-4.378 3.083-7.724 4.363c-1.404.537-2.925 1.033-4.547 1.48-1.017-3.356-2.375-6.904-4.051-10.531zm-2.857 0c-1.042-2.179-2.203-4.39-3.481-6.607s-2.609-4.331-3.973-6.325c-2.404-.186-4.896-.284-7.451-.284a96.85 96.85 0 0 0-7.451.284 97.24 97.24 0 0 0-3.972 6.325c-1.278 2.217-2.439 4.428-3.481 6.607 1.042 2.179 2.203 4.39 3.481 6.607s2.609 4.331 3.972 6.325a96.85 96.85 0 0 0 7.451.284c2.555 0 5.046-.098 7.451-.284a97.24 97.24 0 0 0 3.973-6.325c1.278-2.217 2.439-4.428 3.481-6.607zm-4.131 12.614c.988-1.515 1.953-3.088 2.889-4.712a100.96 100.96 0 0 0 2.628-4.861c1.214 2.802 2.221 5.529 3.013 8.124-2.64.61-5.501 1.1-8.53 1.448zm-5.256 3.038c-1.804.099-3.646.15-5.517.15s-3.714-.051-5.517-.15c1.815 2.455 3.67 4.692 5.517 6.677 1.847-1.985 3.702-4.222 5.517-6.677zm-3.714 8.537c2.393-2.561 4.781-5.513 7.079-8.781 3.973-.359 7.718-.956 11.127-1.75.425 1.632.758 3.201.996 4.689.567 3.543.586 6.561.09 8.883s-1.47 3.805-2.774 4.559-3.072.858-5.328.127-4.855-2.257-7.635-4.52c-1.167-.95-2.356-2.023-3.555-3.207zm-3.606 0c-2.393-2.561-4.781-5.513-7.079-8.781-3.973-.359-7.718-.956-11.127-1.75-.425 1.632-.757 3.201-.995 4.689-.567 3.543-.586 6.561-.09 8.883s1.469 3.805 2.774 4.559 3.073.858 5.328.127 4.855-2.257 7.635-4.52a49.92 49.92 0 0 0 3.555-3.207zm-17.5-13.023c2.64.61 5.501 1.1 8.53 1.448-.988-1.515-1.953-3.088-2.889-4.712a100.96 100.96 0 0 1-2.628-4.861c-1.214 2.802-2.221 5.529-3.013 8.124zm3.013-14.207a100.96 100.96 0 0 1 2.628-4.861c.936-1.624 1.901-3.197 2.889-4.712-3.029.348-5.891.838-8.53 1.448.792 2.595 1.799 5.322 3.013 8.124zM46.464 64c-1.676 3.628-3.034 7.175-4.051 10.531a49.83 49.83 0 0 1-4.547-1.48c-3.346-1.28-5.964-2.772-7.724-4.363S27.586 65.511 27.586 64s.796-3.097 2.555-4.688 4.378-3.083 7.724-4.363a49.83 49.83 0 0 1 4.547-1.48c1.018 3.356 2.375 6.904 4.051 10.531zm12.244-15.652c1.803-.099 3.646-.15 5.517-.15s3.714.051 5.517.15c-1.815-2.454-3.67-4.692-5.517-6.677-1.847 1.985-3.702 4.223-5.517 6.677zM71.295 64c0 3.911-3.165 7.082-7.069 7.082S57.156 67.911 57.156 64s3.165-7.082 7.069-7.082 7.069 3.171 7.069 7.082z" fill="#61dafb"/></svg>