<svg xmlns="http://www.w3.org/2000/svg" width="500" height="500" fill="none" xmlns:v="https://vecta.io/nano"><g filter="url(#B)"><mask id="A" mask-type="alpha" maskUnits="userSpaceOnUse" x="110" y="122" width="280" height="255"><path fill-rule="evenodd" d="M338.164 152.912c3.505-13.098-4.259-26.56-17.341-30.069s-26.53 4.263-30.035 17.36l-10.661 39.833h-31.711l7.259-27.124c3.506-13.098-4.258-26.56-17.34-30.069s-26.53 4.263-30.036 17.36l-10.661 39.833h-45.279c-13.544 0-24.524 10.992-24.524 24.551s10.98 24.551 24.524 24.551h32.137l-8.363 31.247h-41.609c-13.544 0-24.524 10.992-24.524 24.551s10.98 24.551 24.524 24.551h28.467l-9.796 36.601c-3.506 13.098 4.258 26.56 17.34 30.069s26.53-4.263 30.035-17.36l13.198-49.31h31.711l-9.796 36.601c-3.506 13.098 4.258 26.56 17.341 30.069s26.529-4.263 30.035-17.36l13.197-49.31h51.177c13.544 0 24.523-10.991 24.523-24.551s-10.979-24.551-24.523-24.551h-38.034l8.363-31.247h47.506c13.544 0 24.524-10.992 24.524-24.551s-10.98-24.551-24.524-24.551h-34.364l7.26-27.124zM226.91 260.385h31.711l8.363-31.247h-31.711l-8.363 31.247z" fill="#fff"/></mask><g mask="url(#A)"><path transform="matrix(.710456 .703741 -.710456 .703741 215.357 6.89575)" fill="#fff" d="M0 0h346.472v104.267H0z"/><path transform="matrix(.710456 .703741 -.710456 .703741 141.28 80.2732)" fill="#fff" d="M0 0h346.472v104.267H0z"/><path transform="matrix(.710456 .703741 -.710456 .703741 67.2024 153.65)" fill="#fff" d="M0 0h346.472v104.267H0z"/></g></g><defs><filter id="B" x="100" y="115" width="299.792" height="275" filterUnits="userSpaceOnUse" color-interpolation-filters="sRGB"><feFlood flood-opacity="0" result="A"/><feColorMatrix in="SourceAlpha" values="0 0 0 0 0 0 0 0 0 0 0 0 0 0 0 0 0 0 127 0"/><feOffset dy="3"/><feGaussianBlur stdDeviation="5"/><feColorMatrix values="0 0 0 0 0 0 0 0 0 0 0 0 0 0 0 0 0 0 0.25 0"/><feBlend in2="A"/><feBlend in="SourceGraphic" result="C"/><feColorMatrix in="SourceAlpha" values="0 0 0 0 0 0 0 0 0 0 0 0 0 0 0 0 0 0 127 0" result="D"/><feOffset dy="25"/><feGaussianBlur stdDeviation="2.5"/><feComposite in2="D" operator="arithmetic" k2="-1" k3="1"/><feColorMatrix values="0 0 0 0 1 0 0 0 0 1 0 0 0 0 1 0 0 0 0.1 0"/><feBlend in2="C"/></filter></defs></svg>