<svg xmlns="http://www.w3.org/2000/svg" xmlns:xlink="http://www.w3.org/1999/xlink" viewBox="0 0 263.8 213.2" xmlns:v="https://vecta.io/nano"><path fill="#e6e7e8" d="M60.7 62l26.1-30 69.4-9.4 19 30.7 29.2 15.8 29.2 103.4-42.6 15-68.7-7.9-80.5 3.2-11.9-47.4 17.4-10.2 5.5-61.6z"/><path fill="#a7a9ac" d="M42.2 182.7l-9.8-39.1L47.2 156l35.5-4.3L99.4 181z"/><path fill="#bcbec0" d="M82.7 151.7h114.5l15.5-54.5 21.2 74.9-50.9 16.2-68.7-7.9-14.9.6z"/><g fill="#f1f2f2"><g stroke="#000" stroke-width="4"><circle cx="86.4" cy="80.9" r="16.3"/><circle cx="137.7" cy="68.6" r="20.5"/></g><use xlink:href="#B"/></g><g stroke="#000"><use xlink:href="#B" fill="none" stroke-width="4" stroke-miterlimit="10"/><circle stroke-width="2" cx="88.4" cy="80.9" r="5.6"/><g stroke-width="4"><circle cx="137.7" cy="68.6" r="5.6"/><path fill="none" stroke-miterlimit="10" d="M61 61.6l26-30 69.5-9.4 18.9 30.7 29.3 15.8 29.2 103.4-42.7 15-68.6-7.9-80.6 3.2L30.2 135l17.4-10.2 5.5-61.6z"/></g></g><defs ><path id="B" d="M171.5 96c-2.2-6.9-1.1 2.7-33.3 12.8-38.3 12.1-36.3 5.1-33.3 12.8s20.3 8.2 38.7 1.2S174 103.9 171.5 96z"/></defs></svg>