<svg xmlns="http://www.w3.org/2000/svg" width="32" height="32" fill="none" fill-rule="evenodd" xmlns:v="https://vecta.io/nano"><path d="M20.171 10.814c.09-.47-.07-.83-.45-.94-.53-.15-.96.11-1.01.6-.05.42.14.75.45.83.52.12.92-.07 1.01-.49z" fill="#eccb47"/><path d="M23.93 22.107c.06-.2.07-.77.07-5.24l-.06-4.99c-.06.02-.07-.08-.07-.73 0-.94-.08-1.27-.37-1.58-.26-.29.37-.26-7.37-.28-5.03-.01-7.06 0-7.18.04-.46.12-.71.47-.78 1.06-.06.46-.06 1.28 0 1.32.07.04.04.13-.04.15-.05.02-.08.08-.1.19-.02.09-.03 2.27-.03 4.86 0 5.41 0 5.33.33 5.65a1.44 1.44 0 0 0 .33.2c.2.08.41.08 7.33.08l7.35-.08a.96.96 0 0 0 .59-.65z" fill="#fff"/><path d="M23.043 11.228c.2-.11.28-.31.28-.65s-.07-.5-.28-.63c-.18-.11-.5-.14-.71-.08-.32.1-.48.34-.48.69 0 .37.13.6.4.73.17.08.61.05.79-.06z" fill="#da575d"/><path d="M21.596 11.121c.13-.14.14-.18.16-.46.03-.54-.19-.79-.71-.79-.36 0-.55.08-.67.28-.08.13-.09.19-.07.51.02.36.02.36.17.5.09.07.21.15.26.15.36.08.67 0 .86-.19z" fill="#21a6af"/><path d="M14.801 20.377c.29 0 .38-.01.41-.06.02-.04.49-1.33 1.06-2.89l1.07-2.94c.06-.15.03-.16-.41-.14-.34.01-.36.01-.39.11-.01.06-.5 1.41-1.08 2.99l-1.04 2.91c.01.01.18.02.38.02zm-2.088-3.892l1.12-.64c.04-.06.05-.88.02-.9-.02-.01-.62.31-1.35.7l-1.88 1.02c-.54.29-.56.3-.56.44 0 .09.03.15.09.19s.9.5 1.87 1.04l1.8.97c.02 0 .03-.15.04-.34l.01-.45c0-.1-.07-.15-.97-.65l-1.12-.61c-.09-.04-.16-.09-.16-.12 0-.02.49-.32 1.09-.65zm5.464-1.553c-.02-.01-.03.19-.02.46l.01.47 1.1.61 1.12.63c.02.02-.48.32-1.1.66l-1.14.63v.46c0 .24.02.45.04.45.01 0 .55-.29 1.19-.64l1.85-1.01.73-.46c.02-.05.02-.11 0-.15-.01-.06-.71-.46-1.88-1.09l-1.9-1.02zm5.208-5.681c-.11-.07-.7-.07-7.26-.09-5.12-.01-7.18 0-7.3.04-.27.07-.5.25-.63.49-.15.28-.2.74-.19 1.55l.02.59 7.93.02 7.98.02c.06-.01.08-1.46.02-1.75-.09-.41-.29-.72-.57-.87zm-3.463 1.731c.08-.09.15-.37.13-.53-.02-.17-.25-.4-.47-.45-.42-.12-.84.31-.72.75.1.38.51.55.88.36a.83.83 0 0 0 .18-.13zm1.652-.652c-.22-.42-.83-.45-1.07-.05-.08.12-.09.19-.07.38.02.21.04.26.18.38a.55.55 0 0 0 .37.17.99.99 0 0 0 .19-.03c.36-.1.56-.53.4-.85zm1.549-.049c-.24-.36-.7-.4-.98-.09a.57.57 0 0 0-.01.78.58.58 0 0 0 .79.13c.26-.15.36-.58.2-.82z" fill="#2f4c5a"/></svg>