<svg xmlns="http://www.w3.org/2000/svg" viewBox="0 0 1024 1024" width="128" height="128" fill="#2c2c2c" xmlns:v="https://vecta.io/nano"><path d="M288.468 288.812H83.083c-18.922 0-34.231-15.309-34.231-34.059s15.309-34.059 34.231-34.059h205.213c18.922 0 34.231 15.309 34.231 34.059s-15.309 34.059-34.059 34.059h0zm-8.429 337.148H83.083c-18.922 0-34.231-15.309-34.231-34.059s15.309-34.059 34.231-34.059h196.956c18.922 0 34.231 15.309 34.231 34.059s-15.309 34.059-34.231 34.059h0zm-40.423-168.918H83.083c-18.922 0-34.231-15.309-34.231-34.231s15.309-34.231 34.231-34.231h156.533c18.922 0 34.231 15.309 34.231 34.231s-15.309 34.231-34.231 34.231h0zm220.35 344.028H83.255c-18.922 0-34.231-15.309-34.231-34.231s15.309-34.059 34.231-34.059h376.711c18.922 0 34.231 15.309 34.231 34.231 0 18.75-15.309 34.059-34.231 34.059h0zm-39.219-374.991c0-115.765 94.436-210.029 210.545-210.029s210.545 94.092 210.545 210.029-94.436 210.029-210.545 210.029-210.545-94.264-210.545-210.029h0 0zm547.005 390.128L820.335 623.723c52.292-49.884 85.147-119.894 85.147-197.472 0-150.684-122.99-273.33-274.19-273.33s-274.19 122.646-274.19 273.33 122.99 273.33 274.19 273.33c48.68 0 94.264-12.901 133.999-35.091l147.932 193.172c6.709 8.773 17.029 13.589 27.178 13.589 7.225 0 14.621-2.236 20.642-7.053 15.309-11.697 18.061-33.199 6.709-47.992h0 0zM778.708 424.875c0 81.019-65.709 146.556-146.556 146.556s-146.556-65.709-146.556-146.556 65.709-146.556 146.556-146.556 146.556 65.709 146.556 146.556z"/></svg>