<svg xmlns="http://www.w3.org/2000/svg" xmlns:xlink="http://www.w3.org/1999/xlink" width="16" height="20" xmlns:v="https://vecta.io/nano"><defs><path id="A" d="M.62 18.429L.001 1.921C-.02 1.376.398.914.943.88L14.984.002c.554-.035 1.032.387 1.066.941l.002.063v17.989c0 .555-.45 1.006-1.006 1.006-.015 0-.03 0-.045-.001L1.58 19.396c-.523-.023-.94-.444-.96-.967z"/></defs><g fill-rule="evenodd"><mask id="B" fill="#fff"><use xlink:href="#A"/></mask><g fill-rule="nonzero"><use fill="#ff4785" xlink:href="#A"/><path d="M11.854 2.458L11.95.152 13.878 0l.083 2.379a.15.15 0 0 1-.243.123l-.744-.586-.88.668a.15.15 0 0 1-.241-.126zm-2.466 5.08c0 .391 2.635.204 2.989-.071 0-2.664-1.429-4.064-4.047-4.064S4.245 4.825 4.245 6.957c0 3.714 5.012 3.785 5.012 5.811 0 .569-.278.906-.891.906-.798 0-1.114-.408-1.077-1.794 0-.301-3.045-.394-3.137 0-.236 3.359 1.856 4.328 4.251 4.328 2.321 0 4.14-1.237 4.14-3.476 0-3.981-5.087-3.874-5.087-5.847 0-.8.594-.906.947-.906.371 0 1.04.065.984 1.558z" mask="url(#B)" fill="#fff"/></g></g></svg>