<svg xmlns="http://www.w3.org/2000/svg" xmlns:xlink="http://www.w3.org/1999/xlink" width="30" height="30" fill="none" xmlns:v="https://vecta.io/nano"><defs><path id="A" d="M0 0h16v16H0z"/></defs><g transform="translate(7 7)"><mask id="B" fill="#fff"><use xlink:href="#A"/></mask><g mask="url(#B)" fill-rule="evenodd"><path transform="matrix(1 0 0 1 0 .000475)" d="M4.53 2.34c-.55.29-1.18.38-1.79.25-.54-.12-1.1.07-1.46.49a8.03 8.03 0 0 0-1.17 1.9A1.32 1.32 0 0 0 .4 6.46c.41.41.65.96.65 1.54S.81 9.13.4 9.54a1.32 1.32 0 0 0-.29 1.48c.3.69.7 1.33 1.18 1.9a1.49 1.49 0 0 0 1.46.48 2.72 2.72 0 0 1 1.79.26c.52.28.92.74 1.11 1.3a1.39 1.39 0 0 0 1.18.96c.78.1 1.56.1 2.33 0 .55-.06 1.01-.43 1.19-.96.19-.56.6-1.03 1.13-1.3a2.71 2.71 0 0 1 1.79-.26c.53.12 1.1-.06 1.45-.48.48-.57.88-1.21 1.18-1.9.23-.5.11-1.1-.29-1.48a2.17 2.17 0 0 1 0-3.08c.4-.38.52-.98.29-1.48-.3-.69-.7-1.33-1.18-1.9-.36-.42-.92-.61-1.46-.49a2.61 2.61 0 0 1-1.78-.25c-.53-.27-.94-.74-1.13-1.3A1.44 1.44 0 0 0 9.17.07c-.78-.09-1.56-.09-2.33 0-.55.07-1.02.44-1.19.97a2.39 2.39 0 0 1-1.12 1.3z" fill="#787878"/><path transform="matrix(1 0 0 1 4.776055 4.777599)" d="M.25 1.99A3.22 3.22 0 0 0 .94 5.5c.93.92 2.31 1.2 3.52.7a3.23 3.23 0 0 0 1.99-2.98C6.44 1.44 5 0 3.23 0 1.92 0 .75.78.25 1.99zm2.98-.692c-.78 0-1.49.47-1.78 1.19-.3.72-.14 1.55.41 2.1.56.55 1.38.71 2.1.41a1.93 1.93 0 0 0 1.19-1.78 1.92 1.92 0 0 0-1.92-1.92z" fill="#fff"/></g></g></svg>