<svg xmlns="http://www.w3.org/2000/svg" viewBox="0 0 159.7 116.9" xmlns:v="https://vecta.io/nano"><path fill="#00bcb4" d="M54.7 110.7H9l11.9-28.1h32L88.5 0H50.3L22.2 65.3h17.2c1.2 2 3.4 3.4 5.9 3.4 3.8 0 6.9-3.1 6.9-6.9S49.1 55 45.3 55c-2.8 0-5.1 1.6-6.2 4h-8.2L54.2 6.2h25L49.1 76.3l-31.7.2L0 116.9h58.8l7.7-16.8H92l8.5 16.8h59.1L106.3 0 54.7 110.7zm15.1-17.2L79 73.4l10 20.1H69.8zm34.7 17.9l-5.8-11.7h18.2c1.2 2.2 3.5 3.7 6.1 3.7 3.8 0 6.9-3.1 6.9-6.9s-3.1-6.9-6.9-6.9c-2.8 0-5.2 1.7-6.3 4.1H95.9L82 66.7l10.2-22.4 11.5 23.4h5.4c1.1 2.3 3.5 4 6.2 4 3.8 0 6.9-3.1 6.9-6.9s-3.1-6.9-6.9-6.9a6.85 6.85 0 0 0-6.4 4.4h-2L95 38.1l11.3-24.8 44.4 98.1h-46.2z"/></svg>