<svg xmlns="http://www.w3.org/2000/svg" viewBox="0 0 1024 1024" width="128" height="128" xmlns:v="https://vecta.io/nano"><path d="M953.474 908.235L800.898 744.993c61.925-74.482 95.812-167.37 95.812-265.074 0-229.295-186.635-415.93-416.102-415.93-229.295 0-415.93 186.635-415.93 415.93s186.635 415.93 415.93 415.93c60.033 0 118.002-12.557 172.186-37.327 16.169-7.397 23.222-26.318 15.825-42.315-7.397-16.169-26.318-23.222-42.315-15.825-45.928 20.814-94.952 31.479-145.696 31.479-194.032 0-351.941-157.909-351.941-351.941s157.909-351.941 351.941-351.941 351.941 157.909 351.941 351.941c0 91.339-34.919 177.863-98.048 243.744-12.213 12.729-11.869 33.027.86 45.24 1.032.86 2.236 1.204 3.268 2.064.86 1.204 1.376 2.752 2.408 3.956l165.478 177.003c6.193 6.709 14.793 10.149 23.394 10.149 7.913 0 15.653-2.924 21.846-8.601 13.073-12.041 13.761-32.339 1.72-45.24z" fill="#fff"/></svg>