<svg xmlns="http://www.w3.org/2000/svg" viewBox="0 0 300 196.5" xmlns:v="https://vecta.io/nano"><defs><linearGradient id="A" x1="158.418" x2="277.064" y1="127.377" y2="8.732" gradientUnits="userSpaceOnUse"><stop offset="0" stop-color="#1d0054"/><stop offset="1" stop-color="#4c5fec"/></linearGradient><linearGradient id="B" x1="137.86" x2="137.86" y1="179.13" y2="22.83" gradientUnits="userSpaceOnUse"><stop offset="0" stop-color="#00dccc"/><stop offset="1" stop-color="#c7f0b9"/></linearGradient></defs><circle cx="188.08" cy="97.71" r="60.79" transform="matrix(.707107 -.707107 .707107 .707107 -14.01 161.61)" opacity=".8" fill="url(#A)"/><path d="M219.78 98q0 3.41-.28 6.73 0 .73-.12 1.47a82.17 82.17 0 0 1-3.52 16.91l-.53 1.59A81.94 81.94 0 0 1 55.94 98l.05-2.59a81.42 81.42 0 0 1 1.75-14.5A81.51 81.51 0 0 1 74.54 46a81.89 81.89 0 0 1 145.24 52z" opacity=".8" fill="url(#B)"/></svg>