<svg xmlns="http://www.w3.org/2000/svg" width="1152" height="1152" viewBox="0 0 864 864" preserveAspectRatio="xMidYMid meet" fill="#18bceb" xmlns:v="https://vecta.io/nano"><path d="M409.8 168.5c-.2.2-3.7.6-7.8 1-10.2.9-13.1 1.3-16 2-1.4.3-3.9.7-5.5.9-2.5.4-10.5 2.1-18.5 4.1-8.4 2.1-25.9 8.2-30.2 10.6-1 .5-2.4.9-3.2.9s-1.6.3-1.8.7c-.1.5-3.7 2.5-7.8 4.7-7.9 4.1-21.4 12.8-26.5 17.1-1.6 1.4-4.1 3.5-5.5 4.6-4.9 4.1-14.6 13.7-19.2 19.1-5.2 6-14.8 18.6-14.8 19.4 0 .3-1.1 2-2.5 3.8s-2.5 3.7-2.5 4.1c0 .5-.6 1.6-1.4 2.4-1.9 2.1-15.6 29.6-15.6 31.3 0 .8-.4 1.8-.9 2.3-1.1 1.3-9.4 25.7-12 35.5l-2 7.5 2-2.5c9.6-11.9 10.6-13 18.8-21.5 7.1-7.3 8.4-8.4 16.6-15 2.8-2.2 5.2-4.2 5.5-4.5 1.1-1.2 13.8-9 19.2-11.8 8.3-4.4 21.1-9 29.8-10.7.8-.2 2.6-.6 4-.9 10-2.3 31-2.3 43.5-.1l5.5 1c11.7 2.1 28.7 9.2 39.7 16.6 11.5 7.8 24.9 19.5 45.7 40.2 29 28.8 38.9 38.2 47.6 44.7 1.9 1.4 4.5 3.4 5.9 4.6s6.7 4.8 11.6 8c12.3 8 12.4 8.1 17.5 10.7 2.5 1.2 4.7 2.5 4.8 2.9a1.3 1.3 0 0 0 1.2.8c.4 0 4.1 1.5 8.2 3.4 12.2 5.7 36.7 13.6 47.1 15.1 2.3.4 4.5.9 4.8 1.1.4.2 3.1.7 6.1 1 2.9.3 5.6.7 5.9.9s4.1.7 8.5 1l11.4 1.1c4.3.4 35.7.5 42.5 0 5.9-.4 17.2-1.7 20-2.2 1.1-.2 3.8-.6 6-.9s5.1-.7 6.5-1c1.4-.4 3.6-.8 5-1.1a100.21 100.21 0 0 0 4.5-1.1c1.1-.4 2.7-.7 3.5-.8 6.3-.7 33.1-10.6 42-15.5l8-4.2c3.3-1.6 18.8-12 22-14.7l5-4.2c32.4-27.5 56.3-67.9 70-118.7.6-2.4 1.4-5.1 1.7-5.9.7-1.9-2.9 1.4-4.3 4-.5.8-3.4 4.4-6.5 7.9-29.4 33.1-55.3 48.6-91.4 54.4-7.2 1.2-27.8.6-36.5-1-12.7-2.3-14.3-2.6-15.4-3.4-.6-.3-2-.8-3.1-.9-2.3-.3-3.4-.8-13-5.4-8.7-4.1-16.1-8.7-24.5-15.3-9.7-7.5-11.6-9.3-33.9-31.3-29.5-29.3-41.7-40.6-52.2-48.6-20.5-15.5-41.9-27.4-61.4-34.2a221.58 221.58 0 0 1-6.5-2.3c-3.9-1.4-21.2-6-25.1-6.6-1.9-.3-4.5-.8-5.9-1.1-4.3-.9-10.4-1.8-22-3.2-4.4-.6-51.7-1.3-52.2-.8zm-213 259c-.2.2-3.9.6-8.3.9-4.4.4-10.7 1.1-14 1.6l-10 1.5c-2.2.3-5.8 1.1-8 1.7s-4.9 1.2-6 1.3-2 .3-2 .4c0 .2-1.1.5-2.5.8-3 .6-4.1.8-6 1.5-.8.3-5.1 1.8-9.5 3.3-8.8 3-13.2 4.9-24.7 10.5-7.9 3.9-22 12.8-22.6 14.2-.2.4-.8.8-1.3.8-1.9 0-9.4 6.5-20.9 18.1-14.2 14.2-19.5 21.1-29.3 37.2-4.8 7.9-11.8 21.1-11.8 22.4-.1.5-.6 1.4-1.2 2.2-.6.7-1.7 2.7-2.3 4.5L7 575.5c-.5 1.1-1.1 2.9-1.3 4l-3.1 11c-2.8 10-2.9 10 4.9-.1 4-5.2 23.8-25.1 29.5-29.5 6.7-5.3 18.9-13.3 24-15.8 2.5-1.2 5.2-2.6 6-3 2.1-1.2 9.2-4 11-4.3.8-.2 1.7-.5 2-.8.7-.8 15.5-4.2 21-4.9 6-.8 30.5-.7 35.5.1 21.6 3.6 37.9 10.3 54.5 22.5 11 8.1 18.2 14.7 44.5 40.8 23 22.9 29.6 29.2 37.1 35.2 12.6 10.2 15.4 12.3 16.3 12.3.5 0 1.4.6 1.8 1.3.7 1.1 6 4.6 18.3 12.2 1.9 1.1 7.8 4.2 13 6.7 8 3.8 13.6 6.1 32 12.6.8.3 2.2.6 3.1.8l7.5 1.9c3.2.9 7 1.8 8.4 2.1 1.4.2 4.8.9 7.5 1.4 2.8.5 7 1.2 9.5 1.5s5.6.8 7 1c9.8 1.6 40.5 2.2 56.5 1.1 13.2-.9 17.1-1.4 28-3.2 5.1-.8 17.9-3.6 19.5-4.2.8-.3 2-.6 2.5-.7.6-.1 1.2-.3 1.5-.4.3-.2 1.2-.4 2-.6 11.9-2.7 35.2-13 48.9-21.5 19.9-12.5 45.2-37.3 54.7-53.8 1-1.7 2.2-3.2 2.6-3.2s.8-.4.8-1c0-.5 1.5-3.3 3.4-6.3 2.8-4.3 7.5-13.7 15.6-31.2 1.1-2.3 6.1-15.5 6.5-17 .1-.6.5-1.7.8-2.5.6-1.6 4.6-14.6 5.2-17 .2-.8.9-3 1.4-4.9l1.1-3.4-2.8 2.9c-1.5 1.6-4.6 5.1-6.7 7.9-6.2 7.7-27.6 28.5-29.4 28.5-.5 0-1.1.4-1.3.9-.4 1-13.7 9.9-19.3 12.9-9.4 5-23.4 10.5-30.3 11.8-16.3 3.1-31.1 3.7-45 1.8-4.9-.7-10-1.5-11.1-1.9-1.1-.3-3.3-.8-4.8-1.1-8.6-1.5-24.1-8.4-34.6-15.6-14.3-9.7-16.6-11.7-46.2-41L387 493c-7.4-6.9-25.1-21.1-32.5-26l-7-4.8c-4.8-3.7-33.7-18.2-34.1-17 0 .2-.7-.2-1.5-.8-1.9-1.6-22-8-32.2-10.3-9.3-2.1-18.8-3.8-26.2-4.6l-9-1.1c-4.1-.5-47.2-1.3-47.7-.9z"/></svg>