<svg xmlns="http://www.w3.org/2000/svg" width="130" height="130" fill="none" xmlns:v="https://vecta.io/nano"><ellipse cx="46.827" cy="82.679" rx="12.243" ry="12.229" transform="rotate(180 46.827 82.679)" fill="#24c8db"/><g fill-rule="evenodd"><path d="M92.793 86.875c-4.941 3.19-10.415 5.404-16.129 6.555 1.169-3.368 1.805-6.986 1.805-10.751 0-1.366-.084-2.712-.246-4.034 2.458-.855 4.818-2.003 7.026-3.429a32.82 32.82 0 0 0 12.12-14.081c2.598-5.761 3.476-12.15 2.527-18.397s-3.683-12.088-7.875-16.821-9.662-8.156-15.755-9.858-12.547-1.611-18.589.263-11.413 5.45-15.469 10.299c-.52.621-1.015 1.26-1.485 1.914-6.259.695-12.321 2.464-17.927 5.201a46.68 46.68 0 0 1 8.746-16.016A46.75 46.75 0 0 1 53.557 3.065a46.8 46.8 0 0 1 26.453-.374 46.75 46.75 0 0 1 22.42 14.028c5.966 6.735 9.857 15.047 11.207 23.938a46.64 46.64 0 0 1-3.597 26.18 46.7 46.7 0 0 1-17.247 20.038zM23.353 42.253l11.46 1.406a32.78 32.78 0 0 1 1.479-6.491 46.79 46.79 0 0 0-12.939 5.085z" fill="#ffc131"/><path d="M21.373 43.463c4.978-3.214 10.498-5.437 16.257-6.581-1.302 3.532-2.013 7.349-2.013 11.333a33.13 33.13 0 0 0 .188 3.527 32.86 32.86 0 0 0-6.888 3.38 32.82 32.82 0 0 0-12.12 14.081c-2.598 5.761-3.476 12.15-2.527 18.397s3.683 12.088 7.875 16.821a32.85 32.85 0 0 0 15.755 9.858c6.092 1.702 12.547 1.611 18.589-.263s11.413-5.45 15.469-10.299c.522-.625 1.02-1.267 1.492-1.925 6.264-.705 12.328-2.486 17.934-5.237-1.823 5.853-4.791 11.316-8.761 16.062-5.772 6.901-13.416 11.99-22.014 14.657s-17.784 2.796-26.453.374a46.76 46.76 0 0 1-22.42-14.029A46.67 46.67 0 0 1 .529 89.681C-.821 80.791.427 71.7 4.125 63.501a46.71 46.71 0 0 1 17.248-20.038zm57.444 49.461l-.937.227.937-.227z" fill="#24c8db"/></g></svg>