<svg xmlns="http://www.w3.org/2000/svg" width="100%" height="100%" viewBox="0 0 218 53" fill-rule="evenodd" stroke-linejoin="round" stroke-miterlimit="1.41421" xmlns:v="https://vecta.io/nano"><path d="M12.528 2.108h8.352V1.1H.72v1.008h8.352v46.296c0 1.152-.072 1.8-.72 3.096h4.896c-.648-1.296-.72-1.944-.72-3.096V2.108zm29.65 28.368V51.5h4.176c-.648-1.296-.72-1.944-.72-3.096V1.1h-3.456v28.368H28.642V1.1h-3.456v50.4h3.456V30.476h13.536zm15.168 20.016v-26.28h12.528v-1.008H57.346V2.108h12.528V1.1H53.17c.648 1.296.72 1.944.72 3.096V51.5h20.304c1.224 0 2.16-.288 3.168-1.08l-.576-.792c-.864.576-1.8.864-2.88.864h-16.56zM92.842 51.5c-.864-1.224-1.008-2.304-1.152-3.168l-8.352-45c-.216-1.224-1.296-2.232-2.52-2.232h-3.312c.648 1.368.72 2.232.36 4.32l-6.912 39.168h1.008l1.224-6.84h13.032l1.944 10.584c.216 1.08.216 1.944-.288 3.168h4.968zm-6.84-14.76h-12.6l6.12-34.272s0-.072.072-.072.072.072.072.072l6.336 34.272zm20.112-34.632h8.352V1.1h-20.16v1.008h8.352v46.296c0 1.152-.072 1.8-.72 3.096h4.896c-.648-1.296-.72-1.944-.72-3.096V2.108zm57.37 46.872c-2.232 1.512-4.752 2.232-8.352 2.232-6.768 0-10.872-4.176-14.976-9.864-4.536-6.264-7.56-9.864-11.952-11.232 6.048-1.296 10.224-6.48 10.224-14.328 0-9.144-5.04-14.688-13.392-14.688h-6.264c.648 1.296.72 1.944.72 3.096V51.5h3.456V30.476h.504c6.552 0 7.776 4.68 13.608 12.528 4.896 6.624 9.648 9.36 17.568 9.36 3.528 0 6.768-.792 9.432-2.52l-.576-.864zm-17.352-7.848h15.408v-1.008h-11.952V17.732h11.952v-1.008h-11.952V2.108h11.952V1.1h-16.128c.648 1.296.72 1.944.72 3.096v36.936zm-23.184-11.664V2.108h1.224c7.92 0 10.512 5.4 10.512 13.68s-3.312 13.68-10.512 13.68h-1.224zm45.393 22.32a2.09 2.09 0 0 0 2.088-2.088 2.09 2.09 0 0 0-2.088-2.088 2.09 2.09 0 0 0-2.088 2.088 2.09 2.09 0 0 0 2.088 2.088zM191.14 1.1h-3.456v40.464c0 4.536-1.44 9.432-6.912 9.432-3.024 0-4.968-1.8-6.12-4.464l-2.088 1.224c1.44 2.376 4.104 4.248 8.208 4.248 6.552 0 10.368-4.104 10.368-10.08V1.1zm22.418 4.968c-1.152-2.664-3.096-4.464-6.12-4.464-4.104 0-5.832 3.672-5.832 7.344 0 2.736.936 5.4 2.592 7.992l10.008 15.336c2.304 3.528 3.456 6.768 3.456 9.936 0 5.76-3.96 9.792-10.152 9.792s-10.584-3.96-10.584-9v-1.8h3.672v1.44c0 4.536 2.232 8.352 6.912 8.352s6.552-3.816 6.552-8.352c0-2.736-1.008-5.688-3.24-9.072l-10.008-15.408c-1.944-3.024-2.664-5.472-2.664-8.712 0-5.184 3.816-8.856 9.288-8.856 4.104 0 6.768 1.872 8.208 4.248l-2.088 1.224z" stroke="#fff" fill="#fff" fill-rule="nonzero"/></svg>