<svg xmlns="http://www.w3.org/2000/svg" xmlns:xlink="http://www.w3.org/1999/xlink" width="104" height="104" fill="none" xmlns:v="https://vecta.io/nano"><g clip-path="url(#E)"><use xlink:href="#F" fill="#000" fill-opacity=".64"/><use xlink:href="#F" fill="url(#A)" fill-opacity=".15"/><use xlink:href="#F" fill="#000" fill-opacity=".5"/><use xlink:href="#G" stroke="url(#B)" stroke-opacity=".15"/><use xlink:href="#G" stroke="url(#C)" stroke-opacity=".5"/><path d="M51.888 37.926c-7.699 0-13.962 6.263-13.962 13.962S44.189 65.85 51.888 65.85 65.85 59.587 65.85 51.888s-6.263-13.962-13.962-13.962zm0 21.187c-3.991 0-7.225-3.234-7.225-7.225s3.234-7.225 7.225-7.225 7.225 3.234 7.225 7.225-3.234 7.225-7.225 7.225z" fill="#fff"/><path fill-rule="evenodd" d="M53.058 35.633V30.42c11.331.606 20.332 9.987 20.332 21.468s-9.001 20.86-20.332 21.468v-5.213c8.445-.603 15.132-7.66 15.132-16.255s-6.687-15.652-15.132-16.255zM39.575 62.548c-2.239-2.584-3.682-5.876-3.939-9.49H30.42c.27 5.057 2.293 9.646 5.463 13.179l3.689-3.689h.003zm11.144 10.808v-5.213c-3.617-.257-6.908-1.698-9.493-3.939l-3.689 3.689c3.536 3.172 8.125 5.192 13.179 5.463h.003z" fill="url(#D)"/></g><defs><linearGradient id="A" x1="52" y1="-8" x2="52" y2="112" gradientUnits="userSpaceOnUse"><stop stop-color="#3286f1"/><stop offset="1" stop-color="#c43ac4"/></linearGradient><radialGradient id="B" cx="0" cy="0" r="1" gradientUnits="userSpaceOnUse" gradientTransform="translate(52 -7.99999) rotate(90) scale(154.286 154.286)"><stop stop-color="#fff"/></radialGradient><linearGradient id="C" x1="-8" y1="-8" x2="18.25" y2="40.75" gradientUnits="userSpaceOnUse"><stop stop-color="#fff"/><stop offset="1" stop-color="#fff" stop-opacity="0"/></linearGradient><linearGradient id="D" x1="53.901" y1="33.439" x2="32.768" y2="54.572" gradientUnits="userSpaceOnUse"><stop stop-color="#0096ff"/><stop offset="1" stop-color="#ff1e56"/></linearGradient><clipPath id="E"><path fill="#fff" d="M0 0h104v104H0z"/></clipPath><path id="F" d="M26.019 7c16.077-9.282 35.885-9.282 51.962 0s25.981 26.436 25.981 45-9.904 35.718-25.981 45-35.885 9.282-51.962 0S.038 70.564.038 52 9.942 16.282 26.019 7z"/><path id="G" d="M0.538475 52C0.538475 33.6146 10.347 16.6257 26.2692 7.43301C42.1915 -1.7597 61.8085 -1.7597 77.7308 7.43301C93.653 16.6257 103.462 33.6146 103.462 52C103.462 70.3854 93.653 87.3743 77.7308 96.567C61.8085 105.76 42.1915 105.76 26.2692 96.567C10.347 87.3743 0.538475 70.3854 0.538475 52Z"/></defs></svg>