<svg xmlns="http://www.w3.org/2000/svg" width="128" height="128" fill="#fff" xmlns:v="https://vecta.io/nano"><path d="M22.039 41.585L22 46.549h7.889 7.888v22.415 22.415h5.58 5.58V68.963 46.549h7.889 7.888v-4.868l-.135-5.002c-.058-.077-9.659-.115-21.299-.096l-21.183.058-.058 4.945zm71.002-5.086c3.078.77 5.426 2.136 7.58 4.368 1.116 1.193 2.771 3.367 2.906 3.886.038.154-5.234 3.694-8.428 5.676-.115.077-.577-.423-1.097-1.193-1.559-2.27-3.194-3.252-5.695-3.425-3.675-.25-6.041 1.674-6.022 4.887 0 .943.135 1.501.52 2.27.808 1.674 2.309 2.674 7.023 4.714 8.677 3.733 12.39 6.195 14.699 9.697 2.578 3.906 3.155 10.139 1.405 14.776-1.924 5.041-6.696 8.466-13.411 9.601-2.078.366-7.003.308-9.235-.096-4.868-.866-9.485-3.271-12.333-6.426-1.116-1.231-3.29-4.445-3.155-4.675.058-.077.558-.385 1.116-.712l4.502-2.597 3.483-2.02.731 1.078c1.02 1.558 3.252 3.694 4.598 4.406 3.867 2.039 9.178 1.751 11.794-.597 1.116-1.02 1.578-2.078 1.578-3.636 0-1.404-.173-2.02-.904-3.078-.943-1.347-2.867-2.482-8.331-4.849-6.253-2.694-8.947-4.367-11.409-7.023-1.424-1.539-2.77-4.002-3.328-6.061-.462-1.712-.577-6.003-.212-7.735 1.289-6.041 5.849-10.255 12.429-11.506 2.136-.404 7.1-.25 9.197.269z"/></svg>