<svg xmlns="http://www.w3.org/2000/svg" width="63" height="36" fill="none" fill-rule="evenodd" xmlns:v="https://vecta.io/nano"><g stroke-width="6" stroke-linecap="round"><path d="M56.738 9.672l-.941-1.037c-2.582-2.581-6.148-4.177-10.088-4.177-7.879 0-14.267 6.384-14.267 14.26s6.387 14.26 14.267 14.26 14.267-6.384 14.267-14.26H46.774" stroke="#95a1ff" stroke-linejoin="round"/><path d="M9.363 6.596a14.35 14.35 0 0 0-2.185 1.8A14.32 14.32 0 0 0 3 18.53c0 7.916 6.387 14.334 14.267 14.334s14.267-6.417 14.267-14.334a14.32 14.32 0 0 0-4.179-10.135 14.35 14.35 0 0 0-2.153-1.778" stroke="#fff"/></g><ellipse fill="#01d5f0" fill-rule="nonzero" transform="matrix(1 0 0 -1 3 5.503864)" cx="14.267" cy="2.752" rx="2.753" ry="2.752"/></svg>