<svg xmlns="http://www.w3.org/2000/svg" xmlns:xlink="http://www.w3.org/1999/xlink" height="71" width="306" xmlns:v="https://vecta.io/nano"><linearGradient id="A"><stop offset="0" stop-color="#6a11cb"/><stop offset="1" stop-color="#2575fc"/></linearGradient><linearGradient id="B" x1="-16.826117%" x2="219.3%" xlink:href="#A" y1="68.255184%" y2="-19.959866%"/><linearGradient id="C" x1="-104.295098%" x2="112.418627%" xlink:href="#A" y1="86.9491%" y2="21.510283%"/><path d="M36.309 2.588v26.048c0 4.313-.864 7.417-2.591 9.315s-4.491 2.932-8.291 2.932-6.564-.862-8.291-2.76-2.591-5.002-2.591-9.487V2.587H.209v26.048c0 7.762 1.555 13.455 4.664 17.595.518.517.864 1.208 1.382 1.725 4.145 4.14 10.536 6.21 19.173 6.21 8.464 0 14.855-2.07 19-6.21.518-.517.864-1.035 1.382-1.725 3.109-4.14 4.664-10.005 4.664-17.595V2.587z" fill="url(#B)"/><path d="M59.455 67.793V2.415h13.818v8.108c1.9-3.277 4.145-5.692 6.909-7.417C82.945 1.553 86.055.69 89.682.69c7.082 0 12.609 2.415 16.582 7.073s6.045 11.212 6.045 19.493c0 8.107-2.073 14.49-6.045 19.32s-9.327 7.245-15.891 7.245c-3.973 0-7.255-.69-10.018-2.242-2.764-1.38-5.182-3.795-7.082-6.9.173 1.208.345 2.587.345 4.14 0 1.38.173 3.105.173 5.002v13.8H59.455zm13.127-40.537c0 4.485 1.036 7.935 3.282 10.523 2.245 2.415 5.355 3.795 9.155 3.795 3.973 0 7.082-1.208 9.155-3.795 2.245-2.415 3.282-6.038 3.282-10.522s-1.036-7.935-3.282-10.522-5.355-3.795-9.327-3.795c-3.8 0-6.909 1.38-9.155 3.967-2.073 2.242-3.109 5.865-3.109 10.35z" fill="url(#C)"/><path d="M124 68V3h14v65zm-78 0c-.519-.522-.865-1.217-1.384-1.739C40.464 62.087 34.063 60 25.414 60c-8.477 0-14.878 2.087-19.03 6.261C5.865 66.783 5.519 67.304 5 68zm152-.065h-14.029l.173-7.055c-1.905 3.097-4.33 5.334-7.101 6.883C174.271 69.14 170.98 70 166.997 70c-6.582 0-11.951-2.409-15.935-7.227S145 51.416 145 43.5c0-8.26 1.905-14.799 5.889-19.445S160.415 17 167.516 17c3.637 0 6.928.86 9.699 2.409 2.771 1.721 5.196 4.13 7.101 7.399V18.72H198zm-13.163-24.779c0-4.474-1.039-7.916-3.291-10.497s-5.196-3.958-9.18-3.958-6.928 1.205-9.18 3.786-3.291 6.023-3.291 10.497 1.039 7.916 3.291 10.497c2.252 2.409 5.196 3.786 9.18 3.786s7.101-1.205 9.353-3.786c1.905-2.409 3.118-5.851 3.118-10.325zM206 67.917V3h13.902v14.58l-.174 4.687-.521 4.513c2.433-3.645 4.866-6.249 7.646-7.811s5.908-2.43 9.557-2.43c7.125 0 12.685 2.43 16.682 7.117S259 34.938 259 43.269c0 8.158-2.085 14.58-6.082 19.44S243.534 70 236.931 70c-3.997 0-7.298-.694-10.079-2.256-2.78-1.389-5.213-3.819-7.125-6.943l.174 7.117zm13.207-24.995c0 4.513 1.043 7.984 3.302 10.588 2.259 2.43 5.387 3.819 9.21 3.819 3.997 0 7.125-1.215 9.21-3.819 2.259-2.43 3.302-6.075 3.302-10.588s-1.043-7.984-3.302-10.588-5.387-3.819-9.384-3.819c-3.823 0-6.951 1.389-9.21 3.992-1.911 2.256-3.128 5.902-3.128 10.415zM264 59.887l11.154-5.73a6.77 6.77 0 0 0 2.963 4.514c1.569 1.041 3.66 1.736 6.1 1.736s4.183-.347 5.577-1.215 2.091-2.084 2.091-3.646c0-2.431-2.44-4.341-7.32-6.077l-3.485-1.215c-5.925-2.257-9.934-4.341-12.199-6.598s-3.311-5.035-3.311-8.334c0-4.862 1.917-8.855 5.751-11.807S280.207 17 286.481 17c4.531 0 8.365.868 11.676 2.778 3.311 1.736 5.751 4.341 7.145 7.64l-10.631 5.209c-.523-1.91-1.568-3.299-2.963-4.167-1.394-1.042-3.137-1.389-5.402-1.389-2.091 0-3.834.521-5.228 1.389s-1.917 2.084-1.917 3.473c0 2.431 3.311 4.862 9.934 6.945.697.174 1.394.347 1.743.521 5.402 1.736 9.411 3.82 11.676 6.251S306 51.032 306 54.852c0 4.862-1.917 8.855-5.751 11.807S291.187 71 284.739 71c-5.228 0-9.585-1.042-13.245-2.952-3.834-2.257-6.274-4.862-7.494-8.161z" fill="#3a3a3a"/></svg>