<svg xmlns="http://www.w3.org/2000/svg" viewBox="0 0 220 220" fill="#666" xmlns:v="https://vecta.io/nano"><path d="M117.722 167.444c0-27.614 22.386-50 50-50h0c27.614 0 50 22.386 50 50h0c0 27.614-22.386 50-50 50h0c-27.614 0-50-22.386-50-50h0z" fill-opacity="60"/><path d="M117.722 52.556c0-27.614 22.386-50 50-50h0c27.614 0 50 22.386 50 50v45a5 5 0 0 1-5 5h-90a5 5 0 0 1-5-5v-45z" fill-opacity="30"/><path d="M102.278 167.444c0 27.614-22.386 50-50 50h0c-27.614 0-50-22.386-50-50v-45a5 5 0 0 1 5-5h90a5 5 0 0 1 5 5v45z"/></svg>