<svg xmlns="http://www.w3.org/2000/svg" width="290" height="290" viewBox="0 0 165 165" fill="none" xmlns:v="https://vecta.io/nano"><g clip-path="url(#B)"><g filter="url(#A)"><path d="M120.831 57.254l-36.138 52.251a3.11 3.11 0 0 1-1.578 1.182 3.12 3.12 0 0 1-1.974-.003 3.1 3.1 0 0 1-1.571-1.187 3.08 3.08 0 0 1-.533-1.891l1.446-28.848-23.349-4.952c-.499-.106-.964-.332-1.354-.66s-.692-.746-.881-1.218-.257-.983-.2-1.488.239-.988.529-1.407l36.138-52.251a3.11 3.11 0 0 1 1.578-1.182c.641-.213 1.334-.212 1.974.003s1.191.632 1.571 1.187.567 1.219.533 1.891l-1.446 28.848 23.349 4.951a3.11 3.11 0 0 1 1.354.66c.39.328.692.746.88 1.218s.257.983.2 1.488-.239.988-.529 1.407h0z" fill="#fcc72b"/><path d="M82.987 153.343c-.961.001-1.913-.187-2.801-.555s-1.695-.908-2.373-1.588l-34.146-34.144c-1.366-1.373-2.132-3.232-2.129-5.169s.773-3.795 2.143-5.164a7.32 7.32 0 0 1 10.334-.015l28.973 28.97 63.118-63.115c1.376-1.354 3.231-2.109 5.161-2.101s3.78.778 5.144 2.143a7.32 7.32 0 0 1 .042 10.306L88.16 151.2a7.29 7.29 0 0 1-5.173 2.143z" fill="#729b1b"/><path d="M82.957 153.343c.961.001 1.913-.187 2.801-.555s1.694-.908 2.373-1.588l34.146-34.144c1.366-1.373 2.132-3.232 2.129-5.169a7.31 7.31 0 0 0-2.143-5.164 7.32 7.32 0 0 0-10.334-.015l-28.973 28.97-63.118-63.115c-1.376-1.354-3.231-2.109-5.161-2.101s-3.779.778-5.144 2.143-2.135 3.214-2.143 5.144.747 3.785 2.101 5.161l68.293 68.29a7.29 7.29 0 0 0 2.373 1.588c.888.368 1.84.556 2.8.555z" fill="#729b1b" fill-opacity=".5"/></g></g><defs><filter id="A" x="1.39" y="10.443" width="167.163" height="153.9" filterUnits="userSpaceOnUse" color-interpolation-filters="sRGB"><feFlood flood-opacity="0" result="A"/><feColorMatrix in="SourceAlpha" values="0 0 0 0 0 0 0 0 0 0 0 0 0 0 0 0 0 0 127 0" result="B"/><feOffset dx="2" dy="3"/><feGaussianBlur stdDeviation="4"/><feComposite in2="B" operator="out"/><feColorMatrix values="0 0 0 0 0.108333 0 0 0 0 0.108333 0 0 0 0 0.108333 0 0 0 0.2 0"/><feBlend in2="A"/><feBlend in="SourceGraphic"/></filter><clipPath id="B"><path fill="#fff" d="M0 0h165v165H0z"/></clipPath></defs></svg>