<svg xmlns="http://www.w3.org/2000/svg" xmlns:xlink="http://www.w3.org/1999/xlink" width="30" height="30" fill="none" xmlns:v="https://vecta.io/nano"><defs><path id="A" d="M0 0h30v30H0z"/><path id="B" d="M0 0h22v22H0z"/></defs><g transform="matrix(1 0 0 1 0 0)"><mask id="D" fill="#fff"><use xlink:href="#A"/></mask><g mask="url(#D)"><g transform="matrix(1 0 0 1 4 4)"><mask id="D" fill="#fff"><use xlink:href="#B"/></mask><g mask="url(#D)" fill-rule="evenodd"><path transform="matrix(1 0 0 1 1.364258 2.65332)" d="M15.42 0L9.64 10.02 3.85 0H0l9.64 16.69L19.27 0h-7.41 3.56z" fill="#41b883"/><path transform="matrix(1 0 0 1 5.218555 2.655469)" d="M8.01 0L5.78 3.85 3.56 0H0l5.78 10.01L11.56 0H8.01z" fill="#34495e"/></g></g></g></g></svg>