<svg xmlns="http://www.w3.org/2000/svg" width="671" height="670" fill="none" xmlns:v="https://vecta.io/nano"><path fill-rule="evenodd" d="M335.712 653.926c176.162 0 318.968-142.806 318.968-318.967S511.874 15.991 335.712 15.991 16.745 158.798 16.745 334.959s142.806 318.967 318.967 318.967zm0 6.354c179.669 0 325.322-145.652 325.322-325.321S515.381 9.637 335.712 9.637 10.391 155.289 10.391 334.959 156.042 660.28 335.712 660.28z" fill="#aeddff"/><path d="M487.497 69.898c10.317 0 18.681-8.364 18.681-18.681s-8.364-18.681-18.681-18.681-18.681 8.364-18.681 18.681 8.364 18.681 18.681 18.681zm-303.57 567.496c10.317 0 18.681-8.363 18.681-18.68s-8.364-18.681-18.681-18.681-18.681 8.364-18.681 18.681 8.364 18.68 18.681 18.68zm156.997-348.133l-97.358 168.666 92.187 159.768 122.101-211.486 122.045-211.485h-184.43l-54.545 94.537z" fill="#1697f6"/><path d="M213.71 406.209l6.394 11.122 91.075-157.821 37.419-64.786h-12.843H91.609L213.71 406.209z" fill="#aeddff"/><path d="M395.469 194.724c46.149 151.871-59.716 422.971-59.716 422.971l-92.187-159.768 151.903-263.203z" fill="#1867c0"/><path d="M348.598 194.724c-194.438 0-128.495 222.607-128.495 222.607l128.495-222.607z" fill="#7bc6ff"/></svg>