<svg xmlns="http://www.w3.org/2000/svg" xmlns:xlink="http://www.w3.org/1999/xlink" width="30" height="30" fill="none" xmlns:v="https://vecta.io/nano"><defs><path id="A" d="M0 0h30v30H0z"/></defs><g transform="matrix(1 0 0 1 0 0)"><mask id="B" fill="#fff"><use xlink:href="#A"/></mask><g mask="url(#B)"><path fill-rule="evenodd" transform="matrix(1 0 0 1 3.930674 3.716419)" d="M9.9 17.5l1.3-.08c2.15-.12 3.95-1.17 4.7-2.74 1.2-2.46-1.13-5.63-3.63-4.91l-.54.13c0-.02.19-.73.4-1.6l.42-1.57-.45-.8c-.25-.45-.52-.81-.58-.81-.09 0-1.1.53-2.25 1.18L7.15 7.48l-1.03-.55c-.9-.46-1-.56-.75-.73.9-.62 5.71-3.27 5.83-3.22l3.67 2.05 3.53 2v8.5l-3.53 2-3.72 2.04c-.08.03-1.78-.89-3.75-2.02L3.82 15.5l-.05-1.87-.05-1.85H1.07v5.15l5.01 2.85 5.02 2.87.7-.38 4.98-2.82 4.27-2.42V5.53L16.2 2.78 11.15 0C11.02-.03.27 6.03 0 6.3c-.05.05 1.32.9 3.03 1.9l3.45 2.03c.3.19.5.12 1.74-.63.76-.45 1.41-.8 1.45-.78.03.03-.1.61-.27 1.3-.42 1.61-.42 1.75.1 2.63l.43.73.54-.5c.7-.66 1.13-.86 1.85-.86.81 0 1.18.21 1.4.85.4 1.18-.84 2.13-2.77 2.15H9.9v2.38z" fill="#fff"/></g></g></svg>