<svg xmlns="http://www.w3.org/2000/svg" xmlns:xlink="http://www.w3.org/1999/xlink" width="32" height="32" fill="none" xmlns:v="https://vecta.io/nano"><defs><linearGradient id="A" x1="100%" y1="100%" x2="0%" y2="0%"><stop offset="0" stop-color="#7bc7c0"/><stop offset="1" stop-color="#047a6c"/></linearGradient><path id="B" d="M0 0h22v22H0z"/><path id="C" d="M0 1.55a1.56 1.56 0 0 0 1.55 1.56c.86 0 1.56-.7 1.56-1.56A1.56 1.56 0 0 0 1.55 0 1.56 1.56 0 0 0 0 1.55z"/><path id="D" d="M0 .18a.18.18 0 0 0 .18.18C.25.37.31.33.34.27.37.22.37.15.34.09S.25 0 .18 0A.18.18 0 0 0 0 .18z"/></defs><g transform="matrix(1 0 0 1 0 0)"><path fill-rule="evenodd" fill="url(#A)" transform="matrix(1 0 0 1 0 0)" d="M0 32h32V0H0v32z"/><g transform="matrix(1 0 0 1 5 5)"><mask id="E" fill="#fff"><use xlink:href="#B"/></mask><g mask="url(#E)"><g fill-rule="evenodd"><path transform="matrix(1 0 0 1 0 0)" d="M0 11c0 6.08 4.92 11 11 11s11-4.92 11-11S17.08 0 11 0 0 4.92 0 11z" fill="#7fc9c3"/><path transform="matrix(1 0 0 1 2.369168 2.37716)" d="M8.83 17.24h.03.18l.05-.01c.05 0 .11 0 .16-.01h.08c.03-.01.07-.01.1-.01 3.87-.36 7-3.28 7.68-7.04.08-.33.08-.43.12-.94h0 .01 0c0-.03 0-.06.01-.1V9.1v-.02c.05-.64-.03-1.7-.25-2.52l-.01-.04C16.05 2.77 12.66 0 8.62 0 4.49 0 1.03 2.91.2 6.79.06 7.26.02 7.85 0 8.37v.25.02.25.21c0 .54.04.66.12.98h0c.65 3.81 3.8 6.77 7.7 7.13h.04c.05.01.1.01.15.01l.07.01a.53.53 0 0 1 .13.01h.09.12.14c.02.01.04.01.06.01h.01c.07 0 .13-.01.2-.01z" fill="#8ccec9"/><path transform="matrix(1 0 0 1 4.574195 4.579953)" d="M12.84 6.87h0V6.8v-.03h0v-.01a6.29 6.29 0 0 0-.18-1.87l-.01-.04C11.95 2.06 9.42 0 6.42 0 3.34 0 .77 2.17.15 5.06h0C.04 5.4.01 5.85 0 6.23v.19.01.19.16c0 .4.03.49.09.73h0c.49 2.83 2.83 5.04 5.74 5.3h.02c.04.01.08.01.12.01l.05.01h.1c.02 0 .04 0 .06.01h.09.1.05.01.14.02c.05 0 .1-.01.14-.01h.04c.04 0 .08 0 .12-.01h.06c.02 0 .05-.01.07-.01a6.44 6.44 0 0 0 5.72-5.24c.06-.24.06-.32.09-.7h0 .01z" fill="#98d3ce"/><path transform="matrix(1 0 0 1 6.987191 6.990758)" d="M8.02 4.29v-.04-.02-.01c.02-.3-.02-.79-.12-1.17v-.02C7.46 1.29 5.89 0 4.01 0A4.01 4.01 0 0 0 .09 3.16c-.06.22-.08.49-.09.73v.12.01.11.1c0 .25.02.31.06.46h0C.36 6.46 1.82 7.83 3.64 8h.01c.03 0 .05.01.08.01h.03.06c.01 0 .03 0 .04.01h.05.07.03 0 .09.02c.03 0 .05-.01.08-.01h.03.07L4.34 8h.05c1.79-.17 3.25-1.52 3.56-3.27.04-.15.04-.2.06-.44h0 .01z" fill="#a2d7d3"/><path transform="matrix(1 0 0 1 5.984816 1.921563)" d="M0 5.63a5.63 5.63 0 1 0 11.26 0A5.63 5.63 0 1 0 0 5.63z" fill="#fff"/><use xlink:href="#C" transform="matrix(1 0 0 1 6.465293 6.233863)" fill="#f9f9f9"/><path transform="matrix(1 0 0 1 .841328 14.460458)" d="M14.76.11c-1.35.1-2.63.64-3.97.77C7.95 1.16 5.12-.41 2.31.1 1.55.24.77.54 0 .76c1.66 3.98 5.58 6.78 10.16 6.78 4.48 0 8.34-2.69 10.06-6.54-1.81-.36-3.63-1.03-5.46-.89z" fill="#4cb5ab"/><use xlink:href="#C" transform="matrix(1 0 0 1 10.698145 6.353832)" fill="#f9f9f9"/><path transform="matrix(1 0 0 1 4.205695 16.325413)" d="M0 3.33C1.87 4.8 4.23 5.67 6.79 5.67c4 0 7.5-2.13 9.43-5.32-.87-.17-1.74-.3-2.62-.34-2.08-.1-4.12.49-6.11 1.13C3.15 2.51.01 2.48 0 2.48v.85z" fill="#00877a"/><path transform="matrix(1 0 0 1 1.569348 16.325413)" d="M8.66 1.14C6.67.5 4.63-.09 2.55.01 1.69.05.84.17 0 .34a10.98 10.98 0 0 0 9.43 5.33 10.99 10.99 0 0 0 7.63-3.07c-1.4-.08-4.99-.38-8.4-1.46z" fill="#26a599"/><path transform="matrix(1 0 0 1 3.828258 18.400355)" d="M7.59.22C6.05.02 4.48-.11 2.94.13 1.93.28.96.59 0 .94 1.93 2.6 4.43 3.6 7.17 3.6a10.97 10.97 0 0 0 6.95-2.47L7.59.22z" fill="#00786a"/><path transform="matrix(1 0 0 1 6.440771 5.548813)" d="M5.19 11.64l.03-.19h-.01c.03-.14.06-.32.06-.6-.01-.37.08-.72.16-1.07.01-.02.03-.05.05-.07.02.02.05.03.07.05l.25.35c.23.24.58.56.64.89.01.05.02.11.04.17 0 .58-.12 1.17-.12 1.17-.17.13-.29.3-.29.3h.4c.04-.22.1-.21.1-.21l.14-.61h.01c0-.02 0-.04.01-.06.12-.58.26-1.37.17-1.67.01-.01.01-.03.01-.04a.94.94 0 0 0 .12.22c.37.55.06 2.07.06 2.07-.17.13-.28.3-.28.3h.4c.03-.22.09-.21.09-.21s.55-2.12.3-2.43c-.43-.51-.41-1.18-.35-1.56l.07-.32h0l.21-.9c.06-.18-.07-.69-.11-.8-.1-.29-.29-.36-.48-.52-.27-.23-.59-.31-.92-.3-.31.01-.63-.01-.94-.03-.04 0-.08-.05-.1-.09-.03-.05-.05-.11-.05-.16-.01-.06-.01-.14.02-.17.09-.08.19-.17.3-.19.15-.03.27-.05.37-.2.12-.16.13-.35-.07-.4-.19-.05-.25-.23-.39-.32-.01-.01-.02-.07-.01-.09.05-.09.03-.15-.07-.22.05-.01.09-.01.12-.03.1-.04.21-.07.29-.14.13-.12.26-.26.36-.4.09-.13.16-.25.32-.29.05-.02.09-.06.12-.1l.57-.73c.03-.03.05-.08.07-.12.08-.21.03-.41-.07-.6-.02.05-.02.1-.02.14 0 .08.01.16-.01.24-.12.48-.49.66-.89.75-.09.01-.1-.04-.08-.11l.23-.62c.06-.16.13-.32.24-.44.31-.35.29-.72.12-1.11-.01-.03-.01-.05-.02-.08-.07.07-.06.13-.05.18 0 .15.03.29.02.44-.01.13-.05.25-.17.33-.07.04-.11.05-.15-.05L5.84.33C5.83.3 5.8.27 5.77.23c-.03.05-.03.08-.03.11l.02.48c.01.09.01.18-.1.23-.02.01-.03.06-.03.09.02.14-.08.21-.21.17-.04-.02-.11-.04-.16-.06-.33-.18-.55-.5-.85-.73 0 .05.01.08.04.11.24.31.49.63.82.85.1.07.2.13.33.11.12-.01.15.02.14.15-.04.42-.19.77-.61.95-.16.07-.29.18-.43.29-.16.12-.35.15-.54.17-.04 0-.1-.04-.12-.07-.01-.02.02-.09.05-.12.16-.14.23-.33.27-.53a.47.47 0 0 0-.08-.38c-.01.02-.01.04-.01.06.08.29-.16.63-.41.74-.11.04-.2.04-.31 0-.07-.03-.15-.05-.22-.05-.07-.01-.1-.04-.12-.1l-.14-.37c-.01.01-.05.02-.04.08l.07.24c.03.08.02.14-.08.13-.39-.04-.76-.12-1.09-.35a.57.57 0 0 1-.07-.08c-.08-.19-.18-.38-.15-.6 0-.05-.01-.1-.01-.15-.02-.05-.04-.04-.06-.05l-.05.53h-.03c-.26-.27-.44-.57-.41-.96l.1-.77.04-.24C1.28.11 1.26.1 1.25.1l-.14.33-.14.35C.95.81.89.84.87.83.67.76.51.66.5.42V.09C.49.02.45 0 .44 0 .42.06.39.16.39.22l.04.54c.02.11.02.33.05.44C.16 1.05.18.66.01.46 0 .6-.01.75.03.87c.09.26.24.47.47.62.04.03.07.07.1.1.05.06.09.13.14.18l.5.44c.49.47 1.07.76 1.74.83.2.02.22.06.18.25-.05.2-.07.4.05.59.01.02.02.06.01.09l-.15.51-.12.46-.2.88a.38.38 0 0 0 0 .15l.05.63.02.9c.01.16.03.32.06.48.03.21.08.42.25.58.16.15.23.34.22.58 0 .12.04.25.07.38.05.2.14.4.17.61.03.29.02.59.04.88 0 .1.02.19.04.29 0 .05.02.1.02.15 0 .06-.01.13-.01.19 0 .19-.03.62-.04.71 0 0-.16.15-.16.29h.3s.02-.15.09-.26c0 0 .03-.61.1-.93h-.01c.01-.02.01-.04.01-.06.02-.16.09-.32.09-.49.02-.38 0-.76 0-1.14 0-.08.02-.16.02-.24.01-.1.08-.37.46-.4.16-.03.33.07.34.22l.06.75c0 .12-.02.25-.04.36-.02.16-.09.31-.01.47.13.23.06.48.08.73l-.04.7s-.14.15-.14.29h.27s.01-.15.08-.26l.05-.73zm.532-8.9c.19.09.53.01.57-.18l-.57.18zm-.788.47l.62-.19c-.19-.1-.56.01-.62.19z" fill="#006064"/><path transform="matrix(1 0 0 1 14.175217 2.69341)" d="M.28 0A1.72 1.72 0 0 0 0 .93C0 1.85.75 2.6 1.67 2.6c.29 0 .57-.07.82-.22A5.64 5.64 0 0 0 .28 0z" fill="#f9f9f9"/></g><g transform="matrix(1 0 0 1 2.475048 1.323115)" fill-rule="evenodd" fill="#fff"><use xlink:href="#D" transform="matrix(1 0 0 1 1.380113 2.985984)"/><path transform="matrix(1 0 0 1 17.566844 7.409166)" d="M0 .18a.18.18 0 0 0 .18.18.18.18 0 0 0 .18-.18A.18.18 0 0 0 .18 0 .18.18 0 0 0 0 .18z"/><use xlink:href="#D" transform="matrix(1 0 0 1 0 6.371664)"/><use xlink:href="#D" transform="matrix(1 0 0 1 15.903035 2.773719)"/><use xlink:href="#D" transform="matrix(1 0 0 1 15.538488 6.107063)"/><use xlink:href="#D" transform="matrix(1 0 0 1 11.892418 .078246)"/><use xlink:href="#D" transform="matrix(1 0 0 1 5.894195 0)"/><use xlink:href="#D" transform="matrix(1 0 0 1 2.205113 6.107063)"/></g></g></g></g></svg>