<svg xmlns="http://www.w3.org/2000/svg" width="29.257" height="29.279" fill="none" fill-rule="evenodd" xmlns:v="https://vecta.io/nano"><path d="M12.797 16.681c0 2.53 2.39 4.57 5.42 4.57.64 0 1.28-.16 1.91-.32l1.75.95-.48-1.57c1.28-.95 2.23-2.21 2.23-3.63 0-2.51-2.55-4.56-5.41-4.56-3.03 0-5.42 2.05-5.42 4.56z" fill="#fff"/><path d="M15.826 15.274c0 .31.32.62.64.62.47 0 .79-.31.79-.62 0-.32-.31-.63-.79-.63-.32 0-.64.31-.64.63zm3.508 0a.68.68 0 0 0 .63.62h.01c.47 0 .79-.31.79-.62 0-.32-.32-.63-.79-.63-.32 0-.64.31-.64.63z" fill="#38ab3e"/><path d="M8.179 16.996l-.64 1.9 2.23-1.11c.8.15 1.44.31 2.23.31h.3l.29-.02c-.13-.43-.19-.87-.19-1.32 0-2.75 2.39-4.98 5.42-4.98.2 0 .4.02.61.04-.55-2.54-3.29-4.42-6.43-4.42h0c-3.5 0-6.37 2.36-6.37 5.35 0 1.73.95 3.15 2.55 4.25z" fill="#fff"/><path d="M8.964 10.864c0 .47.48.78.96.78s.8-.32.8-.78c0-.48-.32-.79-.8-.79s-.96.31-.96.79zm4.461-.003c0 .47.48.78.96.78s.8-.31.8-.78c0-.48-.32-.79-.8-.79-.47 0-.95.31-.96.79z" fill="#38ab3e"/></svg>