<svg xmlns="http://www.w3.org/2000/svg" width="128" height="128" fill="none" xmlns:v="https://vecta.io/nano"><path d="M40.5 107V86v-6.5H88V86h-2v16h-5.5v5h-40z" fill="#fff"/><path d="M74.5 22H52v5.5h-6.5V33h-5v6H34v4h-6v6h-4.5v11H17v20.5h6.5V86h17v-5.5h46V86H103v-5.5h7V60h-7V49h-5.5v-6h-5v-5.5h-7V33H80v-5.5h-5.5V22z" fill="#f7b400"/><path d="M80.5 27.5H69V32h-6v12h6v4.5h17.5V44H93v-6.5h-6.5V32h-6v-4.5zm-29 21h-17v5h-6V71h6v4.5h17V70h6V53.5h-6v-5zm46.5 11H86v11h6.5v5H105v-11h-7v-5zM28.5 86v-5.5h17V86h-17zm53 0v-5.5h17V86h-17z" fill="#00ab00"/><path d="M69.5 107h6v-5h5V92H75v10h-5.5v5z" fill="#f7b400"/><path d="M38.5 107v-5H46v5h-7.5z" fill="#fff0f7"/></svg>