<svg xmlns="http://www.w3.org/2000/svg" viewBox="0 0 1024 1024" width="128" height="128" xmlns:v="https://vecta.io/nano"><path d="M0 264.828a141.242 141.242 0 1 0 282.484 0 141.242 141.242 0 1 0-282.484 0z" fill="#504b5a"/><path d="M70.622 264.828a70.62 70.62 0 1 0 141.24 0 70.62 70.62 0 1 0-141.24 0z" fill="#625d6b"/><path d="M741.516 264.828a141.242 141.242 0 1 0 282.484 0 141.242 141.242 0 1 0-282.484 0z" fill="#504b5a"/><path d="M812.138 264.828a70.62 70.62 0 1 0 141.24 0 70.62 70.62 0 1 0-141.24 0z" fill="#625d6b"/><path d="M35.31 529.656a476.69 370.758 0 1 0 953.38 0 476.69 370.758 0 1 0-953.38 0Z" fill="#ededee"/><path d="M653.242 865.104c-26.99 0-53.32-2.662-78.746-7.688-9.062-1.792-9.16-14.498-.134-16.464 76.666-16.692 131.846-64.838 131.846-134.744 0-70.62-94.928-176.552-194.206-176.552-80.91 0-158.724 70.302-184.784 134.554-3.294 8.126-14.754 8.342-18.942.638-27.752-51.044-43.448-109.02-43.448-170.502 0-147.788 90.604-275.344 221.666-334.908C235.088 169.75 35.31 331.548 35.31 529.656c0 204.764 213.422 370.758 476.69 370.758 81.798 0 158.768-16.046 226.036-44.28a406.942 406.942 0 0 1-84.794 8.97z" fill="#dcdbde"/><path d="M370.758 476.69c0 52.966-35.31 194.206-123.586 194.206-52.966 0-105.932-52.966-88.276-123.586s88.276-141.242 141.242-141.242c39.002 0 70.62 31.62 70.62 70.622zm282.484 0c0 52.966 35.31 194.206 123.586 194.206 52.966 0 105.932-52.966 88.276-123.586s-88.276-141.242-141.242-141.242c-39.002 0-70.62 31.62-70.62 70.622zm30.138 217.034a17.65 17.65 0 0 0-24.966 0l-16.586 16.578c-7.828 7.81-19.034 11.55-29.966 10l-82.206-11.748v-47.32c2.018-.718 4.092-1.212 6.032-2.18l28.88-14.44a32.656 32.656 0 0 0 18.054-29.212v-.12c0-18.04-14.622-32.662-32.662-32.662h-75.918c-18.04 0-32.662 14.622-32.662 32.662v.118a32.66 32.66 0 0 0 18.054 29.212l28.88 14.44c1.938.968 4.014 1.464 6.032 2.18v47.318l-82.19 11.74c-11.086 1.612-22.156-2.18-29.982-9.982l-16.588-16.586a17.65 17.65 0 1 0-24.966 24.966l16.588 16.596c15.656 15.63 38.138 23.112 59.93 19.966L512 741.698l94.878 13.562c3.276.466 6.57.69 9.844.69 18.586 0 36.776-7.388 50.07-20.672l16.588-16.586a17.65 17.65 0 0 0 0-24.968z" fill="#504b5a"/><path d="M300.138 520.828c-14.62 0-26.482-11.854-26.482-26.482V476.69c0-14.63 11.862-26.482 26.482-26.482s26.482 11.854 26.482 26.482v17.656c0 14.628-11.862 26.482-26.482 26.482zm423.724 0c-14.62 0-26.482-11.854-26.482-26.482V476.69c0-14.63 11.862-26.482 26.482-26.482s26.482 11.854 26.482 26.482v17.656c0 14.628-11.862 26.482-26.482 26.482z" fill="#8d8a94"/></svg>