<svg xmlns="http://www.w3.org/2000/svg" viewBox="0 0 1024 1024" width="128" height="128" fill="#01aae3" xmlns:v="https://vecta.io/nano"><path d="M180.533 507.367c158.679-65.355 235.486-30.474 304.27 16.218l-79.44 273.045c-69.019-46.431-144.084-84.636-303.397-18.777l77.643-270.088.924-.398zM526.4 549.988c68.989 46.398 139.539 80.439 301.656 24.985l-75.661 263.243c-159.142 65.832-235.542 28.585-304.44-18.129l78.445-270.1zm-28.377-75.624c-41.512-27.97-86.198-54.113-149.668-54.582-41.864-.322-91.71 11.588-155.011 37.731l78.411-271.752c159.199-65.822 235.701-28.521 304.673 18.129l-78.405 270.474zm424.011-224.367c-158.988 65.7-235.394 28.754-304.215-17.613L539.391 504.37c68.767 46.628 151.876 84.897 304.316 16.685l78.327-271.058z"/></svg>