<svg xmlns="http://www.w3.org/2000/svg" viewBox="0 0 1024 1024" width="128" height="128" xmlns:v="https://vecta.io/nano"><path d="M715.337 901.266c10.971 0 20.114-3.95 27.648-11.776a39.278 39.278 0 0 0 11.264-28.16 37.595 37.595 0 0 0-38.912-38.912H322.121l425.984-638.976a40.229 40.229 0 0 0 7.168-21.504 34.085 34.085 0 0 0-5.12-18.432 37.157 37.157 0 0 0-34.816-20.48H248.393a37.595 37.595 0 0 0-27.648 11.264 37.595 37.595 0 0 0-11.264 27.648c0 10.971 3.73 20.114 11.264 27.648a37.595 37.595 0 0 0 27.648 11.264h393.216L215.625 839.826a37.888 37.888 0 0 0-6.144 21.504 39.863 39.863 0 0 0 38.912 39.936h466.944z" fill="#fff"/></svg>