<?xml version="1.0" standalone="no"?><!DOCTYPE svg PUBLIC "-//W3C//DTD SVG 1.1//EN" "http://www.w3.org/Graphics/SVG/1.1/DTD/svg11.dtd"><svg t="1670987795522" class="icon" viewBox="0 0 1024 1024" version="1.1" xmlns="http://www.w3.org/2000/svg" p-id="12568" xmlns:xlink="http://www.w3.org/1999/xlink" width="128" height="128"><path d="M715.337143 901.266286c10.971429 0 20.114286-3.949714 27.648-11.776a39.277714 39.277714 0 0 0 11.264-28.16 37.595429 37.595429 0 0 0-11.264-27.648 37.595429 37.595429 0 0 0-27.648-11.264H322.121143l425.984-638.976a40.228571 40.228571 0 0 0 7.168-21.504 34.084571 34.084571 0 0 0-5.12-18.432 37.156571 37.156571 0 0 0-34.816-20.48H248.393143a37.595429 37.595429 0 0 0-27.648 11.264 37.595429 37.595429 0 0 0-11.264 27.648c0 10.971429 3.730286 20.114286 11.264 27.648a37.595429 37.595429 0 0 0 27.648 11.264h393.216l-425.984 638.976a37.888 37.888 0 0 0-6.144 21.504 39.862857 39.862857 0 0 0 38.912 39.936H715.337143z" fill="#ffffff" p-id="12569"></path></svg>