<?xml version="1.0" standalone="no"?><!DOCTYPE svg PUBLIC "-//W3C//DTD SVG 1.1//EN" "http://www.w3.org/Graphics/SVG/1.1/DTD/svg11.dtd"><svg t="1670937798551" class="icon" viewBox="0 0 1024 1024" version="1.1" xmlns="http://www.w3.org/2000/svg" p-id="26019" xmlns:xlink="http://www.w3.org/1999/xlink" width="128" height="128"><path d="M950.12864 511.77472c0-22.6304-18.3296-40.96-40.96-40.96h-138.99776v-78.39744c0-22.6304-18.3296-40.96-40.96-40.96s-40.96 18.3296-40.96 40.96v78.39744H528.7936v-265.4208c0-69.38624-56.25856-125.6448-125.6448-125.6448h-195.52256c-69.38624 0-125.6448 56.25856-125.6448 125.6448v615.2192c0 69.38624 56.25856 125.6448 125.6448 125.6448h195.52256c69.38624 0 125.6448-56.25856 125.6448-125.6448v-117.16608c0-22.6304-18.3296-40.96-40.96-40.96s-40.96 18.3296-40.96 40.96v117.16608c0 24.14592-19.57888 43.7248-43.7248 43.7248h-195.52256c-24.14592 0-43.7248-19.57888-43.7248-43.7248v-267.8784h524.34944v267.85792c0 69.38624 56.25856 125.6448 125.6448 125.6448h95.29344c22.6304 0 40.96-18.3296 40.96-40.96s-18.3296-40.96-40.96-40.96H813.8752c-24.14592 0-43.7248-19.57888-43.7248-43.7248V552.73472h138.99776c22.65088 0 40.98048-18.3296 40.98048-40.96z m-786.2272-40.96v-265.4208c0-24.10496 19.61984-43.7248 43.7248-43.7248h195.52256c24.10496 0 43.7248 19.61984 43.7248 43.7248v265.4208H163.90144z" p-id="26020" fill="#ffffff"></path></svg>