<svg xmlns="http://www.w3.org/2000/svg" viewBox="0 0 1024 1024" width="128" height="128" xmlns:v="https://vecta.io/nano"><path d="M950.129 511.775c0-22.63-18.33-40.96-40.96-40.96H770.171v-78.397c0-22.63-18.33-40.96-40.96-40.96s-40.96 18.33-40.96 40.96v78.397H528.794V205.394c0-69.386-56.259-125.645-125.645-125.645H207.626c-69.386 0-125.645 56.259-125.645 125.645v615.219c0 69.386 56.259 125.645 125.645 125.645h195.523c69.386 0 125.645-56.259 125.645-125.645V703.447c0-22.63-18.33-40.96-40.96-40.96s-40.96 18.33-40.96 40.96v117.166c0 24.146-19.579 43.725-43.725 43.725H207.626c-24.146 0-43.725-19.579-43.725-43.725V552.735h524.349v267.858c0 69.386 56.259 125.645 125.645 125.645h95.293c22.63 0 40.96-18.33 40.96-40.96s-18.33-40.96-40.96-40.96h-95.314c-24.146 0-43.725-19.579-43.725-43.725V552.735h138.998c22.651 0 40.98-18.33 40.98-40.96zm-786.227-40.96V205.394c0-24.105 19.62-43.725 43.725-43.725h195.523c24.105 0 43.725 19.62 43.725 43.725v265.421H163.901z" fill="#fff"/></svg>